<svg width="1920" height="1440" viewBox="0 0 1920 1440" fill="none" xmlns="http://www.w3.org/2000/svg">
<g clip-path="url(#clip0_105_192)">
<rect width="1920" height="1440" fill="url(#paint0_linear_105_192)"/>
<path d="M152.879 839.529H135.945L184.925 706.135H201.599L250.58 839.529H233.645L193.783 727.238H192.741L152.879 839.529ZM159.132 787.422H227.392V801.751H159.132V787.422ZM287.51 706.135V839.529H271.357V706.135H287.51Z" fill="url(#paint1_linear_105_192)"/>
<path d="M151.729 1139.71H130.83L191.274 975.097H211.851L272.295 1139.71H251.397L202.206 1001.14H200.92L151.729 1139.71ZM159.445 1075.41H243.681V1093.09H159.445V1075.41ZM317.869 975.097V1139.71H297.935V975.097H317.869ZM412.494 992.78V975.097H535.953V992.78H484.19V1139.71H464.257V992.78H412.494ZM596.397 1142.28C585.252 1142.28 575.472 1139.63 567.06 1134.32C558.7 1129.02 552.163 1121.6 547.447 1112.06C542.786 1102.52 540.455 1091.38 540.455 1078.62C540.455 1065.76 542.786 1054.54 547.447 1044.95C552.163 1035.35 558.7 1027.91 567.06 1022.6C575.472 1017.3 585.252 1014.64 596.397 1014.64C607.543 1014.64 617.295 1017.3 625.655 1022.6C634.068 1027.91 640.605 1035.35 645.267 1044.95C649.982 1054.54 652.34 1065.76 652.34 1078.62C652.34 1091.38 649.982 1102.52 645.267 1112.06C640.605 1121.6 634.068 1129.02 625.655 1134.32C617.295 1139.63 607.543 1142.28 596.397 1142.28ZM596.397 1125.24C604.864 1125.24 611.83 1123.07 617.295 1118.73C622.761 1114.39 626.807 1108.68 629.433 1101.61C632.058 1094.54 633.371 1086.88 633.371 1078.62C633.371 1070.37 632.058 1062.68 629.433 1055.55C626.807 1048.43 622.761 1042.67 617.295 1038.27C611.83 1033.88 604.864 1031.68 596.397 1031.68C587.931 1031.68 580.965 1033.88 575.499 1038.27C570.033 1042.67 565.988 1048.43 563.362 1055.55C560.736 1062.68 559.424 1070.37 559.424 1078.62C559.424 1086.88 560.736 1094.54 563.362 1101.61C565.988 1108.68 570.033 1114.39 575.499 1118.73C580.965 1123.07 587.931 1125.24 596.397 1125.24ZM731.452 1142.28C720.306 1142.28 710.527 1139.63 702.114 1134.32C693.755 1129.02 687.217 1121.6 682.502 1112.06C677.84 1102.52 675.509 1091.38 675.509 1078.62C675.509 1065.76 677.84 1054.54 682.502 1044.95C687.217 1035.35 693.755 1027.91 702.114 1022.6C710.527 1017.3 720.306 1014.64 731.452 1014.64C742.597 1014.64 752.35 1017.3 760.709 1022.6C769.122 1027.91 775.659 1035.35 780.321 1044.95C785.037 1054.54 787.394 1065.76 787.394 1078.62C787.394 1091.38 785.037 1102.52 780.321 1112.06C775.659 1121.6 769.122 1129.02 760.709 1134.32C752.35 1139.63 742.597 1142.28 731.452 1142.28ZM731.452 1125.24C739.918 1125.24 746.884 1123.07 752.35 1118.73C757.816 1114.39 761.861 1108.68 764.487 1101.61C767.113 1094.54 768.425 1086.88 768.425 1078.62C768.425 1070.37 767.113 1062.68 764.487 1055.55C761.861 1048.43 757.816 1042.67 752.35 1038.27C746.884 1033.88 739.918 1031.68 731.452 1031.68C722.985 1031.68 716.019 1033.88 710.554 1038.27C705.088 1042.67 701.042 1048.43 698.417 1055.55C695.791 1062.68 694.478 1070.37 694.478 1078.62C694.478 1086.88 695.791 1094.54 698.417 1101.61C701.042 1108.68 705.088 1114.39 710.554 1118.73C716.019 1123.07 722.985 1125.24 731.452 1125.24ZM835.32 975.097V1139.71H816.35V975.097H835.32ZM957.513 1043.9L940.473 1048.72C939.402 1045.88 937.821 1043.12 935.731 1040.44C933.695 1037.71 930.909 1035.46 927.372 1033.69C923.835 1031.92 919.307 1031.04 913.788 1031.04C906.233 1031.04 899.936 1032.78 894.899 1036.26C889.916 1039.69 887.424 1044.06 887.424 1049.37C887.424 1054.08 889.139 1057.81 892.568 1060.54C895.998 1063.27 901.356 1065.55 908.644 1067.37L926.97 1071.87C938.009 1074.55 946.234 1078.65 951.646 1084.17C957.058 1089.63 959.764 1096.68 959.764 1105.31C959.764 1112.38 957.728 1118.7 953.655 1124.28C949.636 1129.85 944.01 1134.24 936.776 1137.46C929.542 1140.67 921.129 1142.28 911.538 1142.28C898.945 1142.28 888.523 1139.55 880.271 1134.08C872.019 1128.62 866.794 1120.63 864.597 1110.13L882.602 1105.63C884.316 1112.27 887.558 1117.26 892.327 1120.58C897.15 1123.9 903.446 1125.56 911.216 1125.56C920.058 1125.56 927.077 1123.69 932.275 1119.94C937.526 1116.13 940.152 1111.58 940.152 1106.27C940.152 1101.99 938.652 1098.4 935.651 1095.5C932.65 1092.56 928.042 1090.36 921.826 1088.91L901.249 1084.09C889.943 1081.41 881.637 1077.26 876.332 1071.63C871.081 1065.95 868.455 1058.85 868.455 1050.33C868.455 1043.36 870.411 1037.2 874.323 1031.84C878.288 1026.49 883.673 1022.28 890.479 1019.22C897.338 1016.17 905.107 1014.64 913.788 1014.64C926.005 1014.64 935.597 1017.32 942.563 1022.68C949.583 1028.04 954.566 1035.11 957.513 1043.9Z" fill="url(#paint2_linear_105_192)"/>
<path d="M1620.95 255.646C1612.74 241.427 1554.98 210.01 1540.75 201.792C1526.53 193.604 1470.43 159.292 1454 159.292C1437.57 159.292 1381.47 193.594 1367.25 201.792C1353.02 210.01 1295.26 241.427 1287.04 255.646C1278.83 269.865 1280.5 335.583 1280.5 352C1280.5 368.417 1278.83 434.135 1287.05 448.354C1295.26 462.573 1353.02 493.99 1367.25 502.208C1381.48 510.427 1437.57 544.708 1454 544.708C1470.43 544.708 1526.53 510.406 1540.75 502.208C1554.98 493.99 1612.74 462.573 1620.96 448.354C1629.17 434.135 1627.5 368.417 1627.5 352C1627.5 335.583 1629.17 269.865 1620.95 255.646Z" stroke="white" stroke-width="2" stroke-linecap="round" stroke-linejoin="round"/>
<path d="M1405.03 180.083L1513.05 242.427V386.792M1450.61 278.667L1325.41 350.927V477.844" stroke="white" stroke-width="2" stroke-linecap="round" stroke-linejoin="round"/>
<path d="M1280.68 304.552L1388.14 242.521L1450.59 278.625L1450.5 350.812M1388.14 386.896L1513.24 459.094L1627.45 393.188" stroke="white" stroke-width="2" stroke-linecap="round" stroke-linejoin="round"/>
<path d="M1501.69 524.615L1387.96 458.99L1388.04 386.906L1450.69 350.812L1513.24 386.906L1575.59 350.927V221.938" stroke="white" stroke-width="2" stroke-linecap="round" stroke-linejoin="round"/>
<path d="M0 0H568.519C568.519 0 852.779 488.931 568.519 566.877C284.26 644.822 0 566.877 0 566.877V0Z" fill="#DDDDDD"/>
</g>
<defs>
<linearGradient id="paint0_linear_105_192" x1="2069" y1="1143" x2="4.52331e-05" y2="607.668" gradientUnits="userSpaceOnUse">
<stop stop-color="#13271F"/>
<stop stop-color="#706653"/>
<stop offset="0.458921" stop-color="#162C1D"/>
<stop offset="0.739388" stop-color="#201C52"/>
</linearGradient>
<linearGradient id="paint1_linear_105_192" x1="217.5" y1="661.529" x2="217.5" y2="883.529" gradientUnits="userSpaceOnUse">
<stop offset="1" stop-color="white"/>
</linearGradient>
<linearGradient id="paint2_linear_105_192" x1="548" y1="920.71" x2="548" y2="1194.71" gradientUnits="userSpaceOnUse">
<stop offset="1" stop-color="white"/>
</linearGradient>
<clipPath id="clip0_105_192">
<rect width="1920" height="1440" fill="white"/>
</clipPath>
</defs>
</svg>
