<svg width="1920" height="1440" viewBox="0 0 1920 1440" fill="none" xmlns="http://www.w3.org/2000/svg">
<rect width="1920" height="1440" fill="url(#paint0_linear_105_244)"/>
<path d="M254.542 747.821H238.389C237.434 743.174 235.762 739.093 233.374 735.575C231.029 732.058 228.163 729.106 224.776 726.717C221.433 724.286 217.72 722.462 213.638 721.246C209.557 720.03 205.301 719.422 200.872 719.422C192.796 719.422 185.479 721.463 178.922 725.545C172.409 729.627 167.22 735.641 163.355 743.587C159.534 751.533 157.624 761.281 157.624 772.832C157.624 784.382 159.534 794.13 163.355 802.077C167.22 810.023 172.409 816.037 178.922 820.119C185.479 824.2 192.796 826.241 200.872 826.241C205.301 826.241 209.557 825.633 213.638 824.418C217.72 823.202 221.433 821.4 224.776 819.012C228.163 816.58 231.029 813.605 233.374 810.088C235.762 806.528 237.434 802.446 238.389 797.843H254.542C253.326 804.66 251.112 810.761 247.899 816.146C244.685 821.53 240.691 826.111 235.914 829.889C231.138 833.623 225.775 836.467 219.826 838.421C213.921 840.375 207.603 841.352 200.872 841.352C189.496 841.352 179.378 838.573 170.52 833.015C161.662 827.457 154.693 819.554 149.612 809.307C144.532 799.059 141.992 786.901 141.992 772.832C141.992 758.763 144.532 746.605 149.612 736.357C154.693 726.109 161.662 718.207 170.52 712.648C179.378 707.09 189.496 704.311 200.872 704.311C207.603 704.311 213.921 705.288 219.826 707.242C225.775 709.196 231.138 712.062 235.914 715.84C240.691 719.574 244.685 724.134 247.899 729.518C251.112 734.859 253.326 740.96 254.542 747.821ZM293.932 706.135V839.529H278.56V706.135H293.932ZM362.729 841.613C353.697 841.613 345.773 839.463 338.955 835.165C332.181 830.866 326.884 824.852 323.063 817.123C319.285 809.393 317.396 800.362 317.396 790.027C317.396 779.606 319.285 770.509 323.063 762.736C326.884 754.964 332.181 748.928 338.955 744.629C345.773 740.33 353.697 738.181 362.729 738.181C371.761 738.181 379.664 740.33 386.438 744.629C393.255 748.928 398.553 754.964 402.33 762.736C406.151 770.509 408.062 779.606 408.062 790.027C408.062 800.362 406.151 809.393 402.33 817.123C398.553 824.852 393.255 830.866 386.438 835.165C379.664 839.463 371.761 841.613 362.729 841.613ZM362.729 827.805C369.59 827.805 375.235 826.046 379.664 822.529C384.093 819.012 387.371 814.387 389.499 808.655C391.627 802.924 392.691 796.714 392.691 790.027C392.691 783.34 391.627 777.109 389.499 771.334C387.371 765.559 384.093 760.891 379.664 757.33C375.235 753.769 369.59 751.989 362.729 751.989C355.868 751.989 350.223 753.769 345.794 757.33C341.365 760.891 338.087 765.559 335.959 771.334C333.832 777.109 332.768 783.34 332.768 790.027C332.768 796.714 333.832 802.924 335.959 808.655C338.087 814.387 341.365 819.012 345.794 822.529C350.223 826.046 355.868 827.805 362.729 827.805ZM494.576 798.625V739.483H509.947V839.529H494.576V822.594H493.534C491.189 827.674 487.541 831.995 482.591 835.555C477.641 839.073 471.388 840.831 463.833 840.831C457.58 840.831 452.022 839.463 447.158 836.728C442.295 833.949 438.474 829.78 435.695 824.222C432.916 818.621 431.526 811.565 431.526 803.054V739.483H446.898V802.012C446.898 809.307 448.939 815.125 453.02 819.467C457.146 823.81 462.4 825.981 468.783 825.981C472.604 825.981 476.49 825.004 480.442 823.05C484.437 821.096 487.78 818.1 490.472 814.061C493.208 810.023 494.576 804.878 494.576 798.625ZM575.879 841.613C567.541 841.613 560.181 839.507 553.798 835.295C547.415 831.039 542.422 825.047 538.818 817.318C535.214 809.545 533.412 800.362 533.412 789.767C533.412 779.258 535.214 770.14 538.818 762.41C542.422 754.681 547.437 748.711 553.863 744.499C560.29 740.287 567.715 738.181 576.139 738.181C582.652 738.181 587.798 739.266 591.576 741.437C595.397 743.565 598.306 745.997 600.304 748.732C602.345 751.425 603.929 753.639 605.058 755.376H606.361V706.135H621.733V839.529H606.882V824.157H605.058C603.929 825.981 602.323 828.282 600.239 831.061C598.154 833.797 595.18 836.25 591.315 838.421C587.451 840.549 582.305 841.613 575.879 841.613ZM577.963 827.805C584.129 827.805 589.34 826.198 593.595 822.985C597.85 819.728 601.085 815.234 603.3 809.502C605.514 803.727 606.622 797.062 606.622 789.506C606.622 782.037 605.536 775.502 603.365 769.901C601.194 764.256 597.981 759.87 593.725 756.744C589.47 753.574 584.216 751.989 577.963 751.989C571.449 751.989 566.022 753.661 561.679 757.004C557.381 760.304 554.146 764.799 551.975 770.487C549.847 776.132 548.783 782.472 548.783 789.506C548.783 796.627 549.869 803.097 552.04 808.916C554.254 814.691 557.511 819.294 561.81 822.724C566.152 826.111 571.536 827.805 577.963 827.805Z" fill="url(#paint1_linear_105_244)"/>
<path d="M151.989 1139.71H131.091L191.535 975.097H212.112L272.556 1139.71H251.657L202.466 1001.14H201.18L151.989 1139.71ZM159.706 1075.41H243.941V1093.09H159.706V1075.41ZM315.276 1139.71L270.265 975.097H290.52L324.922 1109.17H326.529L361.574 975.097H384.079L419.124 1109.17H420.732L455.133 975.097H475.388L430.377 1139.71H409.8L373.47 1008.53H372.184L335.853 1139.71H315.276ZM590.248 1016.25C589.283 1008.11 585.372 1001.78 578.513 997.281C571.654 992.78 563.241 990.529 553.274 990.529C545.987 990.529 539.61 991.708 534.144 994.066C528.732 996.424 524.499 999.666 521.445 1003.79C518.444 1007.92 516.944 1012.61 516.944 1017.86C516.944 1022.25 517.988 1026.03 520.078 1029.19C522.222 1032.3 524.955 1034.9 528.277 1036.99C531.599 1039.02 535.082 1040.71 538.726 1042.05C542.37 1043.34 545.719 1044.38 548.773 1045.19L565.492 1049.69C569.778 1050.81 574.547 1052.37 579.799 1054.35C585.104 1056.33 590.167 1059.04 594.99 1062.47C599.866 1065.84 603.885 1070.18 607.047 1075.49C610.208 1080.79 611.789 1087.3 611.789 1095.02C611.789 1103.92 609.458 1111.95 604.796 1119.13C600.188 1126.31 593.436 1132.02 584.541 1136.25C575.7 1140.49 564.956 1142.6 552.31 1142.6C540.521 1142.6 530.313 1140.7 521.686 1136.9C513.112 1133.09 506.361 1127.79 501.431 1120.98C496.554 1114.18 493.795 1106.27 493.152 1097.27H513.728C514.264 1103.49 516.354 1108.63 519.998 1112.7C523.695 1116.72 528.357 1119.72 533.984 1121.71C539.664 1123.63 545.772 1124.6 552.31 1124.6C559.919 1124.6 566.751 1123.37 572.806 1120.9C578.861 1118.38 583.657 1114.9 587.194 1110.45C590.73 1105.95 592.498 1100.7 592.498 1094.7C592.498 1089.23 590.971 1084.79 587.917 1081.36C584.863 1077.93 580.844 1075.14 575.86 1073C570.877 1070.85 565.492 1068.98 559.704 1067.37L539.449 1061.58C526.589 1057.89 516.408 1052.61 508.906 1045.75C501.404 1038.89 497.653 1029.91 497.653 1018.82C497.653 1009.61 500.145 1001.57 505.128 994.709C510.165 987.797 516.917 982.438 525.383 978.634C533.903 974.775 543.415 972.846 553.917 972.846C564.527 972.846 573.958 974.749 582.21 978.553C590.462 982.304 597 987.448 601.822 993.986C606.698 1000.52 609.271 1007.94 609.538 1016.25H590.248ZM708.222 1139.71V975.097H765.772C777.24 975.097 786.697 977.08 794.146 981.045C801.594 984.957 807.14 990.235 810.784 996.879C814.428 1003.47 816.249 1010.78 816.249 1018.82C816.249 1025.9 814.99 1031.74 812.472 1036.34C810.007 1040.95 806.738 1044.6 802.666 1047.28C798.647 1049.96 794.28 1051.94 789.564 1053.22V1054.83C794.601 1055.15 799.665 1056.92 804.755 1060.14C809.846 1063.35 814.106 1067.96 817.535 1073.96C820.965 1079.96 822.68 1087.3 822.68 1095.98C822.68 1104.24 820.804 1111.66 817.053 1118.25C813.302 1124.84 807.381 1130.06 799.29 1133.92C791.198 1137.78 780.669 1139.71 767.701 1139.71H708.222ZM728.156 1122.03H767.701C780.723 1122.03 789.966 1119.51 795.432 1114.47C800.951 1109.38 803.711 1103.22 803.711 1095.98C803.711 1090.41 802.291 1085.27 799.451 1080.55C796.611 1075.78 792.565 1071.98 787.314 1069.14C782.062 1066.25 775.846 1064.8 768.666 1064.8H728.156V1122.03ZM728.156 1047.44H765.129C771.131 1047.44 776.543 1046.26 781.366 1043.9C786.242 1041.54 790.1 1038.22 792.94 1033.93C795.834 1029.65 797.28 1024.61 797.28 1018.82C797.28 1011.59 794.762 1005.45 789.725 1000.42C784.688 995.325 776.704 992.78 765.772 992.78H728.156V1047.44ZM889.192 1142.6C881.369 1142.6 874.269 1141.13 867.892 1138.18C861.515 1135.18 856.452 1130.87 852.701 1125.24C848.95 1119.56 847.074 1112.7 847.074 1104.67C847.074 1097.59 848.467 1091.86 851.254 1087.46C854.04 1083.02 857.764 1079.53 862.426 1077.02C867.088 1074.5 872.232 1072.62 877.859 1071.39C883.539 1070.1 889.246 1069.09 894.979 1068.33C902.481 1067.37 908.563 1066.65 913.225 1066.16C917.94 1065.63 921.37 1064.74 923.513 1063.51C925.71 1062.28 926.809 1060.14 926.809 1057.08V1056.44C926.809 1048.51 924.639 1042.35 920.298 1037.95C916.011 1033.56 909.501 1031.36 900.766 1031.36C891.711 1031.36 884.611 1033.34 879.466 1037.31C874.322 1041.27 870.705 1045.51 868.615 1050.01L850.611 1043.58C853.826 1036.08 858.113 1030.24 863.471 1026.06C868.883 1021.82 874.778 1018.88 881.154 1017.21C887.585 1015.5 893.908 1014.64 900.123 1014.64C904.089 1014.64 908.643 1015.13 913.788 1016.09C918.985 1017 923.996 1018.9 928.818 1021.8C933.694 1024.69 937.74 1029.06 940.955 1034.9C944.17 1040.74 945.778 1048.56 945.778 1058.37V1139.71H926.809V1122.99H925.844C924.558 1125.67 922.415 1128.54 919.414 1131.59C916.413 1134.65 912.421 1137.25 907.438 1139.39C902.454 1141.53 896.372 1142.6 889.192 1142.6ZM892.086 1125.56C899.588 1125.56 905.911 1124.09 911.055 1121.14C916.253 1118.2 920.164 1114.39 922.79 1109.73C925.469 1105.07 926.809 1100.16 926.809 1095.02V1077.66C926.005 1078.62 924.237 1079.51 921.504 1080.31C918.825 1081.06 915.717 1081.73 912.18 1082.32C908.697 1082.86 905.294 1083.34 901.972 1083.77C898.703 1084.14 896.051 1084.46 894.015 1084.73C889.085 1085.37 884.477 1086.42 880.19 1087.87C875.957 1089.26 872.527 1091.38 869.901 1094.22C867.329 1097 866.043 1100.81 866.043 1105.63C866.043 1112.22 868.481 1117.2 873.358 1120.58C878.288 1123.9 884.53 1125.56 892.086 1125.56ZM1067.85 1043.9L1050.81 1048.72C1049.74 1045.88 1048.16 1043.12 1046.07 1040.44C1044.03 1037.71 1041.25 1035.46 1037.71 1033.69C1034.17 1031.92 1029.65 1031.04 1024.13 1031.04C1016.57 1031.04 1010.27 1032.78 1005.24 1036.26C1000.25 1039.69 997.762 1044.06 997.762 1049.37C997.762 1054.08 999.477 1057.81 1002.91 1060.54C1006.34 1063.27 1011.69 1065.55 1018.98 1067.37L1037.31 1071.87C1048.35 1074.55 1056.57 1078.65 1061.98 1084.17C1067.4 1089.63 1070.1 1096.68 1070.1 1105.31C1070.1 1112.38 1068.07 1118.7 1063.99 1124.28C1059.97 1129.85 1054.35 1134.24 1047.11 1137.46C1039.88 1140.67 1031.47 1142.28 1021.88 1142.28C1009.28 1142.28 998.861 1139.55 990.608 1134.08C982.356 1128.62 977.132 1120.63 974.935 1110.13L992.939 1105.63C994.654 1112.27 997.896 1117.26 1002.67 1120.58C1007.49 1123.9 1013.78 1125.56 1021.55 1125.56C1030.4 1125.56 1037.41 1123.69 1042.61 1119.94C1047.86 1116.13 1050.49 1111.58 1050.49 1106.27C1050.49 1101.99 1048.99 1098.4 1045.99 1095.5C1042.99 1092.56 1038.38 1090.36 1032.16 1088.91L1011.59 1084.09C1000.28 1081.41 991.975 1077.26 986.67 1071.63C981.419 1065.95 978.793 1058.85 978.793 1050.33C978.793 1043.36 980.749 1037.2 984.661 1031.84C988.626 1026.49 994.011 1022.28 1000.82 1019.22C1007.68 1016.17 1015.45 1014.64 1024.13 1014.64C1036.34 1014.64 1045.93 1017.32 1052.9 1022.68C1059.92 1028.04 1064.9 1035.11 1067.85 1043.9ZM1098.66 1139.71V1016.25H1117.63V1139.71H1098.66ZM1108.3 995.674C1104.6 995.674 1101.42 994.414 1098.74 991.896C1096.11 989.377 1094.8 986.35 1094.8 982.813C1094.8 979.277 1096.11 976.249 1098.74 973.731C1101.42 971.212 1104.6 969.953 1108.3 969.953C1112 969.953 1115.16 971.212 1117.79 973.731C1120.47 976.249 1121.8 979.277 1121.8 982.813C1121.8 986.35 1120.47 989.377 1117.79 991.896C1115.16 994.414 1112 995.674 1108.3 995.674ZM1202.52 1142.28C1190.95 1142.28 1180.98 1139.55 1172.62 1134.08C1164.26 1128.62 1157.83 1121.09 1153.33 1111.5C1148.83 1101.91 1146.58 1090.95 1146.58 1078.62C1146.58 1066.08 1148.89 1055.02 1153.49 1045.43C1158.16 1035.78 1164.64 1028.25 1172.94 1022.84C1181.3 1017.38 1191.06 1014.64 1202.2 1014.64C1210.88 1014.64 1218.71 1016.25 1225.67 1019.47C1232.64 1022.68 1238.35 1027.18 1242.79 1032.97C1247.24 1038.76 1250 1045.51 1251.07 1053.22H1232.1C1230.66 1047.6 1227.44 1042.61 1222.46 1038.27C1217.53 1033.88 1210.88 1031.68 1202.52 1031.68C1195.13 1031.68 1188.65 1033.61 1183.07 1037.47C1177.55 1041.27 1173.24 1046.66 1170.13 1053.63C1167.08 1060.54 1165.55 1068.66 1165.55 1077.98C1165.55 1087.52 1167.05 1095.82 1170.05 1102.9C1173.11 1109.97 1177.39 1115.46 1182.91 1119.37C1188.48 1123.29 1195.02 1125.24 1202.52 1125.24C1207.45 1125.24 1211.93 1124.38 1215.95 1122.67C1219.97 1120.96 1223.37 1118.49 1226.15 1115.28C1228.94 1112.06 1230.92 1108.2 1232.1 1103.7H1251.07C1250 1110.99 1247.35 1117.55 1243.11 1123.39C1238.93 1129.18 1233.39 1133.79 1226.48 1137.22C1219.62 1140.59 1211.63 1142.28 1202.52 1142.28ZM1366.25 1043.9L1349.21 1048.72C1348.14 1045.88 1346.56 1043.12 1344.47 1040.44C1342.43 1037.71 1339.65 1035.46 1336.11 1033.69C1332.57 1031.92 1328.05 1031.04 1322.53 1031.04C1314.97 1031.04 1308.68 1032.78 1303.64 1036.26C1298.66 1039.69 1296.16 1044.06 1296.16 1049.37C1296.16 1054.08 1297.88 1057.81 1301.31 1060.54C1304.74 1063.27 1310.1 1065.55 1317.38 1067.37L1335.71 1071.87C1346.75 1074.55 1354.97 1078.65 1360.39 1084.17C1365.8 1089.63 1368.5 1096.68 1368.5 1105.31C1368.5 1112.38 1366.47 1118.7 1362.39 1124.28C1358.38 1129.85 1352.75 1134.24 1345.52 1137.46C1338.28 1140.67 1329.87 1142.28 1320.28 1142.28C1307.68 1142.28 1297.26 1139.55 1289.01 1134.08C1280.76 1128.62 1275.53 1120.63 1273.34 1110.13L1291.34 1105.63C1293.06 1112.27 1296.3 1117.26 1301.07 1120.58C1305.89 1123.9 1312.19 1125.56 1319.96 1125.56C1328.8 1125.56 1335.82 1123.69 1341.01 1119.94C1346.27 1116.13 1348.89 1111.58 1348.89 1106.27C1348.89 1101.99 1347.39 1098.4 1344.39 1095.5C1341.39 1092.56 1336.78 1090.36 1330.57 1088.91L1309.99 1084.09C1298.68 1081.41 1290.38 1077.26 1285.07 1071.63C1279.82 1065.95 1277.19 1058.85 1277.19 1050.33C1277.19 1043.36 1279.15 1037.2 1283.06 1031.84C1287.03 1026.49 1292.41 1022.28 1299.22 1019.22C1306.08 1016.17 1313.85 1014.64 1322.53 1014.64C1334.74 1014.64 1344.34 1017.32 1351.3 1022.68C1358.32 1028.04 1363.31 1035.11 1366.25 1043.9Z" fill="url(#paint2_linear_105_244)"/>
<path d="M1306.87 242.781C1285.62 242.781 1264.06 251.062 1260.47 255.594C1259.53 257.469 1257.34 272.625 1262.5 272.625C1264.22 272.625 1265 272.937 1270 270.594C1288.75 263.25 1300.62 263.406 1302.34 263.406C1323.44 261.375 1335.62 275.75 1333.75 294.344V305.281C1315.94 301.062 1305.78 300.906 1300.78 300.906C1274.84 299.344 1250.87 313.031 1250.87 343.094C1250.87 376.062 1280.3 383.094 1291.7 382.625C1308.73 382.781 1324.98 375.125 1335.77 361.844C1344.36 381.062 1349.83 379.813 1349.98 379.813C1351.55 379.813 1352.8 379.188 1354.05 378.406L1362.95 372.156C1364.52 371.219 1365.77 369.656 1365.92 367.781C1365.77 363.25 1357.64 356.219 1358.27 340.437V291.687C1358.75 285.043 1357.9 278.368 1355.75 272.06C1353.61 265.752 1350.22 259.94 1345.78 254.969C1334.93 245.924 1320.94 241.542 1306.87 242.781ZM1609.58 242.781C1578.33 242.781 1560.36 262.312 1560.83 282.156C1560.83 309.344 1588.33 317.937 1591.45 318.875C1617.86 327.156 1621.45 327.469 1628.8 333.719C1635.05 340.125 1634.27 352.625 1625.05 358.094C1622.39 359.656 1610.98 366.531 1585.2 361.219C1576.61 359.5 1572.08 357.469 1565.05 354.5C1563.17 353.875 1558.8 352.781 1558.8 358.562V366.219C1558.8 369.812 1560.98 373.094 1564.27 374.656C1580.67 382.938 1600.36 383.25 1604.58 383.25C1605.2 383.25 1641.14 383.266 1653.17 359.031C1655.64 354.031 1662.08 335.75 1650.05 320.125C1640.05 308.406 1631.45 307.156 1605.83 299.344C1603.64 298.719 1584.73 293.875 1584.89 280.594C1583.95 263.562 1607.08 262.625 1611.92 262.937C1631.45 262.625 1641.14 269.969 1646.45 270.437C1648.8 270.437 1649.89 269.031 1649.89 265.906V258.719C1649.97 256.993 1649.48 255.29 1648.48 253.875C1642.23 245.75 1618.33 242.781 1609.58 242.781ZM1372.39 246.687C1370.67 247 1369.42 248.719 1369.73 250.437C1370.05 252.469 1370.36 254.5 1371.14 256.531L1406.14 372C1406.92 375.75 1409.42 379.812 1414.89 379.187H1427.7C1435.52 379.969 1436.61 372.469 1436.77 371.687L1459.73 275.437L1483.02 371.844C1483.17 372.625 1484.27 380.125 1491.92 379.344H1504.89C1510.52 379.969 1513.17 375.906 1513.95 372.156C1553.33 245.438 1550.67 254.031 1550.98 252.781C1551.61 246.219 1547.86 246.687 1547.23 246.844H1533.33C1526.3 246.062 1524.89 252.469 1524.58 254.031L1498.64 354.187L1475.2 254.031C1474.11 246.375 1467.86 246.687 1466.3 246.844H1454.27C1447.39 246.219 1445.67 251.687 1445.2 254.031L1421.92 352.781L1396.92 254.031C1396.3 250.906 1394.27 246.062 1388.17 246.687H1372.39ZM1305.92 319.031C1317.17 319.187 1326.89 320.906 1333.61 322.469C1333.61 330.281 1333.89 334.656 1332.17 341.687C1329.98 349.187 1320.31 362.781 1297.5 363.094C1284.37 363.719 1275.78 353.406 1276.56 341.687C1275.78 322.937 1295.16 318.25 1305.94 319.031H1305.92ZM1657.77 414.531C1643.19 414.734 1625.97 418 1612.91 427.172C1608.87 429.969 1609.58 433.844 1614.06 433.328C1628.75 431.562 1661.44 427.594 1667.28 435.062C1673.12 442.531 1660.81 473.344 1655.36 487.125C1653.67 491.234 1657.23 492.937 1661 489.812C1685.44 469.344 1691.78 426.438 1686.78 420.281C1684.28 417.188 1672.34 414.328 1657.77 414.531ZM1223.02 430.156C1219.61 430.625 1218.14 434.938 1221.7 438.359C1282.91 495.766 1363.78 523.875 1453.58 523.875C1517.62 523.875 1591.97 502.984 1643.3 463.609C1651.78 457.047 1644.55 447.25 1635.86 451.109C1578.31 476.516 1515.8 488.75 1458.91 488.75C1374.59 488.75 1292.97 471.141 1226.95 431.156C1225.79 430.394 1224.4 430.042 1223.02 430.156Z" fill="white" fill-opacity="0.7"/>
<path d="M0 0H568.519C568.519 0 852.779 488.931 568.519 566.877C284.26 644.822 0 566.877 0 566.877V0Z" fill="#5E5153"/>
<defs>
<linearGradient id="paint0_linear_105_244" x1="2069" y1="1143" x2="4.52331e-05" y2="607.668" gradientUnits="userSpaceOnUse">
<stop stop-color="#3D0D3A"/>
<stop offset="0.0001" stop-color="#B70E0E"/>
<stop offset="0.474297" stop-color="#5B1A5A"/>
<stop offset="0.836538" stop-color="#DEB569"/>
</linearGradient>
<linearGradient id="paint1_linear_105_244" x1="384.5" y1="661.529" x2="384.5" y2="883.529" gradientUnits="userSpaceOnUse">
<stop offset="1" stop-color="white"/>
</linearGradient>
<linearGradient id="paint2_linear_105_244" x1="752.5" y1="920.71" x2="752.5" y2="1194.71" gradientUnits="userSpaceOnUse">
<stop offset="1" stop-color="white"/>
</linearGradient>
</defs>
</svg>
