<svg width="1920" height="1440" viewBox="0 0 1920 1440" fill="none" xmlns="http://www.w3.org/2000/svg">
<g clip-path="url(#clip0_105_40)">
<rect width="1920" height="1440" fill="url(#paint0_linear_105_40)"/>
<path d="M188.319 839.529H147.154V706.135H190.142C203.082 706.135 214.155 708.806 223.361 714.147C232.566 719.444 239.622 727.065 244.529 737.008C249.436 746.909 251.889 758.763 251.889 772.571C251.889 786.466 249.414 798.429 244.464 808.46C239.514 818.447 232.306 826.133 222.839 831.517C213.373 836.858 201.866 839.529 188.319 839.529ZM163.307 825.199H187.277C198.306 825.199 207.446 823.071 214.698 818.816C221.949 814.561 227.355 808.503 230.916 800.644C234.477 792.784 236.257 783.427 236.257 772.571C236.257 761.803 234.498 752.532 230.981 744.759C227.464 736.943 222.21 730.951 215.219 726.782C208.228 722.57 199.522 720.464 189.1 720.464H163.307V825.199ZM318.846 841.613C309.207 841.613 300.891 839.485 293.9 835.23C286.953 830.931 281.59 824.939 277.812 817.253C274.078 809.524 272.211 800.535 272.211 790.288C272.211 780.04 274.078 771.008 277.812 763.192C281.59 755.333 286.844 749.21 293.574 744.824C300.348 740.395 308.251 738.181 317.283 738.181C322.494 738.181 327.639 739.049 332.72 740.786C337.8 742.523 342.425 745.345 346.593 749.253C350.762 753.118 354.084 758.242 356.559 764.625C359.034 771.008 360.271 778.868 360.271 788.203V794.717H283.153V781.429H344.639C344.639 775.785 343.51 770.748 341.252 766.318C339.038 761.889 335.868 758.394 331.743 755.832C327.661 753.27 322.841 751.989 317.283 751.989C311.161 751.989 305.863 753.509 301.391 756.548C296.961 759.545 293.553 763.453 291.165 768.272C288.776 773.092 287.582 778.26 287.582 783.774V792.632C287.582 800.188 288.885 806.593 291.49 811.847C294.139 817.057 297.808 821.031 302.498 823.766C307.187 826.458 312.637 827.805 318.846 827.805C322.885 827.805 326.532 827.24 329.789 826.111C333.089 824.939 335.933 823.202 338.321 820.9C340.709 818.556 342.555 815.646 343.858 812.172L358.708 816.341C357.145 821.378 354.518 825.807 350.827 829.628C347.136 833.406 342.577 836.359 337.149 838.486C331.721 840.571 325.62 841.613 318.846 841.613ZM454.519 761.889L440.711 765.797C439.843 763.496 438.562 761.26 436.868 759.089C435.218 756.874 432.96 755.05 430.094 753.617C427.228 752.184 423.559 751.468 419.087 751.468C412.964 751.468 407.862 752.879 403.78 755.702C399.742 758.481 397.723 762.02 397.723 766.318C397.723 770.14 399.112 773.157 401.892 775.372C404.671 777.587 409.013 779.432 414.918 780.908L429.769 784.556C438.714 786.727 445.379 790.049 449.765 794.521C454.15 798.95 456.343 804.66 456.343 811.651C456.343 817.383 454.693 822.507 451.393 827.023C448.136 831.539 443.577 835.099 437.715 837.705C431.853 840.31 425.036 841.613 417.263 841.613C407.059 841.613 398.613 839.398 391.926 834.969C385.239 830.54 381.005 824.07 379.225 815.559L393.815 811.912C395.204 817.296 397.832 821.335 401.696 824.027C405.604 826.719 410.706 828.065 417.003 828.065C424.167 828.065 429.856 826.545 434.067 823.506C438.323 820.423 440.451 816.732 440.451 812.433C440.451 808.959 439.235 806.05 436.803 803.705C434.371 801.317 430.637 799.537 425.6 798.364L408.926 794.456C399.764 792.285 393.033 788.92 388.735 784.36C384.479 779.758 382.351 774.004 382.351 767.1C382.351 761.455 383.936 756.462 387.106 752.119C390.319 747.777 394.683 744.368 400.198 741.893C405.756 739.418 412.052 738.181 419.087 738.181C428.987 738.181 436.76 740.352 442.405 744.694C448.093 749.036 452.131 754.768 454.519 761.889ZM479.482 839.529V739.483H494.853V839.529H479.482ZM487.298 722.809C484.302 722.809 481.718 721.789 479.547 719.748C477.419 717.707 476.355 715.254 476.355 712.388C476.355 709.522 477.419 707.069 479.547 705.028C481.718 702.987 484.302 701.967 487.298 701.967C490.294 701.967 492.856 702.987 494.984 705.028C497.155 707.069 498.24 709.522 498.24 712.388C498.24 715.254 497.155 717.707 494.984 719.748C492.856 721.789 490.294 722.809 487.298 722.809ZM563.39 879.13C555.965 879.13 549.582 878.174 544.241 876.264C538.9 874.397 534.449 871.922 530.889 868.839C527.371 865.799 524.571 862.542 522.486 859.069L534.731 850.471C536.121 852.295 537.88 854.379 540.007 856.724C542.135 859.112 545.044 861.175 548.735 862.912C552.469 864.692 557.354 865.582 563.39 865.582C571.467 865.582 578.132 863.628 583.386 859.72C588.64 855.812 591.267 849.689 591.267 841.352V821.031H589.965C588.836 822.854 587.229 825.112 585.145 827.805C583.104 830.453 580.151 832.82 576.287 834.904C572.465 836.945 567.298 837.965 560.785 837.965C552.708 837.965 545.457 836.055 539.03 832.234C532.647 828.412 527.588 822.854 523.854 815.559C520.163 808.264 518.318 799.406 518.318 788.985C518.318 778.737 520.12 769.814 523.724 762.215C527.328 754.573 532.343 748.667 538.77 744.499C545.196 740.287 552.621 738.181 561.045 738.181C567.559 738.181 572.726 739.266 576.547 741.437C580.412 743.565 583.364 745.997 585.405 748.732C587.49 751.425 589.096 753.639 590.225 755.376H591.788V739.483H606.639V842.394C606.639 850.992 604.685 857.983 600.777 863.367C596.912 868.795 591.702 872.768 585.145 875.287C578.631 877.849 571.38 879.13 563.39 879.13ZM562.869 824.157C569.035 824.157 574.246 822.746 578.501 819.923C582.757 817.101 585.991 813.041 588.206 807.743C590.421 802.446 591.528 796.106 591.528 788.724C591.528 781.516 590.442 775.155 588.271 769.64C586.1 764.126 582.887 759.805 578.631 756.679C574.376 753.552 569.122 751.989 562.869 751.989C556.356 751.989 550.928 753.639 546.586 756.939C542.287 760.239 539.052 764.668 536.881 770.226C534.753 775.785 533.689 781.951 533.689 788.724C533.689 795.672 534.775 801.816 536.946 807.157C539.16 812.455 542.417 816.623 546.716 819.663C551.058 822.659 556.443 824.157 562.869 824.157ZM650.148 779.345V839.529H634.776V739.483H649.627V755.116H650.93C653.274 750.035 656.835 745.953 661.611 742.87C666.388 739.744 672.554 738.181 680.109 738.181C686.883 738.181 692.81 739.57 697.891 742.349C702.971 745.085 706.923 749.253 709.745 754.855C712.568 760.413 713.979 767.447 713.979 775.958V839.529H698.607V777C698.607 769.141 696.566 763.018 692.485 758.633C688.403 754.204 682.802 751.989 675.68 751.989C670.774 751.989 666.388 753.053 662.523 755.181C658.702 757.308 655.684 760.413 653.47 764.495C651.255 768.576 650.148 773.527 650.148 779.345Z" fill="url(#paint1_linear_105_40)"/>
<path d="M277.507 1026.54H257.573C256.394 1020.81 254.331 1015.77 251.384 1011.43C248.49 1007.09 244.954 1003.44 240.774 1000.5C236.648 997.496 232.067 995.245 227.03 993.745C221.993 992.244 216.741 991.494 211.276 991.494C201.309 991.494 192.28 994.013 184.188 999.049C176.151 1004.09 169.747 1011.51 164.978 1021.31C160.263 1031.12 157.905 1043.15 157.905 1057.4C157.905 1071.66 160.263 1083.69 164.978 1093.49C169.747 1103.3 176.151 1110.72 184.188 1115.76C192.28 1120.79 201.309 1123.31 211.276 1123.31C216.741 1123.31 221.993 1122.56 227.03 1121.06C232.067 1119.56 236.648 1117.34 240.774 1114.39C244.954 1111.39 248.49 1107.72 251.384 1103.38C254.331 1098.99 256.394 1093.95 257.573 1088.27H277.507C276.006 1096.68 273.274 1104.21 269.308 1110.85C265.343 1117.5 260.413 1123.15 254.519 1127.81C248.624 1132.42 242.007 1135.93 234.666 1138.34C227.378 1140.76 219.581 1141.96 211.276 1141.96C197.236 1141.96 184.751 1138.53 173.82 1131.67C162.888 1124.81 154.288 1115.06 148.019 1102.42C141.749 1089.77 138.614 1074.77 138.614 1057.4C138.614 1040.04 141.749 1025.04 148.019 1012.39C154.288 999.746 162.888 989.994 173.82 983.135C184.751 976.276 197.236 972.846 211.276 972.846C219.581 972.846 227.378 974.052 234.666 976.463C242.007 978.875 248.624 982.411 254.519 987.073C260.413 991.682 265.343 997.308 269.308 1003.95C273.274 1010.54 276.006 1018.07 277.507 1026.54ZM343.477 1142.6C335.653 1142.6 328.553 1141.13 322.177 1138.18C315.8 1135.18 310.736 1130.87 306.985 1125.24C303.234 1119.56 301.359 1112.7 301.359 1104.67C301.359 1097.59 302.752 1091.86 305.538 1087.46C308.325 1083.02 312.049 1079.53 316.711 1077.02C321.373 1074.5 326.517 1072.62 332.143 1071.39C337.823 1070.1 343.53 1069.09 349.264 1068.33C356.766 1067.37 362.848 1066.65 367.51 1066.16C372.225 1065.63 375.654 1064.74 377.798 1063.51C379.995 1062.28 381.093 1060.14 381.093 1057.08V1056.44C381.093 1048.51 378.923 1042.35 374.583 1037.95C370.296 1033.56 363.785 1031.36 355.051 1031.36C345.995 1031.36 338.895 1033.34 333.751 1037.31C328.607 1041.27 324.99 1045.51 322.9 1050.01L304.895 1043.58C308.111 1036.08 312.397 1030.24 317.756 1026.06C323.168 1021.82 329.062 1018.88 335.439 1017.21C341.869 1015.5 348.192 1014.64 354.408 1014.64C358.373 1014.64 362.928 1015.13 368.072 1016.09C373.27 1017 378.28 1018.9 383.103 1021.8C387.979 1024.69 392.025 1029.06 395.24 1034.9C398.455 1040.74 400.062 1048.56 400.062 1058.37V1139.71H381.093V1122.99H380.129C378.843 1125.67 376.699 1128.54 373.699 1131.59C370.698 1134.65 366.706 1137.25 361.722 1139.39C356.739 1141.53 350.657 1142.6 343.477 1142.6ZM346.37 1125.56C353.872 1125.56 360.195 1124.09 365.339 1121.14C370.537 1118.2 374.449 1114.39 377.074 1109.73C379.754 1105.07 381.093 1100.16 381.093 1095.02V1077.66C380.29 1078.62 378.521 1079.51 375.788 1080.31C373.109 1081.06 370.001 1081.73 366.465 1082.32C362.982 1082.86 359.579 1083.34 356.257 1083.77C352.988 1084.14 350.336 1084.46 348.299 1084.73C343.369 1085.37 338.761 1086.42 334.474 1087.87C330.241 1089.26 326.812 1091.38 324.186 1094.22C321.614 1097 320.328 1100.81 320.328 1105.63C320.328 1112.22 322.766 1117.2 327.642 1120.58C332.572 1123.9 338.815 1125.56 346.37 1125.56ZM453.654 1065.44V1139.71H434.685V1016.25H453.011V1035.54H454.619C457.512 1029.27 461.906 1024.23 467.801 1020.43C473.695 1016.57 481.304 1014.64 490.628 1014.64C498.987 1014.64 506.301 1016.36 512.571 1019.79C518.84 1023.16 523.717 1028.31 527.2 1035.22C530.683 1042.08 532.424 1050.76 532.424 1061.26V1139.71H513.455V1062.55C513.455 1052.85 510.937 1045.29 505.9 1039.88C500.863 1034.42 493.95 1031.68 485.162 1031.68C479.107 1031.68 473.695 1033 468.926 1035.62C464.21 1038.25 460.486 1042.08 457.753 1047.12C455.021 1052.15 453.654 1058.26 453.654 1065.44ZM663.62 1016.25L617.966 1139.71H598.675L553.021 1016.25H573.598L607.678 1114.63H608.964L643.044 1016.25H663.62ZM721.231 1142.6C713.408 1142.6 706.308 1141.13 699.931 1138.18C693.554 1135.18 688.491 1130.87 684.74 1125.24C680.989 1119.56 679.113 1112.7 679.113 1104.67C679.113 1097.59 680.506 1091.86 683.293 1087.46C686.079 1083.02 689.803 1079.53 694.465 1077.02C699.127 1074.5 704.271 1072.62 709.898 1071.39C715.578 1070.1 721.285 1069.09 727.018 1068.33C734.52 1067.37 740.602 1066.65 745.264 1066.16C749.979 1065.63 753.409 1064.74 755.552 1063.51C757.749 1062.28 758.848 1060.14 758.848 1057.08V1056.44C758.848 1048.51 756.678 1042.35 752.337 1037.95C748.05 1033.56 741.54 1031.36 732.805 1031.36C723.75 1031.36 716.65 1033.34 711.505 1037.31C706.361 1041.27 702.744 1045.51 700.654 1050.01L682.65 1043.58C685.865 1036.08 690.152 1030.24 695.51 1026.06C700.922 1021.82 706.817 1018.88 713.193 1017.21C719.623 1015.5 725.947 1014.64 732.162 1014.64C736.128 1014.64 740.682 1015.13 745.827 1016.09C751.024 1017 756.034 1018.9 760.857 1021.8C765.733 1024.69 769.779 1029.06 772.994 1034.9C776.209 1040.74 777.817 1048.56 777.817 1058.37V1139.71H758.848V1122.99H757.883C756.597 1125.67 754.454 1128.54 751.453 1131.59C748.452 1134.65 744.46 1137.25 739.477 1139.39C734.493 1141.53 728.411 1142.6 721.231 1142.6ZM724.125 1125.56C731.627 1125.56 737.95 1124.09 743.094 1121.14C748.291 1118.2 752.203 1114.39 754.829 1109.73C757.508 1105.07 758.848 1100.16 758.848 1095.02V1077.66C758.044 1078.62 756.276 1079.51 753.543 1080.31C750.864 1081.06 747.756 1081.73 744.219 1082.32C740.736 1082.86 737.333 1083.34 734.011 1083.77C730.742 1084.14 728.09 1084.46 726.054 1084.73C721.124 1085.37 716.516 1086.42 712.229 1087.87C707.996 1089.26 704.566 1091.38 701.94 1094.22C699.368 1097 698.082 1100.81 698.082 1105.63C698.082 1112.22 700.52 1117.2 705.397 1120.58C710.326 1123.9 716.569 1125.56 724.125 1125.56ZM878.671 1139.71V975.097H936.221C947.688 975.097 957.146 977.08 964.594 981.045C972.042 984.957 977.589 990.235 981.232 996.879C984.876 1003.47 986.698 1010.78 986.698 1018.82C986.698 1025.9 985.439 1031.74 982.92 1036.34C980.455 1040.95 977.187 1044.6 973.114 1047.28C969.095 1049.96 964.728 1051.94 960.013 1053.22V1054.83C965.05 1055.15 970.113 1056.92 975.204 1060.14C980.295 1063.35 984.555 1067.96 987.984 1073.96C991.413 1079.96 993.128 1087.3 993.128 1095.98C993.128 1104.24 991.253 1111.66 987.502 1118.25C983.751 1124.84 977.83 1130.06 969.738 1133.92C961.647 1137.78 951.118 1139.71 938.15 1139.71H878.671ZM898.604 1122.03H938.15C951.171 1122.03 960.415 1119.51 965.88 1114.47C971.399 1109.38 974.159 1103.22 974.159 1095.98C974.159 1090.41 972.739 1085.27 969.899 1080.55C967.059 1075.78 963.013 1071.98 957.762 1069.14C952.511 1066.25 946.295 1064.8 939.114 1064.8H898.604V1122.03ZM898.604 1047.44H935.578C941.579 1047.44 946.991 1046.26 951.814 1043.9C956.69 1041.54 960.548 1038.22 963.389 1033.93C966.282 1029.65 967.729 1024.61 967.729 1018.82C967.729 1011.59 965.21 1005.45 960.173 1000.42C955.136 995.325 947.152 992.78 936.221 992.78H898.604V1047.44ZM1059.64 1142.6C1051.82 1142.6 1044.72 1141.13 1038.34 1138.18C1031.96 1135.18 1026.9 1130.87 1023.15 1125.24C1019.4 1119.56 1017.52 1112.7 1017.52 1104.67C1017.52 1097.59 1018.92 1091.86 1021.7 1087.46C1024.49 1083.02 1028.21 1079.53 1032.87 1077.02C1037.54 1074.5 1042.68 1072.62 1048.31 1071.39C1053.99 1070.1 1059.69 1069.09 1065.43 1068.33C1072.93 1067.37 1079.01 1066.65 1083.67 1066.16C1088.39 1065.63 1091.82 1064.74 1093.96 1063.51C1096.16 1062.28 1097.26 1060.14 1097.26 1057.08V1056.44C1097.26 1048.51 1095.09 1042.35 1090.75 1037.95C1086.46 1033.56 1079.95 1031.36 1071.21 1031.36C1062.16 1031.36 1055.06 1033.34 1049.91 1037.31C1044.77 1041.27 1041.15 1045.51 1039.06 1050.01L1021.06 1043.58C1024.27 1036.08 1028.56 1030.24 1033.92 1026.06C1039.33 1021.82 1045.23 1018.88 1051.6 1017.21C1058.03 1015.5 1064.36 1014.64 1070.57 1014.64C1074.54 1014.64 1079.09 1015.13 1084.24 1016.09C1089.43 1017 1094.44 1018.9 1099.27 1021.8C1104.14 1024.69 1108.19 1029.06 1111.4 1034.9C1114.62 1040.74 1116.23 1048.56 1116.23 1058.37V1139.71H1097.26V1122.99H1096.29C1095.01 1125.67 1092.86 1128.54 1089.86 1131.59C1086.86 1134.65 1082.87 1137.25 1077.89 1139.39C1072.9 1141.53 1066.82 1142.6 1059.64 1142.6ZM1062.53 1125.56C1070.04 1125.56 1076.36 1124.09 1081.5 1121.14C1086.7 1118.2 1090.61 1114.39 1093.24 1109.73C1095.92 1105.07 1097.26 1100.16 1097.26 1095.02V1077.66C1096.45 1078.62 1094.69 1079.51 1091.95 1080.31C1089.27 1081.06 1086.17 1081.73 1082.63 1082.32C1079.15 1082.86 1075.74 1083.34 1072.42 1083.77C1069.15 1084.14 1066.5 1084.46 1064.46 1084.73C1059.53 1085.37 1054.93 1086.42 1050.64 1087.87C1046.41 1089.26 1042.98 1091.38 1040.35 1094.22C1037.78 1097 1036.49 1100.81 1036.49 1105.63C1036.49 1112.22 1038.93 1117.2 1043.81 1120.58C1048.74 1123.9 1054.98 1125.56 1062.53 1125.56ZM1238.3 1043.9L1221.26 1048.72C1220.19 1045.88 1218.61 1043.12 1216.52 1040.44C1214.48 1037.71 1211.69 1035.46 1208.16 1033.69C1204.62 1031.92 1200.09 1031.04 1194.57 1031.04C1187.02 1031.04 1180.72 1032.78 1175.69 1036.26C1170.7 1039.69 1168.21 1044.06 1168.21 1049.37C1168.21 1054.08 1169.93 1057.81 1173.35 1060.54C1176.78 1063.27 1182.14 1065.55 1189.43 1067.37L1207.76 1071.87C1218.79 1074.55 1227.02 1078.65 1232.43 1084.17C1237.84 1089.63 1240.55 1096.68 1240.55 1105.31C1240.55 1112.38 1238.51 1118.7 1234.44 1124.28C1230.42 1129.85 1224.8 1134.24 1217.56 1137.46C1210.33 1140.67 1201.92 1142.28 1192.32 1142.28C1179.73 1142.28 1169.31 1139.55 1161.06 1134.08C1152.8 1128.62 1147.58 1120.63 1145.38 1110.13L1163.39 1105.63C1165.1 1112.27 1168.34 1117.26 1173.11 1120.58C1177.94 1123.9 1184.23 1125.56 1192 1125.56C1200.84 1125.56 1207.86 1123.69 1213.06 1119.94C1218.31 1116.13 1220.94 1111.58 1220.94 1106.27C1220.94 1101.99 1219.44 1098.4 1216.44 1095.5C1213.44 1092.56 1208.83 1090.36 1202.61 1088.91L1182.04 1084.09C1170.73 1081.41 1162.42 1077.26 1157.12 1071.63C1151.87 1065.95 1149.24 1058.85 1149.24 1050.33C1149.24 1043.36 1151.2 1037.2 1155.11 1031.84C1159.07 1026.49 1164.46 1022.28 1171.26 1019.22C1178.12 1016.17 1185.89 1014.64 1194.57 1014.64C1206.79 1014.64 1216.38 1017.32 1223.35 1022.68C1230.37 1028.04 1235.35 1035.11 1238.3 1043.9ZM1269.1 1139.71V1016.25H1288.07V1139.71H1269.1ZM1278.75 995.674C1275.05 995.674 1271.86 994.414 1269.18 991.896C1266.56 989.377 1265.25 986.35 1265.25 982.813C1265.25 979.277 1266.56 976.249 1269.18 973.731C1271.86 971.212 1275.05 969.953 1278.75 969.953C1282.45 969.953 1285.61 971.212 1288.23 973.731C1290.91 976.249 1292.25 979.277 1292.25 982.813C1292.25 986.35 1290.91 989.377 1288.23 991.896C1285.61 994.414 1282.45 995.674 1278.75 995.674ZM1372.97 1142.28C1361.4 1142.28 1351.43 1139.55 1343.07 1134.08C1334.71 1128.62 1328.28 1121.09 1323.78 1111.5C1319.28 1101.91 1317.03 1090.95 1317.03 1078.62C1317.03 1066.08 1319.33 1055.02 1323.94 1045.43C1328.6 1035.78 1335.09 1028.25 1343.39 1022.84C1351.75 1017.38 1361.51 1014.64 1372.65 1014.64C1381.33 1014.64 1389.16 1016.25 1396.12 1019.47C1403.09 1022.68 1408.79 1027.18 1413.24 1032.97C1417.69 1038.76 1420.45 1045.51 1421.52 1053.22H1402.55C1401.1 1047.6 1397.89 1042.61 1392.91 1038.27C1387.98 1033.88 1381.33 1031.68 1372.97 1031.68C1365.58 1031.68 1359.09 1033.61 1353.52 1037.47C1348 1041.27 1343.69 1046.66 1340.58 1053.63C1337.53 1060.54 1336 1068.66 1336 1077.98C1336 1087.52 1337.5 1095.82 1340.5 1102.9C1343.55 1109.97 1347.84 1115.46 1353.36 1119.37C1358.93 1123.29 1365.47 1125.24 1372.97 1125.24C1377.9 1125.24 1382.38 1124.38 1386.4 1122.67C1390.41 1120.96 1393.82 1118.49 1396.6 1115.28C1399.39 1112.06 1401.37 1108.2 1402.55 1103.7H1421.52C1420.45 1110.99 1417.8 1117.55 1413.56 1123.39C1409.38 1129.18 1403.84 1133.79 1396.92 1137.22C1390.07 1140.59 1382.08 1142.28 1372.97 1142.28Z" fill="url(#paint2_linear_105_40)"/>
<path d="M1553.61 337.531L1530.47 398.875L1507.31 337.531M1421.71 375.729C1421.69 381.863 1419.24 387.739 1414.9 392.075C1410.56 396.411 1404.69 398.856 1398.55 398.875C1392.42 398.853 1386.55 396.407 1382.21 392.071C1377.87 387.736 1375.43 381.861 1375.41 375.729V360.677C1375.43 354.545 1377.87 348.671 1382.21 344.335C1386.55 339.999 1392.42 337.553 1398.55 337.531C1404.69 337.55 1410.56 339.995 1414.9 344.331C1419.24 348.667 1421.69 354.543 1421.71 360.677M1421.71 398.875V337.531M1490.77 398.875V360.677C1490.75 354.545 1488.3 348.671 1483.97 344.335C1479.63 339.999 1473.76 337.553 1467.63 337.531C1461.49 337.553 1455.62 339.999 1451.28 344.335C1446.95 348.671 1444.5 354.545 1444.48 360.677M1444.48 360.677V398.875M1444.48 360.677V337.531M1354.17 367.625C1354.18 371.733 1353.38 375.802 1351.82 379.6C1350.25 383.398 1347.95 386.848 1345.04 389.753C1342.14 392.657 1338.69 394.959 1334.89 396.524C1331.09 398.09 1327.02 398.889 1322.92 398.875C1318.81 398.889 1314.74 398.09 1310.94 396.524C1307.14 394.959 1303.69 392.657 1300.79 389.753C1297.88 386.848 1295.58 383.398 1294.02 379.6C1292.45 375.802 1291.65 371.733 1291.67 367.625V336.375C1291.65 332.267 1292.45 328.198 1294.02 324.4C1295.58 320.602 1297.88 317.152 1300.79 314.247C1303.69 311.343 1307.14 309.041 1310.94 307.476C1314.74 305.91 1318.81 305.111 1322.92 305.125C1326.97 305.129 1330.97 305.949 1334.7 307.536C1338.42 309.122 1341.79 311.443 1344.6 314.359C1347.41 317.276 1349.61 320.728 1351.05 324.511C1352.5 328.293 1353.17 332.328 1353.02 336.375M1616.33 375.729C1616.31 381.865 1613.86 387.742 1609.52 392.079C1605.18 396.415 1599.3 398.859 1593.17 398.875C1587.03 398.853 1581.16 396.407 1576.82 392.071C1572.49 387.736 1570.04 381.861 1570.02 375.729V360.677C1570.04 354.545 1572.49 348.671 1576.82 344.335C1581.16 339.999 1587.03 337.553 1593.17 337.531C1599.3 337.55 1605.18 339.995 1609.52 344.331C1613.85 348.667 1616.3 354.543 1616.32 360.677M1616.33 398.875V337.531" stroke="white" stroke-width="2" stroke-linecap="round" stroke-linejoin="round"/>
<path d="M1454 575.958C1577.69 575.958 1677.96 475.689 1677.96 352C1677.96 228.311 1577.69 128.042 1454 128.042C1330.31 128.042 1230.04 228.311 1230.04 352C1230.04 475.689 1330.31 575.958 1454 575.958Z" stroke="white" stroke-width="2" stroke-linecap="round" stroke-linejoin="round"/>
<path d="M0 0H568.519C568.519 0 852.779 488.931 568.519 566.877C284.26 644.822 0 566.877 0 566.877V0Z" fill="#8AC0DA"/>
</g>
<defs>
<linearGradient id="paint0_linear_105_40" x1="2069" y1="1143" x2="4.52331e-05" y2="607.668" gradientUnits="userSpaceOnUse">
<stop stop-color="#131D27"/>
<stop offset="0.0001" stop-color="#537066"/>
<stop offset="0.490385" stop-color="#5D0755"/>
<stop offset="0.836538" stop-color="#100D3D"/>
</linearGradient>
<linearGradient id="paint1_linear_105_40" x1="429.5" y1="661.529" x2="429.5" y2="883.529" gradientUnits="userSpaceOnUse">
<stop offset="1" stop-color="white"/>
</linearGradient>
<linearGradient id="paint2_linear_105_40" x1="778.5" y1="920.71" x2="778.5" y2="1194.71" gradientUnits="userSpaceOnUse">
<stop offset="1" stop-color="white"/>
</linearGradient>
<clipPath id="clip0_105_40">
<rect width="1920" height="1440" fill="white"/>
</clipPath>
</defs>
</svg>
