<svg width="1920" height="1440" viewBox="0 0 1920 1440" fill="none" xmlns="http://www.w3.org/2000/svg">
<g clip-path="url(#clip0_105_257)">
<rect width="1920" height="1440" fill="url(#paint0_linear_105_257)"/>
<path d="M188.345 839.529H147.181V706.135H190.169C203.109 706.135 214.182 708.806 223.387 714.147C232.593 719.444 239.649 727.065 244.556 737.008C249.462 746.909 251.916 758.763 251.916 772.571C251.916 786.466 249.441 798.429 244.491 808.46C239.54 818.447 232.332 826.133 222.866 831.517C213.4 836.858 201.893 839.529 188.345 839.529ZM163.334 825.199H187.303C198.333 825.199 207.473 823.071 214.724 818.816C221.976 814.561 227.382 808.503 230.943 800.644C234.503 792.784 236.284 783.427 236.284 772.571C236.284 761.803 234.525 752.532 231.008 744.759C227.491 736.943 222.237 730.951 215.246 726.782C208.255 722.57 199.548 720.464 189.127 720.464H163.334V825.199ZM318.873 841.613C309.233 841.613 300.918 839.485 293.927 835.23C286.979 830.931 281.617 824.939 277.839 817.253C274.105 809.524 272.237 800.535 272.237 790.288C272.237 780.04 274.105 771.008 277.839 763.192C281.617 755.333 286.871 749.21 293.601 744.824C300.375 740.395 308.278 738.181 317.31 738.181C322.52 738.181 327.666 739.049 332.746 740.786C337.827 742.523 342.451 745.345 346.62 749.253C350.788 753.118 354.11 758.242 356.585 764.625C359.06 771.008 360.298 778.868 360.298 788.203V794.717H283.18V781.429H344.666C344.666 775.785 343.537 770.748 341.279 766.318C339.064 761.889 335.895 758.394 331.769 755.832C327.688 753.27 322.868 751.989 317.31 751.989C311.187 751.989 305.89 753.509 301.417 756.548C296.988 759.545 293.579 763.453 291.191 768.272C288.803 773.092 287.609 778.26 287.609 783.774V792.632C287.609 800.188 288.912 806.593 291.517 811.847C294.166 817.057 297.835 821.031 302.524 823.766C307.214 826.458 312.664 827.805 318.873 827.805C322.911 827.805 326.559 827.24 329.815 826.111C333.116 824.939 335.96 823.202 338.348 820.9C340.736 818.556 342.582 815.646 343.884 812.172L358.735 816.341C357.172 821.378 354.544 825.807 350.854 829.628C347.163 833.406 342.603 836.359 337.176 838.486C331.748 840.571 325.647 841.613 318.873 841.613ZM462.444 739.483L425.448 839.529H409.816L372.82 739.483H389.494L417.111 819.207H418.153L445.769 739.483H462.444ZM597.368 772.832C597.368 786.901 594.827 799.059 589.747 809.307C584.667 819.554 577.697 827.457 568.839 833.015C559.981 838.573 549.864 841.352 538.487 841.352C527.11 841.352 516.993 838.573 508.135 833.015C499.277 827.457 492.307 819.554 487.227 809.307C482.146 799.059 479.606 786.901 479.606 772.832C479.606 758.763 482.146 746.605 487.227 736.357C492.307 726.109 499.277 718.207 508.135 712.648C516.993 707.09 527.11 704.311 538.487 704.311C549.864 704.311 559.981 707.09 568.839 712.648C577.697 718.207 584.667 726.109 589.747 736.357C594.827 746.605 597.368 758.763 597.368 772.832ZM581.736 772.832C581.736 761.281 579.803 751.533 575.939 743.587C572.118 735.641 566.929 729.627 560.372 725.545C553.858 721.463 546.564 719.422 538.487 719.422C530.41 719.422 523.094 721.463 516.537 725.545C510.024 729.627 504.835 735.641 500.97 743.587C497.149 751.533 495.238 761.281 495.238 772.832C495.238 784.382 497.149 794.13 500.97 802.077C504.835 810.023 510.024 816.037 516.537 820.119C523.094 824.2 530.41 826.241 538.487 826.241C546.564 826.241 553.858 824.2 560.372 820.119C566.929 816.037 572.118 810.023 575.939 802.077C579.803 794.13 581.736 784.382 581.736 772.832ZM622.444 877.045V739.483H637.295V755.376H639.118C640.247 753.639 641.81 751.425 643.808 748.732C645.849 745.997 648.758 743.565 652.536 741.437C656.357 739.266 661.524 738.181 668.038 738.181C676.461 738.181 683.887 740.287 690.313 744.499C696.74 748.711 701.755 754.681 705.359 762.41C708.963 770.14 710.765 779.258 710.765 789.767C710.765 800.362 708.963 809.545 705.359 817.318C701.755 825.047 696.761 831.039 690.378 835.295C683.995 839.507 676.635 841.613 668.298 841.613C661.872 841.613 656.726 840.549 652.861 838.421C648.997 836.25 646.022 833.797 643.938 831.061C641.854 828.282 640.247 825.981 639.118 824.157H637.816V877.045H622.444ZM637.555 789.506C637.555 797.062 638.662 803.727 640.877 809.502C643.091 815.234 646.326 819.728 650.582 822.985C654.837 826.198 660.048 827.805 666.214 827.805C672.64 827.805 678.003 826.111 682.302 822.724C686.644 819.294 689.901 814.691 692.072 808.916C694.286 803.097 695.394 796.627 695.394 789.506C695.394 782.472 694.308 776.132 692.137 770.487C690.009 764.799 686.774 760.304 682.432 757.004C678.133 753.661 672.727 751.989 666.214 751.989C659.961 751.989 654.707 753.574 650.452 756.744C646.196 759.87 642.983 764.256 640.812 769.901C638.641 775.502 637.555 782.037 637.555 789.506ZM805.078 761.889L791.27 765.797C790.402 763.496 789.121 761.26 787.427 759.089C785.777 756.874 783.519 755.05 780.653 753.617C777.788 752.184 774.118 751.468 769.646 751.468C763.523 751.468 758.421 752.879 754.339 755.702C750.301 758.481 748.282 762.02 748.282 766.318C748.282 770.14 749.672 773.157 752.451 775.372C755.23 777.587 759.572 779.432 765.477 780.908L780.328 784.556C789.273 786.727 795.938 790.049 800.324 794.521C804.709 798.95 806.902 804.66 806.902 811.651C806.902 817.383 805.252 822.507 801.952 827.023C798.695 831.539 794.136 835.099 788.274 837.705C782.412 840.31 775.595 841.613 767.822 841.613C757.618 841.613 749.172 839.398 742.485 834.969C735.798 830.54 731.564 824.07 729.784 815.559L744.374 811.912C745.764 817.296 748.391 821.335 752.255 824.027C756.163 826.719 761.265 828.065 767.562 828.065C774.726 828.065 780.415 826.545 784.627 823.506C788.882 820.423 791.01 816.732 791.01 812.433C791.01 808.959 789.794 806.05 787.362 803.705C784.93 801.317 781.196 799.537 776.159 798.364L759.485 794.456C750.323 792.285 743.592 788.92 739.294 784.36C735.038 779.758 732.911 774.004 732.911 767.1C732.911 761.455 734.495 756.462 737.665 752.119C740.879 747.777 745.242 744.368 750.757 741.893C756.315 739.418 762.611 738.181 769.646 738.181C779.546 738.181 787.319 740.352 792.964 744.694C798.652 749.036 802.69 754.768 805.078 761.889Z" fill="url(#paint1_linear_105_257)"/>
<path d="M196.152 1139.71H145.353V975.097H198.402C214.371 975.097 228.035 978.392 239.395 984.983C250.755 991.521 259.462 1000.92 265.517 1013.2C271.573 1025.41 274.6 1040.04 274.6 1057.08C274.6 1074.23 271.546 1088.99 265.437 1101.37C259.328 1113.69 250.433 1123.18 238.752 1129.82C227.07 1136.41 212.87 1139.71 196.152 1139.71ZM165.287 1122.03H194.866C208.476 1122.03 219.756 1119.4 228.705 1114.15C237.653 1108.9 244.325 1101.42 248.719 1091.72C253.113 1082.03 255.31 1070.48 255.31 1057.08C255.31 1043.79 253.139 1032.35 248.799 1022.76C244.459 1013.12 237.975 1005.72 229.348 1000.58C220.72 995.379 209.977 992.78 197.116 992.78H165.287V1122.03ZM355.621 1142.28C344.475 1142.28 334.696 1139.63 326.283 1134.32C317.924 1129.02 311.386 1121.6 306.671 1112.06C302.009 1102.52 299.678 1091.38 299.678 1078.62C299.678 1065.76 302.009 1054.54 306.671 1044.95C311.386 1035.35 317.924 1027.91 326.283 1022.6C334.696 1017.3 344.475 1014.64 355.621 1014.64C366.766 1014.64 376.519 1017.3 384.878 1022.6C393.291 1027.91 399.828 1035.35 404.49 1044.95C409.206 1054.54 411.563 1065.76 411.563 1078.62C411.563 1091.38 409.206 1102.52 404.49 1112.06C399.828 1121.6 393.291 1129.02 384.878 1134.32C376.519 1139.63 366.766 1142.28 355.621 1142.28ZM355.621 1125.24C364.087 1125.24 371.053 1123.07 376.519 1118.73C381.985 1114.39 386.03 1108.68 388.656 1101.61C391.282 1094.54 392.594 1086.88 392.594 1078.62C392.594 1070.37 391.282 1062.68 388.656 1055.55C386.03 1048.43 381.985 1042.67 376.519 1038.27C371.053 1033.88 364.087 1031.68 355.621 1031.68C347.154 1031.68 340.188 1033.88 334.723 1038.27C329.257 1042.67 325.211 1048.43 322.586 1055.55C319.96 1062.68 318.647 1070.37 318.647 1078.62C318.647 1086.88 319.96 1094.54 322.586 1101.61C325.211 1108.68 329.257 1114.39 334.723 1118.73C340.188 1123.07 347.154 1125.24 355.621 1125.24ZM490.675 1142.28C479.101 1142.28 469.134 1139.55 460.775 1134.08C452.415 1128.62 445.985 1121.09 441.484 1111.5C436.983 1101.91 434.732 1090.95 434.732 1078.62C434.732 1066.08 437.036 1055.02 441.645 1045.43C446.307 1035.78 452.79 1028.25 461.096 1022.84C469.455 1017.38 479.208 1014.64 490.354 1014.64C499.034 1014.64 506.858 1016.25 513.824 1019.47C520.79 1022.68 526.497 1027.18 530.944 1032.97C535.392 1038.76 538.151 1045.51 539.223 1053.22H520.254C518.807 1047.6 515.592 1042.61 510.609 1038.27C505.679 1033.88 499.034 1031.68 490.675 1031.68C483.28 1031.68 476.797 1033.61 471.224 1037.47C465.704 1041.27 461.391 1046.66 458.283 1053.63C455.229 1060.54 453.701 1068.66 453.701 1077.98C453.701 1087.52 455.202 1095.82 458.203 1102.9C461.257 1109.97 465.544 1115.46 471.063 1119.37C476.636 1123.29 483.173 1125.24 490.675 1125.24C495.605 1125.24 500.079 1124.38 504.098 1122.67C508.117 1120.96 511.52 1118.49 514.306 1115.28C517.092 1112.06 519.075 1108.2 520.254 1103.7H539.223C538.151 1110.99 535.499 1117.55 531.266 1123.39C527.086 1129.18 521.54 1133.79 514.628 1137.22C507.769 1140.59 499.785 1142.28 490.675 1142.28ZM584.636 1094.7L584.315 1071.23H588.173L642.187 1016.25H665.657L608.107 1074.44H606.499L584.636 1094.7ZM566.953 1139.71V975.097H585.922V1139.71H566.953ZM645.402 1139.71L597.175 1078.62L610.679 1065.44L669.515 1139.71H645.402ZM736.751 1142.28C724.855 1142.28 714.594 1139.66 705.966 1134.41C697.393 1129.1 690.775 1121.71 686.113 1112.22C681.505 1102.68 679.201 1091.59 679.201 1078.94C679.201 1066.3 681.505 1055.15 686.113 1045.51C690.775 1035.81 697.259 1028.25 705.564 1022.84C713.924 1017.38 723.676 1014.64 734.822 1014.64C741.252 1014.64 747.602 1015.71 753.871 1017.86C760.141 1020 765.848 1023.48 770.992 1028.31C776.136 1033.08 780.235 1039.4 783.29 1047.28C786.344 1055.15 787.871 1064.85 787.871 1076.37V1084.41H692.704V1068.01H768.58C768.58 1061.05 767.187 1054.83 764.401 1049.37C761.668 1043.9 757.756 1039.59 752.666 1036.43C747.629 1033.26 741.681 1031.68 734.822 1031.68C727.266 1031.68 720.729 1033.56 715.21 1037.31C709.744 1041.01 705.538 1045.83 702.59 1051.78C699.643 1057.73 698.17 1064.1 698.17 1070.91V1081.84C698.17 1091.16 699.777 1099.07 702.992 1105.55C706.261 1111.98 710.789 1116.88 716.576 1120.26C722.363 1123.58 729.088 1125.24 736.751 1125.24C741.734 1125.24 746.235 1124.55 750.254 1123.15C754.327 1121.71 757.837 1119.56 760.784 1116.72C763.731 1113.83 766.008 1110.24 767.616 1105.95L785.942 1111.1C784.013 1117.31 780.771 1122.78 776.216 1127.49C771.662 1132.15 766.035 1135.8 759.337 1138.42C752.639 1141 745.11 1142.28 736.751 1142.28ZM816.727 1139.71V1016.25H835.053V1034.9H836.339C838.589 1028.79 842.662 1023.83 848.556 1020.03C854.45 1016.22 861.095 1014.32 868.49 1014.32C869.883 1014.32 871.624 1014.35 873.714 1014.4C875.804 1014.46 877.385 1014.54 878.457 1014.64V1033.93C877.813 1033.77 876.34 1033.53 874.036 1033.21C871.785 1032.83 869.401 1032.65 866.882 1032.65C860.881 1032.65 855.522 1033.91 850.807 1036.43C846.145 1038.89 842.447 1042.32 839.715 1046.71C837.035 1051.05 835.696 1056.01 835.696 1061.58V1139.71H816.727Z" fill="url(#paint2_linear_105_257)"/>
<path d="M1658.37 315.542C1657.12 314.708 1646.71 306.583 1624.21 306.583C1618.37 306.583 1612.54 307.208 1606.71 308.25C1602.33 279.083 1577.96 264.292 1576.92 263.667L1570.87 260.125L1567.12 265.75C1562.12 273.25 1558.17 281.792 1556.5 290.542C1552.33 307.208 1554.83 323.042 1563.37 336.583C1553.17 342.417 1536.5 343.875 1532.96 343.875H1258.58C1251.5 343.875 1245.67 349.708 1245.67 357C1245.67 380.958 1249.42 404.917 1257.75 427.417C1267.12 452.208 1281.29 470.542 1299.42 481.792C1319.83 494.292 1353.37 501.375 1391.5 501.375C1407.96 501.375 1425.04 499.917 1441.92 496.792C1465.25 492.625 1487.75 484.5 1508.37 472.625C1525.46 462.857 1540.74 450.246 1553.58 435.333C1575.46 410.958 1588.37 383.25 1597.75 359.292H1601.71C1625.46 359.292 1640.25 349.708 1648.37 341.583C1653.79 336.583 1657.75 330.542 1660.67 323.458L1662.33 318.458L1658.37 315.542ZM1284.21 336.167H1320.87C1322.54 336.167 1324.21 334.708 1324.21 332.833V299.917C1324.21 298.25 1322.75 296.583 1320.87 296.583H1284.21C1282.33 296.583 1280.87 298.042 1280.87 299.917V332.833C1281.08 334.708 1282.33 336.167 1284.21 336.167ZM1334.83 336.167H1371.5C1373.17 336.167 1374.83 334.708 1374.83 332.833V299.917C1374.83 298.25 1373.37 296.583 1371.5 296.583H1334.83C1332.96 296.583 1331.5 298.042 1331.5 299.917V332.833C1331.71 334.708 1332.96 336.167 1334.83 336.167ZM1386.29 336.167H1422.75C1424.83 336.167 1426.29 334.708 1426.29 332.833V299.917C1426.29 298.25 1425.04 296.583 1422.75 296.583H1386.29C1384.62 296.583 1383.17 298.042 1383.17 299.917V332.833C1383.17 334.708 1384.42 336.167 1386.29 336.167ZM1437.12 336.167H1474C1475.67 336.167 1477.12 334.708 1477.12 332.833V299.917C1477.12 298.25 1475.87 296.583 1474 296.583H1437.12C1435.46 296.583 1434 298.042 1434 299.917V332.833C1434 334.708 1435.46 336.167 1437.12 336.167ZM1334.83 289.5H1371.5C1373.17 289.5 1374.83 287.625 1374.83 285.75V253.042C1374.83 251.167 1373.37 249.708 1371.5 249.708H1334.83C1332.96 249.708 1331.5 250.958 1331.5 253.042V285.75C1331.71 287.625 1332.96 289.5 1334.83 289.5ZM1386.29 289.5H1422.75C1424.83 289.5 1426.29 287.625 1426.29 285.75V253.042C1426.29 251.167 1425.04 249.708 1422.75 249.708H1386.29C1384.62 249.708 1383.17 250.958 1383.17 253.042V285.75C1383.17 287.625 1384.42 289.5 1386.29 289.5ZM1437.12 289.5H1474C1475.67 289.5 1477.12 287.625 1477.12 285.75V253.042C1477.12 251.167 1475.67 249.708 1474 249.708H1437.12C1435.46 249.708 1434 250.958 1434 253.042V285.75C1434 287.625 1435.46 289.5 1437.12 289.5ZM1437.12 242H1474C1475.67 242 1477.12 240.542 1477.12 238.667V206.167C1477.12 204.083 1475.67 202.625 1474 202.625H1437.12C1435.46 202.625 1434 203.875 1434 206.167V238.667C1434 240.333 1435.46 242 1437.12 242ZM1488.37 336.167H1525.04C1526.92 336.167 1528.37 334.708 1528.37 332.833V299.917C1528.37 298.25 1526.92 296.583 1525.04 296.583H1488.37C1486.71 296.583 1485.25 298.042 1485.25 299.917V332.833C1485.25 334.708 1486.71 336.167 1488.37 336.167Z" fill="white" fill-opacity="0.81"/>
<path d="M0 0H568.519C568.519 0 852.779 488.931 568.519 566.877C284.26 644.822 0 566.877 0 566.877V0Z" fill="#DA8AD9"/>
</g>
<defs>
<linearGradient id="paint0_linear_105_257" x1="2069" y1="1143" x2="51.5" y2="641" gradientUnits="userSpaceOnUse">
<stop stop-color="#4942A6"/>
<stop offset="0.0001" stop-color="#3A4488"/>
<stop offset="0.490385" stop-color="#07185D"/>
<stop offset="0.836538" stop-color="#0D191D"/>
</linearGradient>
<linearGradient id="paint1_linear_105_257" x1="473.5" y1="661.529" x2="473.5" y2="883.529" gradientUnits="userSpaceOnUse">
<stop offset="1" stop-color="white"/>
</linearGradient>
<linearGradient id="paint2_linear_105_257" x1="504.5" y1="920.71" x2="504.5" y2="1194.71" gradientUnits="userSpaceOnUse">
<stop offset="1" stop-color="white"/>
</linearGradient>
<clipPath id="clip0_105_257">
<rect width="1920" height="1440" fill="white"/>
</clipPath>
</defs>
</svg>
