<svg width="1920" height="1440" viewBox="0 0 1920 1440" fill="none" xmlns="http://www.w3.org/2000/svg">
<g clip-path="url(#clip0_105_283)">
<rect width="1920" height="1440" fill="url(#paint0_linear_105_283)"/>
<path d="M147.392 839.529V706.135H192.465C202.93 706.135 211.484 708.024 218.127 711.802C224.814 715.536 229.765 720.595 232.978 726.978C236.191 733.361 237.798 740.482 237.798 748.342C237.798 756.201 236.191 763.344 232.978 769.771C229.808 776.197 224.901 781.321 218.258 785.142C211.614 788.92 203.103 790.809 192.725 790.809H160.419V776.479H192.204C199.369 776.479 205.122 775.242 209.465 772.767C213.807 770.292 216.955 766.948 218.909 762.736C220.906 758.481 221.905 753.683 221.905 748.342C221.905 743.001 220.906 738.224 218.909 734.012C216.955 729.8 213.785 726.5 209.399 724.112C205.014 721.68 199.195 720.464 191.944 720.464H163.545V839.529H147.392ZM261.734 839.529V739.483H276.585V754.594H277.627C279.451 749.644 282.751 745.628 287.527 742.545C292.304 739.462 297.688 737.92 303.68 737.92C304.809 737.92 306.22 737.942 307.914 737.985C309.607 738.029 310.888 738.094 311.757 738.181V753.813C311.236 753.683 310.042 753.487 308.174 753.227C306.351 752.923 304.418 752.771 302.378 752.771C297.514 752.771 293.172 753.791 289.351 755.832C285.573 757.829 282.577 760.608 280.362 764.169C278.191 767.686 277.106 771.703 277.106 776.219V839.529H261.734ZM367.576 841.613C358.544 841.613 350.62 839.463 343.803 835.165C337.029 830.866 331.731 824.852 327.91 817.123C324.132 809.393 322.243 800.362 322.243 790.027C322.243 779.606 324.132 770.509 327.91 762.736C331.731 754.964 337.029 748.928 343.803 744.629C350.62 740.33 358.544 738.181 367.576 738.181C376.608 738.181 384.511 740.33 391.285 744.629C398.102 748.928 403.4 754.964 407.177 762.736C410.999 770.509 412.909 779.606 412.909 790.027C412.909 800.362 410.999 809.393 407.177 817.123C403.4 824.852 398.102 830.866 391.285 835.165C384.511 839.463 376.608 841.613 367.576 841.613ZM367.576 827.805C374.437 827.805 380.082 826.046 384.511 822.529C388.94 819.012 392.218 814.387 394.346 808.655C396.474 802.924 397.538 796.714 397.538 790.027C397.538 783.34 396.474 777.109 394.346 771.334C392.218 765.559 388.94 760.891 384.511 757.33C380.082 753.769 374.437 751.989 367.576 751.989C360.716 751.989 355.071 753.769 350.642 757.33C346.212 760.891 342.934 765.559 340.806 771.334C338.679 777.109 337.615 783.34 337.615 790.027C337.615 796.714 338.679 802.924 340.806 808.655C342.934 814.387 346.212 819.012 350.642 822.529C355.071 826.046 360.716 827.805 367.576 827.805ZM474.151 841.613C465.814 841.613 458.454 839.507 452.071 835.295C445.688 831.039 440.694 825.047 437.09 817.318C433.486 809.545 431.684 800.362 431.684 789.767C431.684 779.258 433.486 770.14 437.09 762.41C440.694 754.681 445.709 748.711 452.136 744.499C458.562 740.287 465.988 738.181 474.412 738.181C480.925 738.181 486.07 739.266 489.848 741.437C493.669 743.565 496.579 745.997 498.576 748.732C500.617 751.425 502.202 753.639 503.331 755.376H504.634V706.135H520.005V839.529H505.155V824.157H503.331C502.202 825.981 500.595 828.282 498.511 831.061C496.427 833.797 493.452 836.25 489.588 838.421C485.723 840.549 480.578 841.613 474.151 841.613ZM476.235 827.805C482.401 827.805 487.612 826.198 491.867 822.985C496.123 819.728 499.358 815.234 501.572 809.502C503.787 803.727 504.894 797.062 504.894 789.506C504.894 782.037 503.808 775.502 501.637 769.901C499.466 764.256 496.253 759.87 491.998 756.744C487.742 753.574 482.488 751.989 476.235 751.989C469.722 751.989 464.294 753.661 459.952 757.004C455.653 760.304 452.418 764.799 450.247 770.487C448.119 776.132 447.055 782.472 447.055 789.506C447.055 796.627 448.141 803.097 450.312 808.916C452.527 814.691 455.783 819.294 460.082 822.724C464.424 826.111 469.809 827.805 476.235 827.805ZM613.341 798.625V739.483H628.713V839.529H613.341V822.594H612.299C609.954 827.674 606.307 831.995 601.357 835.555C596.407 839.073 590.154 840.831 582.598 840.831C576.346 840.831 570.787 839.463 565.924 836.728C561.061 833.949 557.24 829.78 554.461 824.222C551.682 818.621 550.292 811.565 550.292 803.054V739.483H565.664V802.012C565.664 809.307 567.704 815.125 571.786 819.467C575.911 823.81 581.165 825.981 587.548 825.981C591.37 825.981 595.256 825.004 599.207 823.05C603.202 821.096 606.546 818.1 609.238 814.061C611.974 810.023 613.341 804.878 613.341 798.625ZM697.51 841.613C688.131 841.613 680.054 839.398 673.28 834.969C666.507 830.54 661.296 824.439 657.648 816.667C654.001 808.894 652.177 800.014 652.177 790.027C652.177 779.866 654.044 770.9 657.779 763.127C661.556 755.311 666.811 749.21 673.541 744.824C680.315 740.395 688.218 738.181 697.25 738.181C704.284 738.181 710.624 739.483 716.269 742.089C721.914 744.694 726.538 748.342 730.142 753.031C733.746 757.721 735.982 763.192 736.851 769.445H721.479C720.307 764.886 717.702 760.847 713.663 757.33C709.668 753.769 704.284 751.989 697.51 751.989C691.518 751.989 686.264 753.552 681.748 756.679C677.275 759.762 673.78 764.126 671.261 769.771C668.786 775.372 667.549 781.951 667.549 789.506C667.549 797.235 668.765 803.966 671.196 809.697C673.671 815.429 677.145 819.88 681.618 823.05C686.133 826.22 691.431 827.805 697.51 827.805C701.505 827.805 705.131 827.11 708.387 825.72C711.644 824.331 714.401 822.333 716.659 819.728C718.917 817.123 720.524 813.996 721.479 810.349H736.851C735.982 816.254 733.833 821.573 730.403 826.306C727.016 830.996 722.521 834.73 716.92 837.509C711.362 840.245 704.892 841.613 697.51 841.613ZM802.831 739.483V752.51H750.985V739.483H802.831ZM766.096 715.514H781.467V810.87C781.467 815.212 782.097 818.469 783.356 820.64C784.659 822.768 786.309 824.2 788.306 824.939C790.347 825.633 792.497 825.981 794.755 825.981C796.448 825.981 797.838 825.894 798.923 825.72C800.009 825.503 800.877 825.329 801.528 825.199L804.655 839.007C803.613 839.398 802.158 839.789 800.291 840.18C798.424 840.614 796.057 840.831 793.191 840.831C788.849 840.831 784.594 839.898 780.425 838.03C776.3 836.163 772.87 833.319 770.134 829.498C767.442 825.677 766.096 820.857 766.096 815.038V715.514ZM825.953 839.529V739.483H841.325V839.529H825.953ZM833.77 722.809C830.773 722.809 828.19 721.789 826.019 719.748C823.891 717.707 822.827 715.254 822.827 712.388C822.827 709.522 823.891 707.069 826.019 705.028C828.19 702.987 830.773 701.967 833.77 701.967C836.766 701.967 839.328 702.987 841.455 705.028C843.626 707.069 844.712 709.522 844.712 712.388C844.712 715.254 843.626 717.707 841.455 719.748C839.328 721.789 836.766 722.809 833.77 722.809ZM951.287 739.483L914.291 839.529H898.659L861.663 739.483H878.337L905.954 819.207H906.996L934.612 739.483H951.287ZM971.576 839.529V739.483H986.947V839.529H971.576ZM979.392 722.809C976.396 722.809 973.812 721.789 971.641 719.748C969.513 717.707 968.449 715.254 968.449 712.388C968.449 709.522 969.513 707.069 971.641 705.028C973.812 702.987 976.396 701.967 979.392 701.967C982.388 701.967 984.95 702.987 987.078 705.028C989.249 707.069 990.334 709.522 990.334 712.388C990.334 715.254 989.249 717.707 987.078 719.748C984.95 721.789 982.388 722.809 979.392 722.809ZM1058.61 739.483V752.51H1006.76V739.483H1058.61ZM1021.88 715.514H1037.25V810.87C1037.25 815.212 1037.88 818.469 1039.14 820.64C1040.44 822.768 1042.09 824.2 1044.09 824.939C1046.13 825.633 1048.28 825.981 1050.53 825.981C1052.23 825.981 1053.62 825.894 1054.7 825.72C1055.79 825.503 1056.66 825.329 1057.31 825.199L1060.43 839.007C1059.39 839.398 1057.94 839.789 1056.07 840.18C1054.2 840.614 1051.84 840.831 1048.97 840.831C1044.63 840.831 1040.37 839.898 1036.2 838.03C1032.08 836.163 1028.65 833.319 1025.91 829.498C1023.22 825.677 1021.88 820.857 1021.88 815.038V715.514ZM1091.63 877.045C1089.03 877.045 1086.7 876.828 1084.66 876.394C1082.62 876.003 1081.21 875.613 1080.43 875.222L1084.34 861.674C1088.07 862.629 1091.37 862.977 1094.24 862.716C1097.1 862.456 1099.64 861.175 1101.86 858.873C1104.12 856.615 1106.18 852.946 1108.05 847.866L1110.91 840.05L1073.92 739.483H1090.59L1118.21 819.207H1119.25L1146.87 739.483H1163.54L1121.07 854.118C1119.16 859.286 1116.8 863.563 1113.97 866.95C1111.15 870.38 1107.87 872.92 1104.14 874.57C1100.45 876.22 1096.28 877.045 1091.63 877.045Z" fill="url(#paint1_linear_105_283)"/>
<path d="M145.278 1139.71V975.097H244.625V992.78H165.212V1048.4H239.481V1066.08H165.212V1122.03H245.911V1139.71H145.278ZM292.128 1016.25L321.707 1066.73L351.286 1016.25H373.149L333.281 1077.98L373.149 1139.71H351.286L321.707 1091.81L292.128 1139.71H270.265L309.49 1077.98L270.265 1016.25H292.128ZM445.287 1142.28C433.713 1142.28 423.746 1139.55 415.387 1134.08C407.028 1128.62 400.598 1121.09 396.096 1111.5C391.595 1101.91 389.345 1090.95 389.345 1078.62C389.345 1066.08 391.649 1055.02 396.257 1045.43C400.919 1035.78 407.403 1028.25 415.709 1022.84C424.068 1017.38 433.82 1014.64 444.966 1014.64C453.647 1014.64 461.47 1016.25 468.436 1019.47C475.402 1022.68 481.109 1027.18 485.557 1032.97C490.004 1038.76 492.764 1045.51 493.836 1053.22H474.866C473.42 1047.6 470.205 1042.61 465.221 1038.27C460.291 1033.88 453.647 1031.68 445.287 1031.68C437.893 1031.68 431.409 1033.61 425.836 1037.47C420.317 1041.27 416.003 1046.66 412.895 1053.63C409.841 1060.54 408.314 1068.66 408.314 1077.98C408.314 1087.52 409.814 1095.82 412.815 1102.9C415.869 1109.97 420.156 1115.46 425.675 1119.37C431.248 1123.29 437.786 1125.24 445.287 1125.24C450.217 1125.24 454.692 1124.38 458.711 1122.67C462.729 1120.96 466.132 1118.49 468.918 1115.28C471.705 1112.06 473.688 1108.2 474.866 1103.7H493.836C492.764 1110.99 490.111 1117.55 485.878 1123.39C481.699 1129.18 476.152 1133.79 469.24 1137.22C462.381 1140.59 454.397 1142.28 445.287 1142.28ZM573.329 1142.28C561.433 1142.28 551.172 1139.66 542.544 1134.41C533.971 1129.1 527.353 1121.71 522.691 1112.22C518.083 1102.68 515.779 1091.59 515.779 1078.94C515.779 1066.3 518.083 1055.15 522.691 1045.51C527.353 1035.81 533.837 1028.25 542.142 1022.84C550.502 1017.38 560.254 1014.64 571.4 1014.64C577.83 1014.64 584.18 1015.71 590.449 1017.86C596.719 1020 602.426 1023.48 607.57 1028.31C612.714 1033.08 616.813 1039.4 619.868 1047.28C622.922 1055.15 624.449 1064.85 624.449 1076.37V1084.41H529.282V1068.01H605.158C605.158 1061.05 603.765 1054.83 600.979 1049.37C598.246 1043.9 594.334 1039.59 589.244 1036.43C584.207 1033.26 578.259 1031.68 571.4 1031.68C563.844 1031.68 557.307 1033.56 551.788 1037.31C546.322 1041.01 542.116 1045.83 539.168 1051.78C536.221 1057.73 534.748 1064.1 534.748 1070.91V1081.84C534.748 1091.16 536.355 1099.07 539.57 1105.55C542.839 1111.98 547.367 1116.88 553.154 1120.26C558.941 1123.58 565.666 1125.24 573.329 1125.24C578.312 1125.24 582.813 1124.55 586.832 1123.15C590.905 1121.71 594.415 1119.56 597.362 1116.72C600.309 1113.83 602.586 1110.24 604.194 1105.95L622.52 1111.1C620.591 1117.31 617.349 1122.78 612.794 1127.49C608.24 1132.15 602.613 1135.8 595.915 1138.42C589.217 1141 581.688 1142.28 573.329 1142.28ZM672.274 975.097V1139.71H653.305V975.097H672.274Z" fill="url(#paint2_linear_105_283)"/>
<path d="M1327.12 294.708L1365.46 352M1365.46 352L1327.12 409.292M1365.46 352L1403.79 294.708M1365.46 352L1403.79 409.292" stroke="white" stroke-width="2" stroke-linecap="round" stroke-linejoin="round"/>
<path d="M1261.29 268.667V435.333C1261.29 440.859 1263.49 446.158 1267.39 450.065C1271.3 453.972 1276.6 456.167 1282.13 456.167H1448.79C1454.32 456.167 1459.62 453.972 1463.52 450.065C1467.43 446.158 1469.63 440.859 1469.63 435.333V268.667C1469.63 263.141 1467.43 257.842 1463.52 253.935C1459.62 250.028 1454.32 247.833 1448.79 247.833H1282.13C1276.6 247.833 1271.3 250.028 1267.39 253.935C1263.49 257.842 1261.29 263.141 1261.29 268.667Z" stroke="white" stroke-width="2" stroke-linecap="round" stroke-linejoin="round"/>
<path d="M1341.81 247.833V190.542C1341.81 179.491 1346.2 168.893 1354.02 161.079C1361.83 153.265 1372.43 148.875 1383.48 148.875H1605.04C1616.09 148.875 1626.69 153.265 1634.5 161.079C1642.32 168.893 1646.71 179.491 1646.71 190.542V513.458C1646.71 524.509 1642.32 535.107 1634.5 542.921C1626.69 550.735 1616.09 555.125 1605.04 555.125H1383.48C1372.43 555.125 1361.83 550.735 1354.02 542.921C1346.2 535.107 1341.81 524.509 1341.81 513.458V456.167" stroke="white" stroke-width="2" stroke-linecap="round" stroke-linejoin="round"/>
<path d="M0 0H568.519C568.519 0 852.779 488.931 568.519 566.877C284.26 644.822 0 566.877 0 566.877V0Z" fill="#C9EA6F"/>
</g>
<defs>
<linearGradient id="paint0_linear_105_283" x1="2069" y1="1143" x2="4.52331e-05" y2="607.668" gradientUnits="userSpaceOnUse">
<stop stop-color="#4C0707"/>
<stop offset="0.0001" stop-color="#C94F30"/>
<stop offset="0.490385" stop-color="#7E2929"/>
<stop offset="0.836538" stop-color="#430F0F"/>
</linearGradient>
<linearGradient id="paint1_linear_105_283" x1="650.5" y1="661.529" x2="650.5" y2="883.529" gradientUnits="userSpaceOnUse">
<stop offset="1" stop-color="white"/>
</linearGradient>
<linearGradient id="paint2_linear_105_283" x1="407.5" y1="920.71" x2="407.5" y2="1194.71" gradientUnits="userSpaceOnUse">
<stop offset="1" stop-color="white"/>
</linearGradient>
<clipPath id="clip0_105_283">
<rect width="1920" height="1440" fill="white"/>
</clipPath>
</defs>
</svg>
