<svg width="1920" height="1440" viewBox="0 0 1920 1440" fill="none" xmlns="http://www.w3.org/2000/svg">
<g clip-path="url(#clip0_105_231)">
<rect width="1920" height="1440" fill="url(#paint0_linear_105_231)"/>
<path d="M147.298 839.529V706.135H193.934C203.226 706.135 210.89 707.742 216.926 710.955C222.962 714.125 227.456 718.402 230.409 723.786C233.361 729.127 234.838 735.054 234.838 741.568C234.838 747.299 233.817 752.033 231.776 755.767C229.779 759.501 227.13 762.454 223.83 764.625C220.573 766.796 217.034 768.403 213.213 769.445V770.748C217.295 771.008 221.398 772.441 225.524 775.046C229.649 777.652 233.101 781.386 235.88 786.249C238.659 791.113 240.048 797.062 240.048 804.096C240.048 810.783 238.529 816.797 235.489 822.138C232.449 827.479 227.651 831.713 221.094 834.839C214.538 837.965 206.005 839.529 195.497 839.529H147.298ZM163.451 825.199H195.497C206.049 825.199 213.539 823.158 217.968 819.077C222.441 814.952 224.677 809.958 224.677 804.096C224.677 799.58 223.526 795.411 221.225 791.59C218.923 787.726 215.645 784.643 211.39 782.341C207.134 779.997 202.097 778.824 196.279 778.824H163.451V825.199ZM163.451 764.755H193.413C198.276 764.755 202.662 763.8 206.57 761.889C210.521 759.979 213.648 757.287 215.949 753.813C218.294 750.339 219.466 746.257 219.466 741.568C219.466 735.706 217.425 730.734 213.344 726.652C209.262 722.527 202.792 720.464 193.934 720.464H163.451V764.755ZM293.946 841.873C287.607 841.873 281.853 840.679 276.686 838.291C271.519 835.859 267.415 832.364 264.376 827.805C261.336 823.202 259.816 817.644 259.816 811.13C259.816 805.399 260.945 800.752 263.203 797.192C265.461 793.588 268.479 790.765 272.257 788.724C276.035 786.684 280.203 785.164 284.762 784.165C289.365 783.123 293.99 782.298 298.636 781.69C304.715 780.908 309.643 780.322 313.421 779.931C317.242 779.497 320.021 778.781 321.758 777.782C323.539 776.783 324.429 775.046 324.429 772.571V772.05C324.429 765.624 322.67 760.63 319.153 757.07C315.679 753.509 310.403 751.729 303.326 751.729C295.987 751.729 290.234 753.335 286.065 756.548C281.897 759.762 278.966 763.192 277.272 766.84L262.682 761.629C265.288 755.55 268.761 750.817 273.104 747.43C277.489 743.999 282.266 741.611 287.433 740.265C292.644 738.876 297.767 738.181 302.804 738.181C306.018 738.181 309.709 738.572 313.877 739.353C318.089 740.091 322.149 741.633 326.057 743.978C330.009 746.322 333.287 749.861 335.892 754.594C338.498 759.327 339.8 765.667 339.8 773.613V839.529H324.429V825.981H323.647C322.605 828.152 320.868 830.475 318.437 832.95C316.005 835.425 312.77 837.531 308.732 839.268C304.693 841.005 299.765 841.873 293.946 841.873ZM296.291 828.065C302.37 828.065 307.494 826.871 311.663 824.483C315.875 822.094 319.044 819.012 321.172 815.234C323.343 811.456 324.429 807.483 324.429 803.314V789.245C323.777 790.027 322.345 790.744 320.13 791.395C317.959 792.003 315.44 792.546 312.574 793.023C309.752 793.457 306.995 793.848 304.303 794.196C301.654 794.5 299.504 794.76 297.854 794.977C293.859 795.498 290.125 796.345 286.651 797.517C283.221 798.646 280.442 800.362 278.314 802.663C276.23 804.921 275.188 808.004 275.188 811.912C275.188 817.253 277.164 821.291 281.115 824.027C285.11 826.719 290.169 828.065 296.291 828.065ZM408.5 841.613C399.121 841.613 391.044 839.398 384.27 834.969C377.496 830.54 372.286 824.439 368.638 816.667C364.991 808.894 363.167 800.014 363.167 790.027C363.167 779.866 365.034 770.9 368.768 763.127C372.546 755.311 377.8 749.21 384.531 744.824C391.305 740.395 399.208 738.181 408.239 738.181C415.274 738.181 421.613 739.483 427.258 742.089C432.903 744.694 437.528 748.342 441.132 753.031C444.736 757.721 446.972 763.192 447.841 769.445H432.469C431.297 764.886 428.691 760.847 424.653 757.33C420.658 753.769 415.274 751.989 408.5 751.989C402.508 751.989 397.253 753.552 392.738 756.679C388.265 759.762 384.77 764.126 382.251 769.771C379.776 775.372 378.538 781.951 378.538 789.506C378.538 797.235 379.754 803.966 382.186 809.697C384.661 815.429 388.135 819.88 392.607 823.05C397.123 826.22 402.421 827.805 408.5 827.805C412.495 827.805 416.121 827.11 419.377 825.72C422.634 824.331 425.391 822.333 427.649 819.728C429.907 817.123 431.514 813.996 432.469 810.349H447.841C446.972 816.254 444.823 821.573 441.392 826.306C438.005 830.996 433.511 834.73 427.91 837.509C422.352 840.245 415.882 841.613 408.5 841.613ZM484.641 803.054L484.38 784.035H487.507L531.277 739.483H550.296L503.66 786.64H502.357L484.641 803.054ZM470.312 839.529V706.135H485.683V839.529H470.312ZM533.882 839.529L494.802 790.027L505.744 779.345L553.422 839.529H533.882ZM607.906 841.613C598.266 841.613 589.951 839.485 582.96 835.23C576.012 830.931 570.65 824.939 566.872 817.253C563.138 809.524 561.271 800.535 561.271 790.288C561.271 780.04 563.138 771.008 566.872 763.192C570.65 755.333 575.904 749.21 582.634 744.824C589.408 740.395 597.311 738.181 606.343 738.181C611.554 738.181 616.699 739.049 621.78 740.786C626.86 742.523 631.485 745.345 635.653 749.253C639.822 753.118 643.143 758.242 645.619 764.625C648.094 771.008 649.331 778.868 649.331 788.203V794.717H572.213V781.429H633.699C633.699 775.785 632.57 770.748 630.312 766.318C628.098 761.889 624.928 758.394 620.803 755.832C616.721 753.27 611.901 751.989 606.343 751.989C600.22 751.989 594.923 753.509 590.45 756.548C586.021 759.545 582.613 763.453 580.224 768.272C577.836 773.092 576.642 778.26 576.642 783.774V792.632C576.642 800.188 577.945 806.593 580.55 811.847C583.199 817.057 586.868 821.031 591.558 823.766C596.247 826.458 601.697 827.805 607.906 827.805C611.944 827.805 615.592 827.24 618.849 826.111C622.149 824.939 624.993 823.202 627.381 820.9C629.769 818.556 631.615 815.646 632.917 812.172L647.768 816.341C646.205 821.378 643.578 825.807 639.887 829.628C636.196 833.406 631.637 836.359 626.209 838.486C620.781 840.571 614.68 841.613 607.906 841.613ZM688.086 779.345V839.529H672.714V739.483H687.565V755.116H688.867C691.212 750.035 694.773 745.953 699.549 742.87C704.326 739.744 710.492 738.181 718.047 738.181C724.821 738.181 730.748 739.57 735.828 742.349C740.909 745.085 744.86 749.253 747.683 754.855C750.505 760.413 751.916 767.447 751.916 775.958V839.529H736.545V777C736.545 769.141 734.504 763.018 730.422 758.633C726.341 754.204 720.739 751.989 713.618 751.989C708.711 751.989 704.326 753.053 700.461 755.181C696.64 757.308 693.622 760.413 691.407 764.495C689.193 768.576 688.086 773.527 688.086 779.345ZM817.783 841.613C809.446 841.613 802.086 839.507 795.702 835.295C789.319 831.039 784.326 825.047 780.722 817.318C777.118 809.545 775.316 800.362 775.316 789.767C775.316 779.258 777.118 770.14 780.722 762.41C784.326 754.681 789.341 748.711 795.768 744.499C802.194 740.287 809.619 738.181 818.043 738.181C824.557 738.181 829.702 739.266 833.48 741.437C837.301 743.565 840.21 745.997 842.208 748.732C844.249 751.425 845.834 753.639 846.963 755.376H848.265V706.135H863.637V839.529H848.786V824.157H846.963C845.834 825.981 844.227 828.282 842.143 831.061C840.058 833.797 837.084 836.25 833.219 838.421C829.355 840.549 824.209 841.613 817.783 841.613ZM819.867 827.805C826.033 827.805 831.244 826.198 835.499 822.985C839.754 819.728 842.989 815.234 845.204 809.502C847.418 803.727 848.526 797.062 848.526 789.506C848.526 782.037 847.44 775.502 845.269 769.901C843.098 764.256 839.885 759.87 835.629 756.744C831.374 753.574 826.12 751.989 819.867 751.989C813.354 751.989 807.926 753.661 803.584 757.004C799.285 760.304 796.05 764.799 793.879 770.487C791.751 776.132 790.687 782.472 790.687 789.506C790.687 796.627 791.773 803.097 793.944 808.916C796.158 814.691 799.415 819.294 803.714 822.724C808.056 826.111 813.44 827.805 819.867 827.805Z" fill="url(#paint1_linear_105_231)"/>
<path d="M145.234 1139.71V975.097H243.938V992.78H165.168V1048.4H236.543V1066.08H165.168V1139.71H145.234ZM311.836 1142.6C304.013 1142.6 296.913 1141.13 290.536 1138.18C284.16 1135.18 279.096 1130.87 275.345 1125.24C271.594 1119.56 269.719 1112.7 269.719 1104.67C269.719 1097.59 271.112 1091.86 273.898 1087.46C276.685 1083.02 280.409 1079.53 285.071 1077.02C289.733 1074.5 294.877 1072.62 300.503 1071.39C306.183 1070.1 311.89 1069.09 317.624 1068.33C325.126 1067.37 331.207 1066.65 335.869 1066.16C340.585 1065.63 344.014 1064.74 346.158 1063.51C348.355 1062.28 349.453 1060.14 349.453 1057.08V1056.44C349.453 1048.51 347.283 1042.35 342.943 1037.95C338.656 1033.56 332.145 1031.36 323.411 1031.36C314.355 1031.36 307.255 1033.34 302.111 1037.31C296.967 1041.27 293.35 1045.51 291.26 1050.01L273.255 1043.58C276.47 1036.08 280.757 1030.24 286.116 1026.06C291.528 1021.82 297.422 1018.88 303.799 1017.21C310.229 1015.5 316.552 1014.64 322.768 1014.64C326.733 1014.64 331.288 1015.13 336.432 1016.09C341.63 1017 346.64 1018.9 351.463 1021.8C356.339 1024.69 360.384 1029.06 363.6 1034.9C366.815 1040.74 368.422 1048.56 368.422 1058.37V1139.71H349.453V1122.99H348.489C347.203 1125.67 345.059 1128.54 342.058 1131.59C339.058 1134.65 335.066 1137.25 330.082 1139.39C325.099 1141.53 319.017 1142.6 311.836 1142.6ZM314.73 1125.56C322.232 1125.56 328.555 1124.09 333.699 1121.14C338.897 1118.2 342.809 1114.39 345.434 1109.73C348.114 1105.07 349.453 1100.16 349.453 1095.02V1077.66C348.649 1078.62 346.881 1079.51 344.148 1080.31C341.469 1081.06 338.361 1081.73 334.824 1082.32C331.341 1082.86 327.939 1083.34 324.616 1083.77C321.348 1084.14 318.695 1084.46 316.659 1084.73C311.729 1085.37 307.121 1086.42 302.834 1087.87C298.601 1089.26 295.172 1091.38 292.546 1094.22C289.974 1097 288.688 1100.81 288.688 1105.63C288.688 1112.22 291.126 1117.2 296.002 1120.58C300.932 1123.9 307.175 1125.56 314.73 1125.56ZM490.496 1043.9L473.456 1048.72C472.384 1045.88 470.803 1043.12 468.713 1040.44C466.677 1037.71 463.891 1035.46 460.354 1033.69C456.817 1031.92 452.29 1031.04 446.77 1031.04C439.215 1031.04 432.919 1032.78 427.882 1036.26C422.898 1039.69 420.406 1044.06 420.406 1049.37C420.406 1054.08 422.121 1057.81 425.551 1060.54C428.98 1063.27 434.339 1065.55 441.626 1067.37L459.952 1071.87C470.991 1074.55 479.216 1078.65 484.628 1084.17C490.04 1089.63 492.746 1096.68 492.746 1105.31C492.746 1112.38 490.71 1118.7 486.638 1124.28C482.619 1129.85 476.992 1134.24 469.758 1137.46C462.524 1140.67 454.111 1142.28 444.52 1142.28C431.927 1142.28 421.505 1139.55 413.253 1134.08C405.001 1128.62 399.776 1120.63 397.579 1110.13L415.584 1105.63C417.298 1112.27 420.54 1117.26 425.309 1120.58C430.132 1123.9 436.428 1125.56 444.198 1125.56C453.04 1125.56 460.059 1123.69 465.257 1119.94C470.508 1116.13 473.134 1111.58 473.134 1106.27C473.134 1101.99 471.634 1098.4 468.633 1095.5C465.632 1092.56 461.024 1090.36 454.808 1088.91L434.231 1084.09C422.925 1081.41 414.619 1077.26 409.314 1071.63C404.063 1065.95 401.437 1058.85 401.437 1050.33C401.437 1043.36 403.393 1037.2 407.305 1031.84C411.27 1026.49 416.655 1022.28 423.461 1019.22C430.32 1016.17 438.089 1014.64 446.77 1014.64C458.988 1014.64 468.579 1017.32 475.545 1022.68C482.565 1028.04 487.548 1035.11 490.496 1043.9ZM574.993 1016.25V1032.33H511.012V1016.25H574.993ZM529.66 986.671H548.629V1104.34C548.629 1109.7 549.406 1113.72 550.96 1116.4C552.567 1119.03 554.603 1120.79 557.068 1121.71C559.587 1122.56 562.239 1122.99 565.026 1122.99C567.116 1122.99 568.83 1122.88 570.17 1122.67C571.51 1122.4 572.581 1122.19 573.385 1122.03L577.243 1139.07C575.957 1139.55 574.162 1140.03 571.858 1140.51C569.554 1141.05 566.633 1141.32 563.097 1141.32C557.738 1141.32 552.487 1140.17 547.343 1137.86C542.252 1135.56 538.019 1132.05 534.643 1127.33C531.321 1122.62 529.66 1116.67 529.66 1109.49V986.671ZM612.85 1139.71H591.952L652.396 975.097H672.973L733.417 1139.71H712.519L663.327 1001.14H662.041L612.85 1139.71ZM620.567 1075.41H704.802V1093.09H620.567V1075.41ZM759.057 1139.71V975.097H814.678C827.592 975.097 838.149 977.428 846.347 982.09C854.599 986.698 860.708 992.941 864.673 1000.82C868.639 1008.69 870.621 1017.48 870.621 1027.18C870.621 1036.88 868.639 1045.7 864.673 1053.63C860.762 1061.56 854.706 1067.88 846.508 1072.59C838.309 1077.26 827.807 1079.59 815 1079.59H775.133V1061.9H814.357C823.198 1061.9 830.298 1060.38 835.657 1057.32C841.015 1054.27 844.9 1050.14 847.312 1044.95C849.777 1039.69 851.009 1033.77 851.009 1027.18C851.009 1020.59 849.777 1014.7 847.312 1009.5C844.9 1004.3 840.989 1000.23 835.577 997.281C830.165 994.28 822.984 992.78 814.035 992.78H778.991V1139.71H759.057ZM922.666 975.097V1139.71H902.732V975.097H922.666Z" fill="url(#paint2_linear_105_231)"/>
<path d="M1258.93 394.188C1249.9 392.969 1240.64 388.195 1234.14 381.402C1229.42 376.504 1226.52 371.805 1224.31 365.535C1222.77 361.156 1222.64 360.145 1222.64 351.941C1222.64 343.73 1222.77 342.707 1224.31 338.328C1232.09 316.109 1256.16 304.148 1278.23 311.504C1291.6 315.945 1302.42 327.633 1306.08 341.578C1307.43 346.691 1307.44 356.5 1306.11 361.98C1301.03 382.918 1280.31 397.055 1258.93 394.188ZM1273.06 365.535C1278.68 354.305 1283.27 344.859 1283.27 344.539C1283.27 344.172 1280.49 343.941 1276.18 343.941H1269.08V330.836C1269.08 323.617 1268.88 317.91 1268.65 318.141C1267.77 319.027 1247.4 359.051 1247.63 359.477C1247.75 359.723 1251.03 359.918 1254.9 359.918H1261.97V372.934C1261.97 380.09 1262.16 385.949 1262.43 385.949C1262.67 385.949 1267.46 376.766 1273.06 365.535ZM1402.61 388.895C1399.51 388.102 1395.02 385.738 1393.47 384.074C1389.53 379.848 1388.27 370.465 1390.91 365.016C1393.21 360.223 1398.41 357.035 1405.98 355.738C1409.84 355.066 1417.26 355.266 1421.25 356.152C1422.86 356.504 1422.87 356.457 1422.87 353.633C1422.87 347.59 1420.84 343.578 1416.77 341.457C1414.68 340.371 1413.41 340.191 1408.68 340.266C1405.58 340.328 1401.54 340.738 1399.68 341.18L1396.3 342.004L1395.93 339.273C1395.19 334.07 1395.12 334.285 1398.32 333.414C1399.95 332.973 1404.5 332.469 1408.42 332.285C1414.11 332.027 1416.25 332.164 1419.03 332.973C1426.03 335.016 1430.06 339.379 1431.57 346.582C1432.07 349.023 1432.32 356.074 1432.33 368.859L1432.35 387.582L1427.75 388.285C1421.68 389.215 1405.42 389.613 1402.61 388.895ZM1420.13 381.434L1422.87 381.055V372.586C1422.87 366.711 1422.66 363.992 1422.17 363.703C1421.79 363.461 1418.78 363.141 1415.47 363C1407.8 362.648 1403.71 363.719 1401.05 366.738C1399.46 368.539 1399.22 369.289 1399.22 372.098C1399.22 377.391 1400.67 379.297 1406.01 380.977C1408.61 381.797 1415.79 382.031 1420.13 381.434ZM1449.88 388.332C1447.64 387.734 1445.59 387.02 1445.33 386.746C1444.89 386.285 1446.08 379.695 1446.72 379.051C1446.88 378.902 1448.69 379.391 1450.75 380.105C1455.79 381.875 1467.08 382.09 1470.02 380.473C1472.55 379.098 1473.75 377.238 1473.75 374.719C1473.75 370.324 1470.5 367.715 1459.25 363.141C1449.1 359.004 1445.87 355.297 1445.87 347.82C1445.87 340.449 1449.76 335.52 1457.36 333.203C1460.85 332.148 1462.44 332.012 1467.76 332.285C1474.95 332.652 1480.26 333.734 1480.26 334.848C1480.26 335.656 1479.02 341.777 1478.81 342.02C1478.73 342.113 1476.6 341.641 1474.05 340.984C1468.57 339.594 1464.91 339.488 1461.05 340.664C1456.87 341.914 1455.4 343.547 1455.4 346.965C1455.4 351.664 1457.3 353.145 1469.67 358.148C1478.73 361.797 1482.18 365.141 1483.18 371.227C1484.61 380 1480.34 386.227 1471.24 388.648C1466.65 389.871 1454.95 389.703 1449.88 388.332ZM1506.87 388.59C1503.13 387.43 1500.13 384.715 1498.19 380.762L1496.53 377.375V317.652L1499.18 317.211C1500.72 316.968 1502.25 316.708 1503.77 316.43L1505.7 316.098V333.293H1526.4V340.984H1505.64L1505.82 357.703C1505.98 373.211 1506.08 374.582 1507.21 376.719C1507.88 378.016 1509.32 379.512 1510.45 380.121C1513.18 381.586 1519.48 381.586 1523.66 380.105L1526.8 379.012L1527.7 382.793C1528.56 386.348 1528.56 386.605 1527.55 387.141C1523.34 389.398 1512.03 390.191 1506.87 388.59ZM1341.83 351.637V314.969H1386.21V323.238H1351.86L1352.03 334.637L1352.18 346.02L1367.42 346.172L1382.65 346.34V354.594H1351.89V388.316H1341.84L1341.83 351.637ZM1532.31 388.012C1532.31 387.34 1543.19 358.227 1547.23 348.094C1550.17 340.796 1553.22 333.547 1556.4 326.352L1561.47 314.969H1566.34C1570.47 314.969 1571.27 315.121 1571.54 315.988C1571.71 316.57 1573.83 321.418 1576.25 326.793C1581.55 338.574 1587.85 354.305 1595 373.574C1597.93 381.465 1600.35 388.027 1600.35 388.133C1600.35 388.254 1597.91 388.289 1594.92 388.195L1589.48 388.012L1586.19 378.855L1582.87 369.684L1566.03 369.516L1549.17 369.363L1545.84 378.688L1542.53 388.012L1537.42 388.195C1534.61 388.285 1532.31 388.211 1532.31 388.012ZM1579.64 360.941C1579.64 359.035 1566.78 326.793 1566.02 326.793C1565.05 326.793 1552.42 358.453 1552.42 360.852C1552.42 361.555 1554.69 361.688 1566.03 361.688C1576.61 361.688 1579.64 361.516 1579.64 360.941ZM1611 352V315.684L1612.92 315.301C1617.07 314.492 1637 314.207 1640.71 314.922C1649.18 316.508 1655.63 319.957 1658.79 324.551C1664.38 332.684 1663.46 346.445 1656.89 353.023C1651.82 358.102 1643.82 360.453 1630.07 360.957L1621.05 361.277V388.316H1611V352ZM1641.84 351.07C1648.9 348.855 1651.91 344.797 1651.91 337.457C1651.91 327.34 1644.84 322.672 1629.55 322.656C1626.91 322.656 1623.91 322.813 1622.9 323.023L1621.05 323.391V352.992L1629.69 352.562C1635.37 352.289 1639.55 351.77 1641.84 351.07ZM1676.06 351.633V314.969H1686.12V388.316H1676.06V351.633Z" fill="white"/>
<path d="M0 0H568.519C568.519 0 852.779 488.931 568.519 566.877C284.26 644.822 0 566.877 0 566.877V0Z" fill="#99B8BF"/>
</g>
<defs>
<linearGradient id="paint0_linear_105_231" x1="2069" y1="1143" x2="4.52331e-05" y2="607.668" gradientUnits="userSpaceOnUse">
<stop stop-color="#CF985A"/>
<stop offset="0.0001" stop-color="#DEB569"/>
<stop offset="0.490385" stop-color="#636126"/>
<stop offset="0.836538" stop-color="#1F3D0D"/>
</linearGradient>
<linearGradient id="paint1_linear_105_231" x1="505.5" y1="661.529" x2="505.5" y2="883.529" gradientUnits="userSpaceOnUse">
<stop offset="1" stop-color="white"/>
</linearGradient>
<linearGradient id="paint2_linear_105_231" x1="534" y1="920.71" x2="534" y2="1194.71" gradientUnits="userSpaceOnUse">
<stop offset="1" stop-color="white"/>
</linearGradient>
<clipPath id="clip0_105_231">
<rect width="1920" height="1440" fill="white"/>
</clipPath>
</defs>
</svg>
