<svg width="1920" height="1440" viewBox="0 0 1920 1440" fill="none" xmlns="http://www.w3.org/2000/svg">
<rect width="1920" height="1440" fill="url(#paint0_linear_99_14)"/>
<path d="M0 0H568.519C568.519 0 852.779 488.931 568.519 566.877C284.26 644.822 0 566.877 0 566.877V0Z" fill="#698646"/>
<path d="M188.319 870H147.154V736.607H190.142C203.082 736.607 214.155 739.277 223.361 744.618C232.566 749.915 239.622 757.536 244.529 767.48C249.436 777.38 251.889 789.234 251.889 803.043C251.889 816.938 249.414 828.901 244.464 838.931C239.514 848.918 232.306 856.604 222.839 861.989C213.373 867.33 201.866 870 188.319 870ZM163.307 855.671H187.277C198.306 855.671 207.446 853.543 214.698 849.288C221.949 845.032 227.355 838.975 230.916 831.115C234.477 823.256 236.257 813.898 236.257 803.043C236.257 792.274 234.498 783.003 230.981 775.231C227.464 767.415 222.21 761.422 215.219 757.254C208.228 753.042 199.522 750.936 189.1 750.936H163.307V855.671ZM318.846 872.084C309.207 872.084 300.891 869.957 293.9 865.701C286.953 861.402 281.59 855.41 277.812 847.724C274.078 839.995 272.211 831.007 272.211 820.759C272.211 810.511 274.078 801.48 277.812 793.664C281.59 785.804 286.844 779.682 293.574 775.296C300.348 770.867 308.251 768.652 317.283 768.652C322.494 768.652 327.639 769.521 332.72 771.258C337.8 772.994 342.425 775.817 346.593 779.725C350.762 783.59 354.084 788.713 356.559 795.096C359.034 801.48 360.271 809.339 360.271 818.675V825.188H283.153V811.901H344.639C344.639 806.256 343.51 801.219 341.252 796.79C339.038 792.361 335.868 788.865 331.743 786.303C327.661 783.741 322.841 782.461 317.283 782.461C311.161 782.461 305.863 783.98 301.391 787.02C296.961 790.016 293.553 793.924 291.165 798.744C288.776 803.564 287.582 808.731 287.582 814.246V823.104C287.582 830.659 288.885 837.064 291.49 842.318C294.139 847.529 297.808 851.502 302.498 854.238C307.187 856.93 312.637 858.276 318.846 858.276C322.885 858.276 326.532 857.711 329.789 856.582C333.089 855.41 335.933 853.673 338.321 851.372C340.709 849.027 342.555 846.118 343.858 842.644L358.708 846.812C357.145 851.849 354.518 856.279 350.827 860.1C347.136 863.877 342.577 866.83 337.149 868.958C331.721 871.042 325.62 872.084 318.846 872.084ZM454.519 792.361L440.711 796.269C439.843 793.967 438.562 791.731 436.868 789.56C435.218 787.346 432.96 785.522 430.094 784.089C427.228 782.656 423.559 781.939 419.087 781.939C412.964 781.939 407.862 783.351 403.78 786.173C399.742 788.952 397.723 792.491 397.723 796.79C397.723 800.611 399.112 803.629 401.892 805.843C404.671 808.058 409.013 809.903 414.918 811.38L429.769 815.027C438.714 817.198 445.379 820.52 449.765 824.993C454.15 829.422 456.343 835.132 456.343 842.123C456.343 847.855 454.693 852.978 451.393 857.494C448.136 862.01 443.577 865.571 437.715 868.176C431.853 870.782 425.036 872.084 417.263 872.084C407.059 872.084 398.613 869.87 391.926 865.441C385.239 861.012 381.005 854.542 379.225 846.031L393.815 842.383C395.204 847.768 397.832 851.806 401.696 854.498C405.604 857.19 410.706 858.536 417.003 858.536C424.167 858.536 429.856 857.017 434.067 853.977C438.323 850.894 440.451 847.203 440.451 842.904C440.451 839.431 439.235 836.521 436.803 834.177C434.371 831.788 430.637 830.008 425.6 828.836L408.926 824.928C399.764 822.756 393.033 819.391 388.735 814.832C384.479 810.229 382.351 804.476 382.351 797.572C382.351 791.927 383.936 786.933 387.106 782.591C390.319 778.249 394.683 774.84 400.198 772.365C405.756 769.89 412.052 768.652 419.087 768.652C428.987 768.652 436.76 770.823 442.405 775.166C448.093 779.508 452.131 785.24 454.519 792.361ZM479.482 870V769.955H494.853V870H479.482ZM487.298 753.281C484.302 753.281 481.718 752.26 479.547 750.219C477.419 748.179 476.355 745.725 476.355 742.859C476.355 739.993 477.419 737.54 479.547 735.499C481.718 733.458 484.302 732.438 487.298 732.438C490.294 732.438 492.856 733.458 494.984 735.499C497.155 737.54 498.24 739.993 498.24 742.859C498.24 745.725 497.155 748.179 494.984 750.219C492.856 752.26 490.294 753.281 487.298 753.281ZM563.39 909.601C555.965 909.601 549.582 908.646 544.241 906.735C538.9 904.868 534.449 902.393 530.889 899.31C527.371 896.271 524.571 893.014 522.486 889.54L534.731 880.942C536.121 882.766 537.88 884.85 540.007 887.195C542.135 889.583 545.044 891.646 548.735 893.383C552.469 895.163 557.354 896.053 563.39 896.053C571.467 896.053 578.132 894.099 583.386 890.191C588.64 886.283 591.267 880.161 591.267 871.824V851.502H589.965C588.836 853.326 587.229 855.584 585.145 858.276C583.104 860.925 580.151 863.291 576.287 865.376C572.465 867.416 567.298 868.437 560.785 868.437C552.708 868.437 545.457 866.526 539.03 862.705C532.647 858.884 527.588 853.326 523.854 846.031C520.163 838.736 518.318 829.878 518.318 819.456C518.318 809.209 520.12 800.285 523.724 792.686C527.328 785.044 532.343 779.139 538.77 774.97C545.196 770.758 552.621 768.652 561.045 768.652C567.559 768.652 572.726 769.738 576.547 771.909C580.412 774.037 583.364 776.468 585.405 779.204C587.49 781.896 589.096 784.111 590.225 785.847H591.788V769.955H606.639V872.866C606.639 881.464 604.685 888.454 600.777 893.839C596.912 899.267 591.702 903.24 585.145 905.758C578.631 908.32 571.38 909.601 563.39 909.601ZM562.869 854.628C569.035 854.628 574.246 853.217 578.501 850.395C582.757 847.572 585.991 843.512 588.206 838.215C590.421 832.917 591.528 826.578 591.528 819.196C591.528 811.988 590.442 805.626 588.271 800.112C586.1 794.597 582.887 790.277 578.631 787.15C574.376 784.024 569.122 782.461 562.869 782.461C556.356 782.461 550.928 784.111 546.586 787.411C542.287 790.711 539.052 795.14 536.881 800.698C534.753 806.256 533.689 812.422 533.689 819.196C533.689 826.143 534.775 832.288 536.946 837.629C539.16 842.926 542.417 847.095 546.716 850.134C551.058 853.13 556.443 854.628 562.869 854.628ZM650.148 809.817V870H634.776V769.955H649.627V785.587H650.93C653.274 780.507 656.835 776.425 661.611 773.342C666.388 770.215 672.554 768.652 680.109 768.652C686.883 768.652 692.81 770.042 697.891 772.821C702.971 775.556 706.923 779.725 709.745 785.326C712.568 790.884 713.979 797.919 713.979 806.43V870H698.607V807.472C698.607 799.612 696.566 793.49 692.485 789.104C688.403 784.675 682.802 782.461 675.68 782.461C670.774 782.461 666.388 783.524 662.523 785.652C658.702 787.78 655.684 790.884 653.47 794.966C651.255 799.048 650.148 803.998 650.148 809.817Z" fill="url(#paint1_linear_99_14)"/>
<path d="M145.154 1139.71V975.097H243.858V992.78H165.088V1048.4H236.463V1066.08H165.088V1139.71H145.154ZM275.426 1139.71V1016.25H294.395V1139.71H275.426ZM285.072 995.674C281.374 995.674 278.186 994.414 275.507 991.896C272.881 989.377 271.568 986.35 271.568 982.813C271.568 979.277 272.881 976.249 275.507 973.731C278.186 971.212 281.374 969.953 285.072 969.953C288.769 969.953 291.93 971.212 294.556 973.731C297.235 976.249 298.575 979.277 298.575 982.813C298.575 986.35 297.235 989.377 294.556 991.896C291.93 994.414 288.769 995.674 285.072 995.674ZM378.973 1188.58C369.81 1188.58 361.933 1187.4 355.342 1185.04C348.751 1182.74 343.258 1179.68 338.864 1175.88C334.524 1172.13 331.068 1168.11 328.496 1163.82L343.607 1153.21C345.321 1155.46 347.491 1158.04 350.117 1160.93C352.743 1163.88 356.333 1166.42 360.888 1168.57C365.496 1170.76 371.524 1171.86 378.973 1171.86C388.94 1171.86 397.165 1169.45 403.649 1164.63C410.132 1159.8 413.374 1152.25 413.374 1141.96V1116.88H411.767C410.374 1119.13 408.391 1121.92 405.819 1125.24C403.3 1128.51 399.657 1131.43 394.887 1134C390.172 1136.52 383.795 1137.78 375.758 1137.78C365.791 1137.78 356.842 1135.42 348.911 1130.71C341.034 1125.99 334.792 1119.13 330.184 1110.13C325.629 1101.13 323.351 1090.2 323.351 1077.34C323.351 1064.69 325.575 1053.68 330.023 1044.3C334.47 1034.87 340.659 1027.58 348.59 1022.44C356.521 1017.24 365.684 1014.64 376.079 1014.64C384.117 1014.64 390.493 1015.98 395.209 1018.66C399.978 1021.29 403.622 1024.29 406.14 1027.66C408.712 1030.99 410.695 1033.72 412.088 1035.86H414.017V1016.25H432.343V1143.25C432.343 1153.86 429.932 1162.48 425.109 1169.13C420.34 1175.83 413.91 1180.73 405.819 1183.84C397.781 1187 388.832 1188.58 378.973 1188.58ZM378.33 1120.74C385.939 1120.74 392.369 1119 397.62 1115.52C402.872 1112.03 406.864 1107.02 409.597 1100.49C412.329 1093.95 413.696 1086.13 413.696 1077.02C413.696 1068.12 412.356 1060.27 409.677 1053.47C406.998 1046.66 403.032 1041.33 397.781 1037.47C392.53 1033.61 386.046 1031.68 378.33 1031.68C370.292 1031.68 363.594 1033.72 358.235 1037.79C352.93 1041.86 348.938 1047.33 346.259 1054.19C343.633 1061.05 342.321 1068.66 342.321 1077.02C342.321 1085.59 343.66 1093.17 346.339 1099.76C349.072 1106.3 353.091 1111.44 358.396 1115.2C363.755 1118.89 370.399 1120.74 378.33 1120.74ZM467.066 1139.71V1016.25H485.393V1035.54H487C489.572 1028.95 493.725 1023.83 499.459 1020.19C505.192 1016.49 512.078 1014.64 520.116 1014.64C528.261 1014.64 535.039 1016.49 540.451 1020.19C545.917 1023.83 550.177 1028.95 553.231 1035.54H554.517C557.679 1029.16 562.421 1024.1 568.744 1020.35C575.067 1016.55 582.649 1014.64 591.491 1014.64C602.529 1014.64 611.559 1018.1 618.578 1025.01C625.598 1031.87 629.108 1042.56 629.108 1057.08V1139.71H610.139V1057.08C610.139 1047.97 607.647 1041.46 602.663 1037.55C597.68 1033.64 591.812 1031.68 585.061 1031.68C576.38 1031.68 569.655 1034.31 564.886 1039.56C560.117 1044.76 557.732 1051.35 557.732 1059.33V1139.71H538.442V1055.15C538.442 1048.13 536.164 1042.48 531.61 1038.19C527.055 1033.85 521.187 1031.68 514.007 1031.68C509.077 1031.68 504.469 1033 500.182 1035.62C495.949 1038.25 492.519 1041.89 489.894 1046.55C487.322 1051.16 486.036 1056.49 486.036 1062.55V1139.71H467.066ZM700.121 1142.6C692.298 1142.6 685.198 1141.13 678.821 1138.18C672.444 1135.18 667.381 1130.87 663.63 1125.24C659.879 1119.56 658.003 1112.7 658.003 1104.67C658.003 1097.59 659.397 1091.86 662.183 1087.46C664.969 1083.02 668.694 1079.53 673.355 1077.02C678.017 1074.5 683.161 1072.62 688.788 1071.39C694.468 1070.1 700.175 1069.09 705.908 1068.33C713.41 1067.37 719.492 1066.65 724.154 1066.16C728.87 1065.63 732.299 1064.74 734.442 1063.51C736.639 1062.28 737.738 1060.14 737.738 1057.08V1056.44C737.738 1048.51 735.568 1042.35 731.227 1037.95C726.94 1033.56 720.43 1031.36 711.696 1031.36C702.64 1031.36 695.54 1033.34 690.395 1037.31C685.251 1041.27 681.634 1045.51 679.545 1050.01L661.54 1043.58C664.755 1036.08 669.042 1030.24 674.4 1026.06C679.812 1021.82 685.707 1018.88 692.083 1017.21C698.514 1015.5 704.837 1014.64 711.053 1014.64C715.018 1014.64 719.573 1015.13 724.717 1016.09C729.914 1017 734.925 1018.9 739.747 1021.8C744.624 1024.69 748.669 1029.06 751.884 1034.9C755.099 1040.74 756.707 1048.56 756.707 1058.37V1139.71H737.738V1122.99H736.773C735.487 1125.67 733.344 1128.54 730.343 1131.59C727.342 1134.65 723.35 1137.25 718.367 1139.39C713.383 1141.53 707.302 1142.6 700.121 1142.6ZM703.015 1125.56C710.517 1125.56 716.84 1124.09 721.984 1121.14C727.182 1118.2 731.093 1114.39 733.719 1109.73C736.398 1105.07 737.738 1100.16 737.738 1095.02V1077.66C736.934 1078.62 735.166 1079.51 732.433 1080.31C729.754 1081.06 726.646 1081.73 723.109 1082.32C719.626 1082.86 716.223 1083.34 712.901 1083.77C709.633 1084.14 706.98 1084.46 704.944 1084.73C700.014 1085.37 695.406 1086.42 691.119 1087.87C686.886 1089.26 683.456 1091.38 680.831 1094.22C678.258 1097 676.972 1100.81 676.972 1105.63C676.972 1112.22 679.411 1117.2 684.287 1120.58C689.217 1123.9 695.459 1125.56 703.015 1125.56ZM857.561 1139.71V975.097H915.111C926.578 975.097 936.036 977.08 943.484 981.045C950.933 984.957 956.479 990.235 960.122 996.879C963.766 1003.47 965.588 1010.78 965.588 1018.82C965.588 1025.9 964.329 1031.74 961.81 1036.34C959.345 1040.95 956.077 1044.6 952.004 1047.28C947.985 1049.96 943.618 1051.94 938.903 1053.22V1054.83C943.94 1055.15 949.004 1056.92 954.094 1060.14C959.185 1063.35 963.445 1067.96 966.874 1073.96C970.304 1079.96 972.018 1087.3 972.018 1095.98C972.018 1104.24 970.143 1111.66 966.392 1118.25C962.641 1124.84 956.72 1130.06 948.628 1133.92C940.537 1137.78 930.008 1139.71 917.04 1139.71H857.561ZM877.494 1122.03H917.04C930.061 1122.03 939.305 1119.51 944.77 1114.47C950.29 1109.38 953.049 1103.22 953.049 1095.98C953.049 1090.41 951.629 1085.27 948.789 1080.55C945.949 1075.78 941.904 1071.98 936.652 1069.14C931.401 1066.25 925.185 1064.8 918.005 1064.8H877.494V1122.03ZM877.494 1047.44H914.468C920.47 1047.44 925.882 1046.26 930.704 1043.9C935.581 1041.54 939.439 1038.22 942.279 1033.93C945.172 1029.65 946.619 1024.61 946.619 1018.82C946.619 1011.59 944.101 1005.45 939.064 1000.42C934.027 995.325 926.042 992.78 915.111 992.78H877.494V1047.44ZM1038.53 1142.6C1030.71 1142.6 1023.61 1141.13 1017.23 1138.18C1010.85 1135.18 1005.79 1130.87 1002.04 1125.24C998.288 1119.56 996.413 1112.7 996.413 1104.67C996.413 1097.59 997.806 1091.86 1000.59 1087.46C1003.38 1083.02 1007.1 1079.53 1011.76 1077.02C1016.43 1074.5 1021.57 1072.62 1027.2 1071.39C1032.88 1070.1 1038.58 1069.09 1044.32 1068.33C1051.82 1067.37 1057.9 1066.65 1062.56 1066.16C1067.28 1065.63 1070.71 1064.74 1072.85 1063.51C1075.05 1062.28 1076.15 1060.14 1076.15 1057.08V1056.44C1076.15 1048.51 1073.98 1042.35 1069.64 1037.95C1065.35 1033.56 1058.84 1031.36 1050.11 1031.36C1041.05 1031.36 1033.95 1033.34 1028.81 1037.31C1023.66 1041.27 1020.04 1045.51 1017.95 1050.01L999.949 1043.58C1003.16 1036.08 1007.45 1030.24 1012.81 1026.06C1018.22 1021.82 1024.12 1018.88 1030.49 1017.21C1036.92 1015.5 1043.25 1014.64 1049.46 1014.64C1053.43 1014.64 1057.98 1015.13 1063.13 1016.09C1068.32 1017 1073.33 1018.9 1078.16 1021.8C1083.03 1024.69 1087.08 1029.06 1090.29 1034.9C1093.51 1040.74 1095.12 1048.56 1095.12 1058.37V1139.71H1076.15V1122.99H1075.18C1073.9 1125.67 1071.75 1128.54 1068.75 1131.59C1065.75 1134.65 1061.76 1137.25 1056.78 1139.39C1051.79 1141.53 1045.71 1142.6 1038.53 1142.6ZM1041.42 1125.56C1048.93 1125.56 1055.25 1124.09 1060.39 1121.14C1065.59 1118.2 1069.5 1114.39 1072.13 1109.73C1074.81 1105.07 1076.15 1100.16 1076.15 1095.02V1077.66C1075.34 1078.62 1073.58 1079.51 1070.84 1080.31C1068.16 1081.06 1065.06 1081.73 1061.52 1082.32C1058.04 1082.86 1054.63 1083.34 1051.31 1083.77C1048.04 1084.14 1045.39 1084.46 1043.35 1084.73C1038.42 1085.37 1033.82 1086.42 1029.53 1087.87C1025.3 1089.26 1021.87 1091.38 1019.24 1094.22C1016.67 1097 1015.38 1100.81 1015.38 1105.63C1015.38 1112.22 1017.82 1117.2 1022.7 1120.58C1027.63 1123.9 1033.87 1125.56 1041.42 1125.56ZM1217.19 1043.9L1200.15 1048.72C1199.08 1045.88 1197.5 1043.12 1195.41 1040.44C1193.37 1037.71 1190.58 1035.46 1187.05 1033.69C1183.51 1031.92 1178.98 1031.04 1173.46 1031.04C1165.91 1031.04 1159.61 1032.78 1154.58 1036.26C1149.59 1039.69 1147.1 1044.06 1147.1 1049.37C1147.1 1054.08 1148.82 1057.81 1152.24 1060.54C1155.67 1063.27 1161.03 1065.55 1168.32 1067.37L1186.65 1071.87C1197.68 1074.55 1205.91 1078.65 1211.32 1084.17C1216.73 1089.63 1219.44 1096.68 1219.44 1105.31C1219.44 1112.38 1217.4 1118.7 1213.33 1124.28C1209.31 1129.85 1203.69 1134.24 1196.45 1137.46C1189.22 1140.67 1180.81 1142.28 1171.21 1142.28C1158.62 1142.28 1148.2 1139.55 1139.95 1134.08C1131.7 1128.62 1126.47 1120.63 1124.27 1110.13L1142.28 1105.63C1143.99 1112.27 1147.23 1117.26 1152 1120.58C1156.83 1123.9 1163.12 1125.56 1170.89 1125.56C1179.73 1125.56 1186.75 1123.69 1191.95 1119.94C1197.2 1116.13 1199.83 1111.58 1199.83 1106.27C1199.83 1101.99 1198.33 1098.4 1195.33 1095.5C1192.33 1092.56 1187.72 1090.36 1181.5 1088.91L1160.93 1084.09C1149.62 1081.41 1141.31 1077.26 1136.01 1071.63C1130.76 1065.95 1128.13 1058.85 1128.13 1050.33C1128.13 1043.36 1130.09 1037.2 1134 1031.84C1137.96 1026.49 1143.35 1022.28 1150.16 1019.22C1157.01 1016.17 1164.78 1014.64 1173.46 1014.64C1185.68 1014.64 1195.27 1017.32 1202.24 1022.68C1209.26 1028.04 1214.24 1035.11 1217.19 1043.9ZM1247.99 1139.71V1016.25H1266.96V1139.71H1247.99ZM1257.64 995.674C1253.94 995.674 1250.75 994.414 1248.07 991.896C1245.45 989.377 1244.14 986.35 1244.14 982.813C1244.14 979.277 1245.45 976.249 1248.07 973.731C1250.75 971.212 1253.94 969.953 1257.64 969.953C1261.34 969.953 1264.5 971.212 1267.12 973.731C1269.8 976.249 1271.14 979.277 1271.14 982.813C1271.14 986.35 1269.8 989.377 1267.12 991.896C1264.5 994.414 1261.34 995.674 1257.64 995.674ZM1351.86 1142.28C1340.29 1142.28 1330.32 1139.55 1321.96 1134.08C1313.6 1128.62 1307.17 1121.09 1302.67 1111.5C1298.17 1101.91 1295.92 1090.95 1295.92 1078.62C1295.92 1066.08 1298.22 1055.02 1302.83 1045.43C1307.49 1035.78 1313.98 1028.25 1322.28 1022.84C1330.64 1017.38 1340.4 1014.64 1351.54 1014.64C1360.22 1014.64 1368.05 1016.25 1375.01 1019.47C1381.98 1022.68 1387.68 1027.18 1392.13 1032.97C1396.58 1038.76 1399.34 1045.51 1400.41 1053.22H1381.44C1379.99 1047.6 1376.78 1042.61 1371.8 1038.27C1366.87 1033.88 1360.22 1031.68 1351.86 1031.68C1344.47 1031.68 1337.98 1033.61 1332.41 1037.47C1326.89 1041.27 1322.58 1046.66 1319.47 1053.63C1316.42 1060.54 1314.89 1068.66 1314.89 1077.98C1314.89 1087.52 1316.39 1095.82 1319.39 1102.9C1322.44 1109.97 1326.73 1115.46 1332.25 1119.37C1337.82 1123.29 1344.36 1125.24 1351.86 1125.24C1356.79 1125.24 1361.27 1124.38 1365.29 1122.67C1369.3 1120.96 1372.71 1118.49 1375.49 1115.28C1378.28 1112.06 1380.26 1108.2 1381.44 1103.7H1400.41C1399.34 1110.99 1396.69 1117.55 1392.45 1123.39C1388.27 1129.18 1382.73 1133.79 1375.82 1137.22C1368.96 1140.59 1360.97 1142.28 1351.86 1142.28Z" fill="url(#paint2_linear_99_14)"/>
<path d="M1454 143.667H1381.08C1361.74 143.667 1343.2 151.349 1329.52 165.023C1315.85 178.698 1308.17 197.245 1308.17 216.583C1308.17 235.922 1315.85 254.469 1329.52 268.143C1343.2 281.818 1361.74 289.5 1381.08 289.5M1454 143.667V289.5M1454 143.667H1526.92C1536.49 143.667 1545.97 145.553 1554.82 149.217C1563.67 152.881 1571.71 158.252 1578.48 165.023C1585.25 171.794 1590.62 179.833 1594.28 188.679C1597.95 197.526 1599.83 207.008 1599.83 216.583C1599.83 226.159 1597.95 235.641 1594.28 244.487C1590.62 253.334 1585.25 261.372 1578.48 268.143C1571.71 274.914 1563.67 280.285 1554.82 283.95C1545.97 287.614 1536.49 289.5 1526.92 289.5M1454 289.5H1381.08M1454 289.5H1526.92M1454 289.5V435.333M1381.08 289.5C1361.74 289.5 1343.2 297.182 1329.52 310.857C1315.85 324.531 1308.17 343.078 1308.17 362.417C1308.17 381.755 1315.85 400.302 1329.52 413.976C1343.2 427.651 1361.74 435.333 1381.08 435.333M1526.92 289.5C1517.34 289.5 1507.86 291.386 1499.01 295.05C1490.17 298.715 1482.13 304.086 1475.36 310.857C1468.59 317.628 1463.21 325.666 1459.55 334.513C1455.89 343.359 1454 352.841 1454 362.417C1454 371.992 1455.89 381.474 1459.55 390.321C1463.21 399.167 1468.59 407.206 1475.36 413.976C1482.13 420.747 1490.17 426.118 1499.01 429.783C1507.86 433.447 1517.34 435.333 1526.92 435.333C1536.49 435.333 1545.97 433.447 1554.82 429.783C1563.67 426.118 1571.71 420.747 1578.48 413.976C1585.25 407.206 1590.62 399.167 1594.28 390.321C1597.95 381.474 1599.83 371.992 1599.83 362.417C1599.83 352.841 1597.95 343.359 1594.28 334.513C1590.62 325.666 1585.25 317.628 1578.48 310.857C1571.71 304.086 1563.67 298.715 1554.82 295.05C1545.97 291.386 1536.49 289.5 1526.92 289.5ZM1381.08 435.333C1361.74 435.333 1343.2 443.016 1329.52 456.69C1315.85 470.365 1308.17 488.911 1308.17 508.25C1308.17 527.589 1315.85 546.135 1329.52 559.81C1343.2 573.484 1361.74 581.167 1381.08 581.167C1400.42 581.167 1418.97 573.484 1432.64 559.81C1446.32 546.135 1454 527.589 1454 508.25V435.333M1381.08 435.333H1454" stroke="#F3F3F3" stroke-width="4.05" stroke-linecap="round" stroke-linejoin="round"/>
<defs>
<linearGradient id="paint0_linear_99_14" x1="1920" y1="720" x2="0" y2="720" gradientUnits="userSpaceOnUse">
<stop stop-color="#1A1327"/>
<stop offset="0.5" stop-color="#3D2B5A"/>
<stop offset="0.661607" stop-color="#402E5F"/>
<stop offset="0.991468" stop-color="#5F448D"/>
</linearGradient>
<linearGradient id="paint1_linear_99_14" x1="429.5" y1="692" x2="429.5" y2="914" gradientUnits="userSpaceOnUse">
<stop offset="1" stop-color="white"/>
</linearGradient>
<linearGradient id="paint2_linear_99_14" x1="768" y1="920.71" x2="768" y2="1194.71" gradientUnits="userSpaceOnUse">
<stop offset="1" stop-color="white"/>
</linearGradient>
</defs>
</svg>
