<svg width="1920" height="1440" viewBox="0 0 1920 1440" fill="none" xmlns="http://www.w3.org/2000/svg">
<g clip-path="url(#clip0_105_296)">
<rect width="1920" height="1440" fill="url(#paint0_linear_105_296)"/>
<path d="M147.298 839.529V706.135H193.934C203.226 706.135 210.89 707.742 216.926 710.955C222.962 714.125 227.456 718.402 230.409 723.786C233.361 729.127 234.838 735.054 234.838 741.568C234.838 747.299 233.817 752.033 231.776 755.767C229.779 759.501 227.13 762.454 223.83 764.625C220.573 766.796 217.034 768.403 213.213 769.445V770.748C217.295 771.008 221.398 772.441 225.524 775.046C229.649 777.652 233.101 781.386 235.88 786.249C238.659 791.113 240.048 797.062 240.048 804.096C240.048 810.783 238.529 816.797 235.489 822.138C232.449 827.479 227.651 831.713 221.094 834.839C214.538 837.965 206.005 839.529 195.497 839.529H147.298ZM163.451 825.199H195.497C206.049 825.199 213.539 823.158 217.968 819.077C222.441 814.952 224.677 809.958 224.677 804.096C224.677 799.58 223.526 795.411 221.225 791.59C218.923 787.726 215.645 784.643 211.39 782.341C207.134 779.997 202.097 778.824 196.279 778.824H163.451V825.199ZM163.451 764.755H193.413C198.276 764.755 202.662 763.8 206.57 761.889C210.521 759.979 213.648 757.287 215.949 753.813C218.294 750.339 219.466 746.257 219.466 741.568C219.466 735.706 217.425 730.734 213.344 726.652C209.262 722.527 202.792 720.464 193.934 720.464H163.451V764.755ZM293.946 841.873C287.607 841.873 281.853 840.679 276.686 838.291C271.519 835.859 267.415 832.364 264.376 827.805C261.336 823.202 259.816 817.644 259.816 811.13C259.816 805.399 260.945 800.752 263.203 797.192C265.461 793.588 268.479 790.765 272.257 788.724C276.035 786.684 280.203 785.164 284.762 784.165C289.365 783.123 293.99 782.298 298.636 781.69C304.715 780.908 309.643 780.322 313.421 779.931C317.242 779.497 320.021 778.781 321.758 777.782C323.539 776.783 324.429 775.046 324.429 772.571V772.05C324.429 765.624 322.67 760.63 319.153 757.07C315.679 753.509 310.403 751.729 303.326 751.729C295.987 751.729 290.234 753.335 286.065 756.548C281.897 759.762 278.966 763.192 277.272 766.84L262.682 761.629C265.288 755.55 268.761 750.817 273.104 747.43C277.489 743.999 282.266 741.611 287.433 740.265C292.644 738.876 297.767 738.181 302.804 738.181C306.018 738.181 309.709 738.572 313.877 739.353C318.089 740.091 322.149 741.633 326.057 743.978C330.009 746.322 333.287 749.861 335.892 754.594C338.498 759.327 339.8 765.667 339.8 773.613V839.529H324.429V825.981H323.647C322.605 828.152 320.868 830.475 318.437 832.95C316.005 835.425 312.77 837.531 308.732 839.268C304.693 841.005 299.765 841.873 293.946 841.873ZM296.291 828.065C302.37 828.065 307.494 826.871 311.663 824.483C315.875 822.094 319.044 819.012 321.172 815.234C323.343 811.456 324.429 807.483 324.429 803.314V789.245C323.777 790.027 322.345 790.744 320.13 791.395C317.959 792.003 315.44 792.546 312.574 793.023C309.752 793.457 306.995 793.848 304.303 794.196C301.654 794.5 299.504 794.76 297.854 794.977C293.859 795.498 290.125 796.345 286.651 797.517C283.221 798.646 280.442 800.362 278.314 802.663C276.23 804.921 275.188 808.004 275.188 811.912C275.188 817.253 277.164 821.291 281.115 824.027C285.11 826.719 290.169 828.065 296.291 828.065ZM408.5 841.613C399.121 841.613 391.044 839.398 384.27 834.969C377.496 830.54 372.286 824.439 368.638 816.667C364.991 808.894 363.167 800.014 363.167 790.027C363.167 779.866 365.034 770.9 368.768 763.127C372.546 755.311 377.8 749.21 384.531 744.824C391.305 740.395 399.208 738.181 408.239 738.181C415.274 738.181 421.613 739.483 427.258 742.089C432.903 744.694 437.528 748.342 441.132 753.031C444.736 757.721 446.972 763.192 447.841 769.445H432.469C431.297 764.886 428.691 760.847 424.653 757.33C420.658 753.769 415.274 751.989 408.5 751.989C402.508 751.989 397.253 753.552 392.738 756.679C388.265 759.762 384.77 764.126 382.251 769.771C379.776 775.372 378.538 781.951 378.538 789.506C378.538 797.235 379.754 803.966 382.186 809.697C384.661 815.429 388.135 819.88 392.607 823.05C397.123 826.22 402.421 827.805 408.5 827.805C412.495 827.805 416.121 827.11 419.377 825.72C422.634 824.331 425.391 822.333 427.649 819.728C429.907 817.123 431.514 813.996 432.469 810.349H447.841C446.972 816.254 444.823 821.573 441.392 826.306C438.005 830.996 433.511 834.73 427.91 837.509C422.352 840.245 415.882 841.613 408.5 841.613ZM484.641 803.054L484.38 784.035H487.507L531.277 739.483H550.296L503.66 786.64H502.357L484.641 803.054ZM470.312 839.529V706.135H485.683V839.529H470.312ZM533.882 839.529L494.802 790.027L505.744 779.345L553.422 839.529H533.882ZM607.906 841.613C598.266 841.613 589.951 839.485 582.96 835.23C576.012 830.931 570.65 824.939 566.872 817.253C563.138 809.524 561.271 800.535 561.271 790.288C561.271 780.04 563.138 771.008 566.872 763.192C570.65 755.333 575.904 749.21 582.634 744.824C589.408 740.395 597.311 738.181 606.343 738.181C611.554 738.181 616.699 739.049 621.78 740.786C626.86 742.523 631.485 745.345 635.653 749.253C639.822 753.118 643.143 758.242 645.619 764.625C648.094 771.008 649.331 778.868 649.331 788.203V794.717H572.213V781.429H633.699C633.699 775.785 632.57 770.748 630.312 766.318C628.098 761.889 624.928 758.394 620.803 755.832C616.721 753.27 611.901 751.989 606.343 751.989C600.22 751.989 594.923 753.509 590.45 756.548C586.021 759.545 582.613 763.453 580.224 768.272C577.836 773.092 576.642 778.26 576.642 783.774V792.632C576.642 800.188 577.945 806.593 580.55 811.847C583.199 817.057 586.868 821.031 591.558 823.766C596.247 826.458 601.697 827.805 607.906 827.805C611.944 827.805 615.592 827.24 618.849 826.111C622.149 824.939 624.993 823.202 627.381 820.9C629.769 818.556 631.615 815.646 632.917 812.172L647.768 816.341C646.205 821.378 643.578 825.807 639.887 829.628C636.196 833.406 631.637 836.359 626.209 838.486C620.781 840.571 614.68 841.613 607.906 841.613ZM688.086 779.345V839.529H672.714V739.483H687.565V755.116H688.867C691.212 750.035 694.773 745.953 699.549 742.87C704.326 739.744 710.492 738.181 718.047 738.181C724.821 738.181 730.748 739.57 735.828 742.349C740.909 745.085 744.86 749.253 747.683 754.855C750.505 760.413 751.916 767.447 751.916 775.958V839.529H736.545V777C736.545 769.141 734.504 763.018 730.422 758.633C726.341 754.204 720.739 751.989 713.618 751.989C708.711 751.989 704.326 753.053 700.461 755.181C696.64 757.308 693.622 760.413 691.407 764.495C689.193 768.576 688.086 773.527 688.086 779.345ZM817.783 841.613C809.446 841.613 802.086 839.507 795.702 835.295C789.319 831.039 784.326 825.047 780.722 817.318C777.118 809.545 775.316 800.362 775.316 789.767C775.316 779.258 777.118 770.14 780.722 762.41C784.326 754.681 789.341 748.711 795.768 744.499C802.194 740.287 809.619 738.181 818.043 738.181C824.557 738.181 829.702 739.266 833.48 741.437C837.301 743.565 840.21 745.997 842.208 748.732C844.249 751.425 845.834 753.639 846.963 755.376H848.265V706.135H863.637V839.529H848.786V824.157H846.963C845.834 825.981 844.227 828.282 842.143 831.061C840.058 833.797 837.084 836.25 833.219 838.421C829.355 840.549 824.209 841.613 817.783 841.613ZM819.867 827.805C826.033 827.805 831.244 826.198 835.499 822.985C839.754 819.728 842.989 815.234 845.204 809.502C847.418 803.727 848.526 797.062 848.526 789.506C848.526 782.037 847.44 775.502 845.269 769.901C843.098 764.256 839.885 759.87 835.629 756.744C831.374 753.574 826.12 751.989 819.867 751.989C813.354 751.989 807.926 753.661 803.584 757.004C799.285 760.304 796.05 764.799 793.879 770.487C791.751 776.132 790.687 782.472 790.687 789.506C790.687 796.627 791.773 803.097 793.944 808.916C796.158 814.691 799.415 819.294 803.714 822.724C808.056 826.111 813.44 827.805 819.867 827.805Z" fill="url(#paint1_linear_105_296)"/>
<path d="M145 1139.71V975.097H243.704V992.78H164.934V1048.4H236.309V1066.08H164.934V1139.71H145ZM275.272 1139.71V1016.25H294.241V1139.71H275.272ZM284.918 995.674C281.22 995.674 278.032 994.414 275.353 991.896C272.727 989.377 271.414 986.35 271.414 982.813C271.414 979.277 272.727 976.249 275.353 973.731C278.032 971.212 281.22 969.953 284.918 969.953C288.615 969.953 291.776 971.212 294.402 973.731C297.081 976.249 298.421 979.277 298.421 982.813C298.421 986.35 297.081 989.377 294.402 991.896C291.776 994.414 288.615 995.674 284.918 995.674ZM328.984 1139.71V1016.25H347.311V1034.9H348.597C350.847 1028.79 354.92 1023.83 360.814 1020.03C366.708 1016.22 373.353 1014.32 380.748 1014.32C382.141 1014.32 383.882 1014.35 385.972 1014.4C388.062 1014.46 389.643 1014.54 390.714 1014.64V1033.93C390.071 1033.77 388.598 1033.53 386.294 1033.21C384.043 1032.83 381.659 1032.65 379.14 1032.65C373.139 1032.65 367.78 1033.91 363.065 1036.43C358.403 1038.89 354.705 1042.32 351.972 1046.71C349.293 1051.05 347.954 1056.01 347.954 1061.58V1139.71H328.984ZM461.206 1142.28C449.31 1142.28 439.048 1139.66 430.421 1134.41C421.847 1129.1 415.23 1121.71 410.568 1112.22C405.959 1102.68 403.655 1091.59 403.655 1078.94C403.655 1066.3 405.959 1055.15 410.568 1045.51C415.23 1035.81 421.713 1028.25 430.019 1022.84C438.378 1017.38 448.131 1014.64 459.277 1014.64C465.707 1014.64 472.057 1015.71 478.326 1017.86C484.595 1020 490.302 1023.48 495.446 1028.31C500.591 1033.08 504.69 1039.4 507.744 1047.28C510.799 1055.15 512.326 1064.85 512.326 1076.37V1084.41H417.159V1068.01H493.035C493.035 1061.05 491.642 1054.83 488.855 1049.37C486.123 1043.9 482.211 1039.59 477.12 1036.43C472.083 1033.26 466.135 1031.68 459.277 1031.68C451.721 1031.68 445.184 1033.56 439.664 1037.31C434.199 1041.01 429.992 1045.83 427.045 1051.78C424.098 1057.73 422.624 1064.1 422.624 1070.91V1081.84C422.624 1091.16 424.232 1099.07 427.447 1105.55C430.716 1111.98 435.244 1116.88 441.031 1120.26C446.818 1123.58 453.543 1125.24 461.206 1125.24C466.189 1125.24 470.69 1124.55 474.709 1123.15C478.781 1121.71 482.291 1119.56 485.238 1116.72C488.186 1113.83 490.463 1110.24 492.071 1105.95L510.397 1111.1C508.468 1117.31 505.226 1122.78 500.671 1127.49C496.116 1132.15 490.49 1135.8 483.792 1138.42C477.094 1141 469.565 1142.28 461.206 1142.28ZM543.753 1139.71V975.097H562.722V1035.86H564.33C565.723 1033.72 567.652 1030.99 570.117 1027.66C572.636 1024.29 576.226 1021.29 580.888 1018.66C585.603 1015.98 591.98 1014.64 600.018 1014.64C610.413 1014.64 619.576 1017.24 627.507 1022.44C635.437 1027.64 641.626 1035.01 646.074 1044.54C650.521 1054.08 652.745 1065.33 652.745 1078.3C652.745 1091.38 650.521 1102.71 646.074 1112.3C641.626 1121.84 635.464 1129.23 627.587 1134.49C619.71 1139.68 610.627 1142.28 600.339 1142.28C592.409 1142.28 586.059 1140.97 581.29 1138.34C576.521 1135.66 572.85 1132.64 570.278 1129.26C567.706 1125.83 565.723 1122.99 564.33 1120.74H562.079V1139.71H543.753ZM562.401 1077.98C562.401 1087.3 563.767 1095.53 566.5 1102.66C569.233 1109.73 573.225 1115.28 578.476 1119.29C583.728 1123.26 590.158 1125.24 597.767 1125.24C605.698 1125.24 612.315 1123.15 617.62 1118.97C622.979 1114.74 626.998 1109.06 629.677 1101.93C632.41 1094.75 633.776 1086.77 633.776 1077.98C633.776 1069.3 632.437 1061.48 629.757 1054.51C627.132 1047.49 623.14 1041.94 617.781 1037.87C612.476 1033.75 605.805 1031.68 597.767 1031.68C590.051 1031.68 583.567 1033.64 578.316 1037.55C573.064 1041.41 569.099 1046.82 566.42 1053.79C563.741 1060.7 562.401 1068.76 562.401 1077.98ZM718.092 1142.6C710.269 1142.6 703.169 1141.13 696.792 1138.18C690.415 1135.18 685.352 1130.87 681.601 1125.24C677.85 1119.56 675.974 1112.7 675.974 1104.67C675.974 1097.59 677.368 1091.86 680.154 1087.46C682.94 1083.02 686.665 1079.53 691.326 1077.02C695.988 1074.5 701.133 1072.62 706.759 1071.39C712.439 1070.1 718.146 1069.09 723.879 1068.33C731.381 1067.37 737.463 1066.65 742.125 1066.16C746.841 1065.63 750.27 1064.74 752.413 1063.51C754.61 1062.28 755.709 1060.14 755.709 1057.08V1056.44C755.709 1048.51 753.539 1042.35 749.198 1037.95C744.911 1033.56 738.401 1031.36 729.667 1031.36C720.611 1031.36 713.511 1033.34 708.366 1037.31C703.222 1041.27 699.605 1045.51 697.516 1050.01L679.511 1043.58C682.726 1036.08 687.013 1030.24 692.371 1026.06C697.783 1021.82 703.678 1018.88 710.054 1017.21C716.485 1015.5 722.808 1014.64 729.024 1014.64C732.989 1014.64 737.544 1015.13 742.688 1016.09C747.885 1017 752.896 1018.9 757.718 1021.8C762.595 1024.69 766.64 1029.06 769.855 1034.9C773.07 1040.74 774.678 1048.56 774.678 1058.37V1139.71H755.709V1122.99H754.744C753.458 1125.67 751.315 1128.54 748.314 1131.59C745.313 1134.65 741.321 1137.25 736.338 1139.39C731.354 1141.53 725.273 1142.6 718.092 1142.6ZM720.986 1125.56C728.488 1125.56 734.811 1124.09 739.955 1121.14C745.153 1118.2 749.064 1114.39 751.69 1109.73C754.369 1105.07 755.709 1100.16 755.709 1095.02V1077.66C754.905 1078.62 753.137 1079.51 750.404 1080.31C747.725 1081.06 744.617 1081.73 741.08 1082.32C737.597 1082.86 734.194 1083.34 730.872 1083.77C727.604 1084.14 724.951 1084.46 722.915 1084.73C717.985 1085.37 713.377 1086.42 709.09 1087.87C704.857 1089.26 701.427 1091.38 698.802 1094.22C696.229 1097 694.943 1100.81 694.943 1105.63C694.943 1112.22 697.382 1117.2 702.258 1120.58C707.188 1123.9 713.43 1125.56 720.986 1125.56ZM896.751 1043.9L879.711 1048.72C878.64 1045.88 877.059 1043.12 874.969 1040.44C872.933 1037.71 870.146 1035.46 866.61 1033.69C863.073 1031.92 858.545 1031.04 853.026 1031.04C845.471 1031.04 839.174 1032.78 834.137 1036.26C829.154 1039.69 826.662 1044.06 826.662 1049.37C826.662 1054.08 828.377 1057.81 831.806 1060.54C835.236 1063.27 840.594 1065.55 847.882 1067.37L866.208 1071.87C877.246 1074.55 885.472 1078.65 890.884 1084.17C896.296 1089.63 899.002 1096.68 899.002 1105.31C899.002 1112.38 896.966 1118.7 892.893 1124.28C888.874 1129.85 883.248 1134.24 876.014 1137.46C868.78 1140.67 860.367 1142.28 850.775 1142.28C838.183 1142.28 827.761 1139.55 819.509 1134.08C811.256 1128.62 806.032 1120.63 803.835 1110.13L821.84 1105.63C823.554 1112.27 826.796 1117.26 831.565 1120.58C836.388 1123.9 842.684 1125.56 850.454 1125.56C859.295 1125.56 866.315 1123.69 871.513 1119.94C876.764 1116.13 879.39 1111.58 879.39 1106.27C879.39 1101.99 877.889 1098.4 874.889 1095.5C871.888 1092.56 867.28 1090.36 861.064 1088.91L840.487 1084.09C829.181 1081.41 820.875 1077.26 815.57 1071.63C810.319 1065.95 807.693 1058.85 807.693 1050.33C807.693 1043.36 809.649 1037.2 813.561 1031.84C817.526 1026.49 822.911 1022.28 829.717 1019.22C836.575 1016.17 844.345 1014.64 853.026 1014.64C865.243 1014.64 874.835 1017.32 881.801 1022.68C888.821 1028.04 893.804 1035.11 896.751 1043.9ZM979.319 1142.28C967.423 1142.28 957.162 1139.66 948.535 1134.41C939.961 1129.1 933.343 1121.71 928.681 1112.22C924.073 1102.68 921.769 1091.59 921.769 1078.94C921.769 1066.3 924.073 1055.15 928.681 1045.51C933.343 1035.81 939.827 1028.25 948.133 1022.84C956.492 1017.38 966.244 1014.64 977.39 1014.64C983.82 1014.64 990.17 1015.71 996.44 1017.86C1002.71 1020 1008.42 1023.48 1013.56 1028.31C1018.7 1033.08 1022.8 1039.4 1025.86 1047.28C1028.91 1055.15 1030.44 1064.85 1030.44 1076.37V1084.41H935.272V1068.01H1011.15C1011.15 1061.05 1009.76 1054.83 1006.97 1049.37C1004.24 1043.9 1000.32 1039.59 995.234 1036.43C990.197 1033.26 984.249 1031.68 977.39 1031.68C969.835 1031.68 963.297 1033.56 957.778 1037.31C952.312 1041.01 948.106 1045.83 945.159 1051.78C942.212 1057.73 940.738 1064.1 940.738 1070.91V1081.84C940.738 1091.16 942.346 1099.07 945.561 1105.55C948.829 1111.98 953.357 1116.88 959.144 1120.26C964.932 1123.58 971.657 1125.24 979.319 1125.24C984.303 1125.24 988.804 1124.55 992.823 1123.15C996.895 1121.71 1000.4 1119.56 1003.35 1116.72C1006.3 1113.83 1008.58 1110.24 1010.18 1105.95L1028.51 1111.1C1026.58 1117.31 1023.34 1122.78 1018.78 1127.49C1014.23 1132.15 1008.6 1135.8 1001.91 1138.42C995.207 1141 987.678 1142.28 979.319 1142.28Z" fill="url(#paint2_linear_105_296)"/>
<path d="M1620.67 487.417L1463.62 565.937C1460.65 567.426 1457.36 568.18 1454.03 568.137C1450.7 568.093 1447.44 567.254 1444.5 565.687L1297.75 487.417L1568.58 216.583L1620.67 487.417Z" stroke="white" stroke-width="4" stroke-linejoin="round"/>
<path d="M1297.75 487.417L1454 195.75L1504.79 280.396" stroke="white" stroke-width="4" stroke-linejoin="round"/>
<path d="M1297.75 487.417L1349.83 133.25L1427.44 245.333" stroke="white" stroke-width="4" stroke-linejoin="round"/>
<path d="M0 0H568.519C568.519 0 852.779 488.931 568.519 566.877C284.26 644.822 0 566.877 0 566.877V0Z" fill="#9C9B9B"/>
</g>
<defs>
<linearGradient id="paint0_linear_105_296" x1="2069" y1="1143" x2="4.52331e-05" y2="607.668" gradientUnits="userSpaceOnUse">
<stop stop-color="#B91C1C"/>
<stop offset="0.0001" stop-color="#7B4426"/>
<stop offset="0.490385" stop-color="#435122"/>
<stop offset="0.836538" stop-color="#1F3D0D"/>
</linearGradient>
<linearGradient id="paint1_linear_105_296" x1="505.5" y1="661.529" x2="505.5" y2="883.529" gradientUnits="userSpaceOnUse">
<stop offset="1" stop-color="white"/>
</linearGradient>
<linearGradient id="paint2_linear_105_296" x1="583.5" y1="920.71" x2="583.5" y2="1194.71" gradientUnits="userSpaceOnUse">
<stop offset="1" stop-color="white"/>
</linearGradient>
<clipPath id="clip0_105_296">
<rect width="1920" height="1440" fill="white"/>
</clipPath>
</defs>
</svg>
