<svg width="1920" height="1440" viewBox="0 0 1920 1440" fill="none" xmlns="http://www.w3.org/2000/svg">
<g clip-path="url(#clip0_105_153)">
<rect width="1920" height="1440" fill="url(#paint0_linear_105_153)"/>
<path d="M140.155 720.464V706.135H240.2V720.464H198.254V839.529H182.101V720.464H140.155ZM289.181 841.613C280.149 841.613 272.224 839.463 265.407 835.165C258.633 830.866 253.336 824.852 249.514 817.123C245.737 809.393 243.848 800.362 243.848 790.027C243.848 779.606 245.737 770.509 249.514 762.736C253.336 754.964 258.633 748.928 265.407 744.629C272.224 740.33 280.149 738.181 289.181 738.181C298.213 738.181 306.115 740.33 312.889 744.629C319.707 748.928 325.004 754.964 328.782 762.736C332.603 770.509 334.514 779.606 334.514 790.027C334.514 800.362 332.603 809.393 328.782 817.123C325.004 824.852 319.707 830.866 312.889 835.165C306.115 839.463 298.213 841.613 289.181 841.613ZM289.181 827.805C296.041 827.805 301.686 826.046 306.115 822.529C310.545 819.012 313.823 814.387 315.951 808.655C318.078 802.924 319.142 796.714 319.142 790.027C319.142 783.34 318.078 777.109 315.951 771.334C313.823 765.559 310.545 760.891 306.115 757.33C301.686 753.769 296.041 751.989 289.181 751.989C282.32 751.989 276.675 753.769 272.246 757.33C267.817 760.891 264.539 765.559 262.411 771.334C260.283 777.109 259.219 783.34 259.219 790.027C259.219 796.714 260.283 802.924 262.411 808.655C264.539 814.387 267.817 819.012 272.246 822.529C276.675 826.046 282.32 827.805 289.181 827.805ZM398.621 841.613C389.589 841.613 381.665 839.463 374.848 835.165C368.074 830.866 362.776 824.852 358.955 817.123C355.177 809.393 353.288 800.362 353.288 790.027C353.288 779.606 355.177 770.509 358.955 762.736C362.776 754.964 368.074 748.928 374.848 744.629C381.665 740.33 389.589 738.181 398.621 738.181C407.653 738.181 415.556 740.33 422.33 744.629C429.147 748.928 434.445 754.964 438.223 762.736C442.044 770.509 443.954 779.606 443.954 790.027C443.954 800.362 442.044 809.393 438.223 817.123C434.445 824.852 429.147 830.866 422.33 835.165C415.556 839.463 407.653 841.613 398.621 841.613ZM398.621 827.805C405.482 827.805 411.127 826.046 415.556 822.529C419.985 819.012 423.264 814.387 425.391 808.655C427.519 802.924 428.583 796.714 428.583 790.027C428.583 783.34 427.519 777.109 425.391 771.334C423.264 765.559 419.985 760.891 415.556 757.33C411.127 753.769 405.482 751.989 398.621 751.989C391.761 751.989 386.116 753.769 381.687 757.33C377.258 760.891 373.979 765.559 371.851 771.334C369.724 777.109 368.66 783.34 368.66 790.027C368.66 796.714 369.724 802.924 371.851 808.655C373.979 814.387 377.258 819.012 381.687 822.529C386.116 826.046 391.761 827.805 398.621 827.805ZM482.79 706.135V839.529H467.419V706.135H482.79ZM581.809 761.889L568.001 765.797C567.133 763.496 565.852 761.26 564.158 759.089C562.508 756.874 560.25 755.05 557.384 753.617C554.518 752.184 550.849 751.468 546.377 751.468C540.254 751.468 535.152 752.879 531.07 755.702C527.032 758.481 525.013 762.02 525.013 766.318C525.013 770.14 526.402 773.157 529.181 775.372C531.961 777.587 536.303 779.432 542.208 780.908L557.059 784.556C566.004 786.727 572.669 790.049 577.055 794.521C581.44 798.95 583.633 804.66 583.633 811.651C583.633 817.383 581.983 822.507 578.683 827.023C575.426 831.539 570.867 835.099 565.005 837.705C559.143 840.31 552.326 841.613 544.553 841.613C534.349 841.613 525.903 839.398 519.216 834.969C512.529 830.54 508.295 824.07 506.515 815.559L521.105 811.912C522.494 817.296 525.121 821.335 528.986 824.027C532.894 826.719 537.996 828.065 544.292 828.065C551.457 828.065 557.145 826.545 561.357 823.506C565.613 820.423 567.741 816.732 567.741 812.433C567.741 808.959 566.525 806.05 564.093 803.705C561.661 801.317 557.927 799.537 552.89 798.364L536.216 794.456C527.054 792.285 520.323 788.92 516.025 784.36C511.769 779.758 509.641 774.004 509.641 767.1C509.641 761.455 511.226 756.462 514.396 752.119C517.609 747.777 521.973 744.368 527.488 741.893C533.046 739.418 539.342 738.181 546.377 738.181C556.277 738.181 564.05 740.352 569.695 744.694C575.383 749.036 579.421 754.768 581.809 761.889Z" fill="url(#paint1_linear_105_153)"/>
<g clip-path="url(#clip1_105_153)">
<path d="M249.379 1026.83C247.611 1021.42 245.28 1016.57 242.387 1012.28C239.547 1007.94 236.144 1004.24 232.179 1001.19C228.267 998.134 223.819 995.803 218.836 994.195C213.853 992.588 208.387 991.784 202.439 991.784C192.686 991.784 183.818 994.302 175.834 999.339C167.85 1004.38 161.5 1011.8 156.785 1021.6C152.069 1031.41 149.711 1043.44 149.711 1057.69C149.711 1071.95 152.096 1083.98 156.865 1093.78C161.634 1103.59 168.091 1111.01 176.236 1116.05C184.381 1121.08 193.544 1123.6 203.725 1123.6C213.156 1123.6 221.462 1121.59 228.642 1117.57C235.876 1113.5 241.502 1107.77 245.521 1100.37C249.594 1092.93 251.63 1084.16 251.63 1074.09L257.739 1075.38H208.226V1057.69H270.921V1075.38C270.921 1088.93 268.027 1100.72 262.24 1110.74C256.506 1120.76 248.576 1128.53 238.448 1134.05C228.374 1139.52 216.8 1142.25 203.725 1142.25C189.15 1142.25 176.343 1138.82 165.305 1131.96C154.32 1125.1 145.746 1115.35 139.584 1102.7C133.475 1090.06 130.421 1075.05 130.421 1057.69C130.421 1044.67 132.162 1032.96 135.645 1022.57C139.182 1012.12 144.165 1003.22 150.595 995.883C157.026 988.542 164.635 982.915 173.423 979.004C182.211 975.092 191.883 973.136 202.439 973.136C211.12 973.136 219.211 974.449 226.713 977.075C234.268 979.647 240.993 983.317 246.888 988.086C252.836 992.802 257.792 998.455 261.758 1005.05C265.723 1011.58 268.456 1018.84 269.956 1026.83H249.379ZM310.225 1140V1016.54H329.194V1140H310.225ZM319.871 995.963C316.173 995.963 312.985 994.704 310.306 992.186C307.68 989.667 306.367 986.64 306.367 983.103C306.367 979.566 307.68 976.539 310.306 974.02C312.985 971.502 316.173 970.243 319.871 970.243C323.568 970.243 326.729 971.502 329.355 974.02C332.034 976.539 333.374 979.566 333.374 983.103C333.374 986.64 332.034 989.667 329.355 992.186C326.729 994.704 323.568 995.963 319.871 995.963ZM417.63 1016.54V1032.62H353.649V1016.54H417.63ZM372.297 986.961H391.266V1104.63C391.266 1109.99 392.043 1114.01 393.597 1116.69C395.204 1119.32 397.241 1121.08 399.706 1122C402.224 1122.85 404.877 1123.28 407.663 1123.28C409.753 1123.28 411.467 1123.17 412.807 1122.96C414.147 1122.69 415.218 1122.48 416.022 1122.32L419.88 1139.36C418.594 1139.84 416.799 1140.32 414.495 1140.8C412.191 1141.34 409.27 1141.61 405.734 1141.61C400.375 1141.61 395.124 1140.46 389.98 1138.15C384.889 1135.85 380.656 1132.34 377.28 1127.62C373.958 1122.91 372.297 1116.96 372.297 1109.78V986.961ZM556.442 1142.25C545.618 1142.25 536.294 1140.27 528.47 1136.3C520.647 1132.34 514.619 1126.9 510.385 1119.99C506.152 1113.07 504.036 1105.17 504.036 1096.27C504.036 1089.42 505.482 1083.33 508.376 1078.03C511.323 1072.67 515.369 1067.71 520.513 1063.16C525.711 1058.55 531.685 1053.94 538.437 1049.33L562.229 1031.65C566.891 1028.6 570.615 1025.33 573.401 1021.85C576.241 1018.36 577.661 1013.81 577.661 1008.18C577.661 1004 575.813 999.956 572.115 996.044C568.472 992.132 563.676 990.176 557.728 990.176C553.548 990.176 549.851 991.248 546.636 993.391C543.474 995.481 540.982 998.16 539.161 1001.43C537.392 1004.64 536.508 1007.97 536.508 1011.4C536.508 1015.25 537.553 1019.17 539.643 1023.13C541.786 1027.04 544.492 1031.06 547.761 1035.19C551.083 1039.26 554.513 1043.44 558.049 1047.73L633.604 1140H610.777L548.404 1064.77C542.617 1057.8 537.365 1051.48 532.65 1045.8C527.935 1040.12 524.184 1034.52 521.397 1029C518.611 1023.48 517.217 1017.5 517.217 1011.07C517.217 1003.68 518.852 997.196 522.121 991.623C525.443 985.997 530.078 981.629 536.026 978.522C542.027 975.36 549.047 973.779 557.085 973.779C565.337 973.779 572.437 975.387 578.385 978.602C584.333 981.763 588.914 985.97 592.129 991.221C595.344 996.419 596.952 1002.07 596.952 1008.18C596.952 1016.06 594.996 1022.89 591.084 1028.68C587.173 1034.46 581.841 1039.85 575.089 1044.83L542.295 1069.27C534.901 1074.73 529.89 1080.04 527.265 1085.18C524.639 1090.33 523.326 1094.02 523.326 1096.27C523.326 1101.42 524.666 1106.21 527.345 1110.66C530.024 1115.11 533.802 1118.7 538.678 1121.43C543.555 1124.17 549.261 1125.53 555.799 1125.53C562.015 1125.53 568.07 1124.22 573.964 1121.59C579.858 1118.91 585.19 1115.06 589.959 1110.02C594.782 1104.98 598.586 1098.93 601.373 1091.85C604.213 1084.78 605.633 1076.82 605.633 1067.98H623.959C623.959 1078.91 622.7 1087.83 620.181 1094.75C617.663 1101.66 614.823 1107.07 611.661 1110.98C608.5 1114.9 605.954 1117.82 604.025 1119.74C603.382 1120.55 602.793 1121.35 602.257 1122.16C601.721 1122.96 601.132 1123.76 600.489 1124.57C595.184 1130.52 588.486 1134.96 580.394 1137.91C572.303 1140.8 564.319 1142.25 556.442 1142.25ZM833.362 1026.83C831.594 1021.42 829.263 1016.57 826.37 1012.28C823.53 1007.94 820.127 1004.24 816.162 1001.19C812.25 998.134 807.802 995.803 802.819 994.195C797.836 992.588 792.37 991.784 786.422 991.784C776.67 991.784 767.801 994.302 759.817 999.339C751.833 1004.38 745.483 1011.8 740.768 1021.6C736.052 1031.41 733.694 1043.44 733.694 1057.69C733.694 1071.95 736.079 1083.98 740.848 1093.78C745.617 1103.59 752.074 1111.01 760.219 1116.05C768.364 1121.08 777.527 1123.6 787.708 1123.6C797.139 1123.6 805.445 1121.59 812.625 1117.57C819.859 1113.5 825.485 1107.77 829.504 1100.37C833.577 1092.93 835.613 1084.16 835.613 1074.09L841.722 1075.38H792.209V1057.69H854.904V1075.38C854.904 1088.93 852.01 1100.72 846.223 1110.74C840.489 1120.76 832.559 1128.53 822.431 1134.05C812.357 1139.52 800.783 1142.25 787.708 1142.25C773.133 1142.25 760.326 1138.82 749.288 1131.96C738.303 1125.1 729.729 1115.35 723.567 1102.7C717.458 1090.06 714.404 1075.05 714.404 1057.69C714.404 1044.67 716.145 1032.96 719.628 1022.57C723.165 1012.12 728.148 1003.22 734.578 995.883C741.009 988.542 748.618 982.915 757.406 979.004C766.194 975.092 775.866 973.136 786.422 973.136C795.103 973.136 803.194 974.449 810.696 977.075C818.251 979.647 824.976 983.317 830.871 988.086C836.819 992.802 841.775 998.455 845.741 1005.05C849.706 1011.58 852.439 1018.84 853.939 1026.83H833.362ZM894.208 1140V1016.54H913.177V1140H894.208ZM903.854 995.963C900.156 995.963 896.968 994.704 894.289 992.186C891.663 989.667 890.35 986.64 890.35 983.103C890.35 979.566 891.663 976.539 894.289 974.02C896.968 971.502 900.156 970.243 903.854 970.243C907.551 970.243 910.712 971.502 913.338 974.02C916.017 976.539 917.357 979.566 917.357 983.103C917.357 986.64 916.017 989.667 913.338 992.186C910.712 994.704 907.551 995.963 903.854 995.963ZM1001.61 1016.54V1032.62H937.632V1016.54H1001.61ZM956.28 986.961H975.249V1104.63C975.249 1109.99 976.026 1114.01 977.58 1116.69C979.187 1119.32 981.224 1121.08 983.689 1122C986.207 1122.85 988.86 1123.28 991.646 1123.28C993.736 1123.28 995.45 1123.17 996.79 1122.96C998.13 1122.69 999.201 1122.48 1000.01 1122.32L1003.86 1139.36C1002.58 1139.84 1000.78 1140.32 998.478 1140.8C996.174 1141.34 993.254 1141.61 989.717 1141.61C984.358 1141.61 979.107 1140.46 973.963 1138.15C968.872 1135.85 964.639 1132.34 961.263 1127.62C957.941 1122.91 956.28 1116.96 956.28 1109.78V986.961ZM1035.37 1140V975.387H1055.31V1048.69H1143.08V975.387H1163.01V1140H1143.08V1066.37H1055.31V1140H1035.37ZM1278.15 1089.52V1016.54H1297.12V1140H1278.15V1119.1H1276.87C1273.97 1125.37 1269.47 1130.7 1263.36 1135.1C1257.25 1139.44 1249.54 1141.61 1240.21 1141.61C1232.5 1141.61 1225.64 1139.92 1219.64 1136.54C1213.64 1133.11 1208.92 1127.97 1205.49 1121.11C1202.06 1114.2 1200.35 1105.49 1200.35 1094.99V1016.54H1219.32V1093.7C1219.32 1102.7 1221.83 1109.89 1226.87 1115.24C1231.96 1120.6 1238.45 1123.28 1246.32 1123.28C1251.04 1123.28 1255.83 1122.08 1260.71 1119.66C1265.64 1117.25 1269.77 1113.56 1273.09 1108.57C1276.46 1103.59 1278.15 1097.24 1278.15 1089.52ZM1334.44 1140V975.387H1353.41V1036.15H1355.01C1356.41 1034.01 1358.33 1031.28 1360.8 1027.95C1363.32 1024.58 1366.91 1021.58 1371.57 1018.95C1376.29 1016.27 1382.66 1014.93 1390.7 1014.93C1401.1 1014.93 1410.26 1017.53 1418.19 1022.73C1426.12 1027.93 1432.31 1035.29 1436.76 1044.83C1441.2 1054.37 1443.43 1065.62 1443.43 1078.59C1443.43 1091.67 1441.2 1103 1436.76 1112.59C1432.31 1122.13 1426.15 1129.52 1418.27 1134.78C1410.39 1139.97 1401.31 1142.57 1391.02 1142.57C1383.09 1142.57 1376.74 1141.26 1371.97 1138.63C1367.2 1135.95 1363.53 1132.93 1360.96 1129.55C1358.39 1126.12 1356.41 1123.28 1355.01 1121.03H1352.76V1140H1334.44ZM1353.08 1078.27C1353.08 1087.59 1354.45 1095.82 1357.18 1102.95C1359.92 1110.02 1363.91 1115.57 1369.16 1119.58C1374.41 1123.55 1380.84 1125.53 1388.45 1125.53C1396.38 1125.53 1403 1123.44 1408.3 1119.26C1413.66 1115.03 1417.68 1109.35 1420.36 1102.22C1423.09 1095.04 1424.46 1087.06 1424.46 1078.27C1424.46 1069.59 1423.12 1061.77 1420.44 1054.8C1417.81 1047.78 1413.82 1042.23 1408.46 1038.16C1403.16 1034.04 1396.49 1031.97 1388.45 1031.97C1380.73 1031.97 1374.25 1033.93 1369 1037.84C1363.75 1041.7 1359.78 1047.11 1357.1 1054.08C1354.42 1060.99 1353.08 1069.05 1353.08 1078.27Z" fill="url(#paint2_linear_105_153)"/>
</g>
<path d="M1454 128.042C1400.8 128.014 1349.33 146.925 1308.8 181.387C1268.28 215.849 1241.34 263.612 1232.82 316.123C1224.3 368.634 1234.74 422.464 1262.29 467.974C1289.84 513.484 1332.69 547.702 1383.17 564.5C1394.42 566.583 1398.48 559.708 1398.48 554.083V516.063C1335.98 529.604 1323.06 486.063 1323.06 486.063C1318.93 472.286 1309.93 460.478 1297.75 452.833C1277.44 438.979 1299.31 439.187 1299.31 439.187C1306.41 440.181 1313.18 442.78 1319.12 446.787C1325.06 450.795 1330.01 456.105 1333.58 462.313C1353.58 496.583 1385.67 486.688 1398.79 480.958C1399.82 469.577 1404.88 458.937 1413.06 450.958C1363.27 445.333 1310.98 426.167 1310.98 340.333C1310.66 318.068 1318.94 296.538 1334.1 280.229C1327.21 260.922 1327.99 239.705 1336.29 220.958C1336.29 220.958 1355.04 214.917 1397.85 243.875C1434.55 233.875 1473.25 233.875 1509.94 243.875C1552.75 214.917 1571.5 220.958 1571.5 220.958C1579.73 239.72 1580.52 260.912 1573.69 280.229C1588.83 296.543 1597.08 318.079 1596.71 340.333C1596.71 426.375 1544.62 445.229 1494.52 450.854C1499.9 456.301 1504.04 462.842 1506.66 470.032C1509.29 477.221 1510.33 484.891 1509.73 492.521V553.979C1509.73 561.375 1513.79 566.896 1525.15 564.396C1575.57 547.532 1618.35 513.279 1645.83 467.763C1673.32 422.247 1683.71 368.437 1675.15 315.96C1666.6 263.483 1639.65 215.762 1599.13 181.333C1558.62 146.905 1507.17 128.014 1454 128.042Z" stroke="white" stroke-width="2" stroke-linecap="round" stroke-linejoin="round"/>
<path d="M0 0H568.519C568.519 0 852.779 488.931 568.519 566.877C284.26 644.822 0 566.877 0 566.877V0Z" fill="#166060"/>
</g>
<defs>
<linearGradient id="paint0_linear_105_153" x1="2069" y1="1143" x2="4.52331e-05" y2="607.668" gradientUnits="userSpaceOnUse">
<stop stop-color="#0891A1"/>
<stop offset="0.0001" stop-color="#282724"/>
<stop offset="0.490385" stop-color="#154A6C"/>
<stop offset="0.836538" stop-color="#262F20"/>
</linearGradient>
<linearGradient id="paint1_linear_105_153" x1="362" y1="661.529" x2="362" y2="883.529" gradientUnits="userSpaceOnUse">
<stop offset="1" stop-color="white"/>
</linearGradient>
<linearGradient id="paint2_linear_105_153" x1="786" y1="921" x2="786" y2="1195" gradientUnits="userSpaceOnUse">
<stop offset="1" stop-color="white"/>
</linearGradient>
<clipPath id="clip0_105_153">
<rect width="1920" height="1440" fill="white"/>
</clipPath>
<clipPath id="clip1_105_153">
<rect width="1324.25" height="348" fill="white" transform="translate(125 884)"/>
</clipPath>
</defs>
</svg>
