<svg width="1920" height="1440" viewBox="0 0 1920 1440" fill="none" xmlns="http://www.w3.org/2000/svg">
<g clip-path="url(#clip0_105_127)">
<rect width="1920" height="1440" fill="url(#paint0_linear_105_127)"/>
<g clip-path="url(#clip1_105_127)">
<path d="M175.042 840L138.567 706.607H154.981L182.858 815.249H184.161L212.559 706.607H230.796L259.194 815.249H260.497L288.374 706.607H304.788L268.313 840H251.639L222.199 733.702H221.156L191.716 840H175.042ZM355.462 842.084C345.822 842.084 337.507 839.957 330.516 835.701C323.568 831.402 318.205 825.41 314.428 817.724C310.693 809.995 308.826 801.007 308.826 790.759C308.826 780.511 310.693 771.48 314.428 763.664C318.205 755.804 323.459 749.682 330.19 745.296C336.964 740.867 344.867 738.652 353.899 738.652C359.109 738.652 364.255 739.521 369.335 741.258C374.416 742.994 379.04 745.817 383.209 749.725C387.377 753.59 390.699 758.713 393.174 765.096C395.649 771.48 396.887 779.339 396.887 788.675V795.188H319.769V781.901H381.255C381.255 776.256 380.126 771.219 377.868 766.79C375.653 762.361 372.483 758.865 368.358 756.303C364.276 753.741 359.457 752.461 353.899 752.461C347.776 752.461 342.478 753.98 338.006 757.02C333.577 760.016 330.168 763.924 327.78 768.744C325.392 773.564 324.198 778.731 324.198 784.246V793.104C324.198 800.659 325.5 807.064 328.106 812.318C330.754 817.529 334.424 821.502 339.113 824.238C343.803 826.93 349.252 828.276 355.462 828.276C359.5 828.276 363.147 827.711 366.404 826.582C369.704 825.41 372.548 823.673 374.937 821.372C377.325 819.027 379.17 816.118 380.473 812.644L395.323 816.812C393.76 821.849 391.133 826.279 387.442 830.1C383.751 833.877 379.192 836.83 373.764 838.958C368.336 841.042 362.236 842.084 355.462 842.084ZM422.354 840V706.607H437.725V755.847H439.028C440.157 754.111 441.72 751.896 443.718 749.204C445.759 746.468 448.668 744.037 452.446 741.909C456.267 739.738 461.434 738.652 467.947 738.652C476.371 738.652 483.796 740.758 490.223 744.97C496.65 749.182 501.665 755.153 505.269 762.882C508.873 770.611 510.675 779.73 510.675 790.238C510.675 800.833 508.873 810.017 505.269 817.789C501.665 825.519 496.671 831.511 490.288 835.766C483.905 839.978 476.545 842.084 468.208 842.084C461.781 842.084 456.636 841.02 452.771 838.893C448.907 836.722 445.932 834.268 443.848 831.533C441.764 828.754 440.157 826.452 439.028 824.628H437.204V840H422.354ZM437.465 789.977C437.465 797.533 438.572 804.198 440.787 809.973C443.001 815.705 446.236 820.199 450.492 823.456C454.747 826.669 459.958 828.276 466.124 828.276C472.55 828.276 477.913 826.582 482.212 823.196C486.554 819.765 489.81 815.162 491.982 809.387C494.196 803.569 495.303 797.099 495.303 789.977C495.303 782.943 494.218 776.603 492.047 770.958C489.919 765.27 486.684 760.776 482.342 757.476C478.043 754.132 472.637 752.461 466.124 752.461C459.871 752.461 454.617 754.045 450.361 757.215C446.106 760.342 442.893 764.727 440.722 770.372C438.55 775.974 437.465 782.509 437.465 789.977ZM629.023 840H587.858V706.607H630.846C643.786 706.607 654.859 709.277 664.064 714.618C673.27 719.915 680.326 727.536 685.233 737.48C690.139 747.38 692.593 759.234 692.593 773.043C692.593 786.938 690.118 798.901 685.168 808.931C680.217 818.918 673.009 826.604 663.543 831.989C654.077 837.33 642.57 840 629.023 840ZM604.011 825.671H627.98C639.01 825.671 648.15 823.543 655.402 819.288C662.653 815.032 668.059 808.975 671.62 801.115C675.18 793.256 676.961 783.898 676.961 773.043C676.961 762.274 675.202 753.003 671.685 745.231C668.168 737.415 662.914 731.422 655.923 727.254C648.932 723.042 640.225 720.936 629.804 720.936H604.011V825.671ZM759.55 842.084C749.91 842.084 741.595 839.957 734.604 835.701C727.656 831.402 722.294 825.41 718.516 817.724C714.782 809.995 712.915 801.007 712.915 790.759C712.915 780.511 714.782 771.48 718.516 763.664C722.294 755.804 727.548 749.682 734.278 745.296C741.052 740.867 748.955 738.652 757.987 738.652C763.198 738.652 768.343 739.521 773.424 741.258C778.504 742.994 783.128 745.817 787.297 749.725C791.466 753.59 794.787 758.713 797.262 765.096C799.738 771.48 800.975 779.339 800.975 788.675V795.188H723.857V781.901H785.343C785.343 776.256 784.214 771.219 781.956 766.79C779.742 762.361 776.572 758.865 772.447 756.303C768.365 753.741 763.545 752.461 757.987 752.461C751.864 752.461 746.567 753.98 742.094 757.02C737.665 760.016 734.257 763.924 731.868 768.744C729.48 773.564 728.286 778.731 728.286 784.246V793.104C728.286 800.659 729.589 807.064 732.194 812.318C734.843 817.529 738.512 821.502 743.202 824.238C747.891 826.93 753.341 828.276 759.55 828.276C763.588 828.276 767.236 827.711 770.493 826.582C773.793 825.41 776.637 823.673 779.025 821.372C781.413 819.027 783.259 816.118 784.561 812.644L799.412 816.812C797.849 821.849 795.222 826.279 791.531 830.1C787.84 833.877 783.28 836.83 777.853 838.958C772.425 841.042 766.324 842.084 759.55 842.084ZM903.121 739.955L866.125 840H850.493L813.497 739.955H830.171L857.788 819.678H858.83L886.447 739.955H903.121Z" fill="url(#paint1_linear_105_127)"/>
</g>
<path d="M223.128 975.097H243.062V1092.77C243.062 1103.27 241.133 1112.19 237.275 1119.54C233.417 1126.88 227.978 1132.45 220.958 1136.25C213.939 1140.06 205.66 1141.96 196.121 1141.96C187.119 1141.96 179.108 1140.33 172.089 1137.06C165.069 1133.74 159.55 1129.02 155.531 1122.91C151.512 1116.8 149.503 1109.54 149.503 1101.13H169.115C169.115 1105.79 170.267 1109.86 172.571 1113.35C174.929 1116.78 178.144 1119.46 182.216 1121.38C186.289 1123.31 190.924 1124.28 196.121 1124.28C201.855 1124.28 206.731 1123.07 210.75 1120.66C214.769 1118.25 217.823 1114.71 219.913 1110.05C222.057 1105.34 223.128 1099.58 223.128 1092.77V975.097ZM316.768 1142.6C308.945 1142.6 301.845 1141.13 295.468 1138.18C289.092 1135.18 284.028 1130.87 280.277 1125.24C276.526 1119.56 274.65 1112.7 274.65 1104.67C274.65 1097.59 276.044 1091.86 278.83 1087.46C281.616 1083.02 285.341 1079.53 290.002 1077.02C294.664 1074.5 299.809 1072.62 305.435 1071.39C311.115 1070.1 316.822 1069.09 322.555 1068.33C330.057 1067.37 336.139 1066.65 340.801 1066.16C345.517 1065.63 348.946 1064.74 351.089 1063.51C353.286 1062.28 354.385 1060.14 354.385 1057.08V1056.44C354.385 1048.51 352.215 1042.35 347.874 1037.95C343.587 1033.56 337.077 1031.36 328.343 1031.36C319.287 1031.36 312.187 1033.34 307.043 1037.31C301.898 1041.27 298.281 1045.51 296.192 1050.01L278.187 1043.58C281.402 1036.08 285.689 1030.24 291.047 1026.06C296.459 1021.82 302.354 1018.88 308.73 1017.21C315.161 1015.5 321.484 1014.64 327.7 1014.64C331.665 1014.64 336.22 1015.13 341.364 1016.09C346.561 1017 351.572 1018.9 356.394 1021.8C361.271 1024.69 365.316 1029.06 368.531 1034.9C371.746 1040.74 373.354 1048.56 373.354 1058.37V1139.71H354.385V1122.99H353.42C352.134 1125.67 349.991 1128.54 346.99 1131.59C343.989 1134.65 339.997 1137.25 335.014 1139.39C330.03 1141.53 323.949 1142.6 316.768 1142.6ZM319.662 1125.56C327.164 1125.56 333.487 1124.09 338.631 1121.14C343.829 1118.2 347.74 1114.39 350.366 1109.73C353.045 1105.07 354.385 1100.16 354.385 1095.02V1077.66C353.581 1078.62 351.813 1079.51 349.08 1080.31C346.401 1081.06 343.293 1081.73 339.756 1082.32C336.273 1082.86 332.87 1083.34 329.548 1083.77C326.28 1084.14 323.627 1084.46 321.591 1084.73C316.661 1085.37 312.053 1086.42 307.766 1087.87C303.533 1089.26 300.103 1091.38 297.478 1094.22C294.905 1097 293.619 1100.81 293.619 1105.63C293.619 1112.22 296.058 1117.2 300.934 1120.58C305.864 1123.9 312.106 1125.56 319.662 1125.56ZM504.51 1016.25L458.856 1139.71H439.565L393.911 1016.25H414.487L448.567 1114.63H449.853L483.933 1016.25H504.51ZM562.121 1142.6C554.297 1142.6 547.197 1141.13 540.821 1138.18C534.444 1135.18 529.38 1130.87 525.629 1125.24C521.878 1119.56 520.003 1112.7 520.003 1104.67C520.003 1097.59 521.396 1091.86 524.182 1087.46C526.969 1083.02 530.693 1079.53 535.355 1077.02C540.017 1074.5 545.161 1072.62 550.787 1071.39C556.467 1070.1 562.174 1069.09 567.908 1068.33C575.41 1067.37 581.492 1066.65 586.154 1066.16C590.869 1065.63 594.298 1064.74 596.442 1063.51C598.639 1062.28 599.737 1060.14 599.737 1057.08V1056.44C599.737 1048.51 597.567 1042.35 593.227 1037.95C588.94 1033.56 582.429 1031.36 573.695 1031.36C564.639 1031.36 557.539 1033.34 552.395 1037.31C547.251 1041.27 543.634 1045.51 541.544 1050.01L523.539 1043.58C526.755 1036.08 531.041 1030.24 536.4 1026.06C541.812 1021.82 547.706 1018.88 554.083 1017.21C560.513 1015.5 566.836 1014.64 573.052 1014.64C577.017 1014.64 581.572 1015.13 586.716 1016.09C591.914 1017 596.924 1018.9 601.747 1021.8C606.623 1024.69 610.669 1029.06 613.884 1034.9C617.099 1040.74 618.706 1048.56 618.706 1058.37V1139.71H599.737V1122.99H598.773C597.487 1125.67 595.343 1128.54 592.343 1131.59C589.342 1134.65 585.35 1137.25 580.366 1139.39C575.383 1141.53 569.301 1142.6 562.121 1142.6ZM565.014 1125.56C572.516 1125.56 578.839 1124.09 583.983 1121.14C589.181 1118.2 593.093 1114.39 595.718 1109.73C598.398 1105.07 599.737 1100.16 599.737 1095.02V1077.66C598.934 1078.62 597.165 1079.51 594.432 1080.31C591.753 1081.06 588.645 1081.73 585.109 1082.32C581.626 1082.86 578.223 1083.34 574.901 1083.77C571.632 1084.14 568.98 1084.46 566.943 1084.73C562.013 1085.37 557.405 1086.42 553.118 1087.87C548.885 1089.26 545.456 1091.38 542.83 1094.22C540.258 1097 538.972 1100.81 538.972 1105.63C538.972 1112.22 541.41 1117.2 546.286 1120.58C551.216 1123.9 557.459 1125.56 565.014 1125.56ZM745.924 1016.25C744.959 1008.11 741.048 1001.78 734.189 997.281C727.33 992.78 718.917 990.529 708.95 990.529C701.663 990.529 695.286 991.708 689.82 994.066C684.408 996.424 680.175 999.666 677.121 1003.79C674.12 1007.92 672.62 1012.61 672.62 1017.86C672.62 1022.25 673.665 1026.03 675.754 1029.19C677.898 1032.3 680.631 1034.9 683.953 1036.99C687.275 1039.02 690.758 1040.71 694.402 1042.05C698.046 1043.34 701.395 1044.38 704.449 1045.19L721.168 1049.69C725.455 1050.81 730.224 1052.37 735.475 1054.35C740.78 1056.33 745.844 1059.04 750.666 1062.47C755.543 1065.84 759.561 1070.18 762.723 1075.49C765.884 1080.79 767.465 1087.3 767.465 1095.02C767.465 1103.92 765.134 1111.95 760.472 1119.13C755.864 1126.31 749.112 1132.02 740.217 1136.25C731.376 1140.49 720.632 1142.6 707.986 1142.6C696.197 1142.6 685.989 1140.7 677.362 1136.9C668.788 1133.09 662.037 1127.79 657.107 1120.98C652.231 1114.18 649.471 1106.27 648.828 1097.27H669.405C669.94 1103.49 672.03 1108.63 675.674 1112.7C679.371 1116.72 684.033 1119.72 689.66 1121.71C695.34 1123.63 701.448 1124.6 707.986 1124.6C715.595 1124.6 722.427 1123.37 728.482 1120.9C734.537 1118.38 739.333 1114.9 742.87 1110.45C746.406 1105.95 748.175 1100.7 748.175 1094.7C748.175 1089.23 746.647 1084.79 743.593 1081.36C740.539 1077.93 736.52 1075.14 731.536 1073C726.553 1070.85 721.168 1068.98 715.381 1067.37L695.125 1061.58C682.265 1057.89 672.084 1052.61 664.582 1045.75C657.08 1038.89 653.329 1029.91 653.329 1018.82C653.329 1009.61 655.821 1001.57 660.804 994.709C665.841 987.797 672.593 982.438 681.059 978.634C689.579 974.775 699.091 972.846 709.593 972.846C720.203 972.846 729.634 974.749 737.886 978.553C746.138 982.304 752.676 987.448 757.498 993.986C762.375 1000.52 764.947 1007.94 765.215 1016.25H745.924ZM847.823 1142.28C836.248 1142.28 826.281 1139.55 817.922 1134.08C809.563 1128.62 803.133 1121.09 798.632 1111.5C794.13 1101.91 791.88 1090.95 791.88 1078.62C791.88 1066.08 794.184 1055.02 798.792 1045.43C803.454 1035.78 809.938 1028.25 818.244 1022.84C826.603 1017.38 836.355 1014.64 847.501 1014.64C856.182 1014.64 864.005 1016.25 870.971 1019.47C877.937 1022.68 883.644 1027.18 888.092 1032.97C892.539 1038.76 895.299 1045.51 896.371 1053.22H877.402C875.955 1047.6 872.74 1042.61 867.756 1038.27C862.826 1033.88 856.182 1031.68 847.823 1031.68C840.428 1031.68 833.944 1033.61 828.371 1037.47C822.852 1041.27 818.538 1046.66 815.43 1053.63C812.376 1060.54 810.849 1068.66 810.849 1077.98C810.849 1087.52 812.349 1095.82 815.35 1102.9C818.404 1109.97 822.691 1115.46 828.211 1119.37C833.783 1123.29 840.321 1125.24 847.823 1125.24C852.752 1125.24 857.227 1124.38 861.246 1122.67C865.265 1120.96 868.667 1118.49 871.454 1115.28C874.24 1112.06 876.223 1108.2 877.402 1103.7H896.371C895.299 1110.99 892.646 1117.55 888.413 1123.39C884.234 1129.18 878.688 1133.79 871.775 1137.22C864.916 1140.59 856.932 1142.28 847.823 1142.28ZM924.101 1139.71V1016.25H942.427V1034.9H943.713C945.964 1028.79 950.036 1023.83 955.93 1020.03C961.825 1016.22 968.469 1014.32 975.864 1014.32C977.257 1014.32 978.999 1014.35 981.089 1014.4C983.178 1014.46 984.759 1014.54 985.831 1014.64V1033.93C985.188 1033.77 983.714 1033.53 981.41 1033.21C979.16 1032.83 976.775 1032.65 974.257 1032.65C968.255 1032.65 962.896 1033.91 958.181 1036.43C953.519 1038.89 949.822 1042.32 947.089 1046.71C944.41 1051.05 943.07 1056.01 943.07 1061.58V1139.71H924.101ZM1008.32 1139.71V1016.25H1027.29V1139.71H1008.32ZM1017.96 995.674C1014.26 995.674 1011.08 994.414 1008.4 991.896C1005.77 989.377 1004.46 986.35 1004.46 982.813C1004.46 979.277 1005.77 976.249 1008.4 973.731C1011.08 971.212 1014.26 969.953 1017.96 969.953C1021.66 969.953 1024.82 971.212 1027.45 973.731C1030.13 976.249 1031.47 979.277 1031.47 982.813C1031.47 986.35 1030.13 989.377 1027.45 991.896C1024.82 994.414 1021.66 995.674 1017.96 995.674ZM1062.03 1186.01V1016.25H1080.35V1035.86H1082.61C1084 1033.72 1085.93 1030.99 1088.39 1027.66C1090.91 1024.29 1094.5 1021.29 1099.16 1018.66C1103.88 1015.98 1110.26 1014.64 1118.29 1014.64C1128.69 1014.64 1137.85 1017.24 1145.78 1022.44C1153.71 1027.64 1159.9 1035.01 1164.35 1044.54C1168.8 1054.08 1171.02 1065.33 1171.02 1078.3C1171.02 1091.38 1168.8 1102.71 1164.35 1112.3C1159.9 1121.84 1153.74 1129.23 1145.86 1134.49C1137.99 1139.68 1128.9 1142.28 1118.61 1142.28C1110.68 1142.28 1104.33 1140.97 1099.57 1138.34C1094.8 1135.66 1091.13 1132.64 1088.55 1129.26C1085.98 1125.83 1084 1122.99 1082.61 1120.74H1081V1186.01H1062.03ZM1080.68 1077.98C1080.68 1087.3 1082.04 1095.53 1084.78 1102.66C1087.51 1109.73 1091.5 1115.28 1096.75 1119.29C1102 1123.26 1108.43 1125.24 1116.04 1125.24C1123.97 1125.24 1130.59 1123.15 1135.9 1118.97C1141.25 1114.74 1145.27 1109.06 1147.95 1101.93C1150.69 1094.75 1152.05 1086.77 1152.05 1077.98C1152.05 1069.3 1150.71 1061.48 1148.03 1054.51C1145.41 1047.49 1141.42 1041.94 1136.06 1037.87C1130.75 1033.75 1124.08 1031.68 1116.04 1031.68C1108.33 1031.68 1101.84 1033.64 1096.59 1037.55C1091.34 1041.41 1087.37 1046.82 1084.7 1053.79C1082.02 1060.7 1080.68 1068.76 1080.68 1077.98ZM1253.65 1016.25V1032.33H1189.67V1016.25H1253.65ZM1208.32 986.671H1227.29V1104.34C1227.29 1109.7 1228.06 1113.72 1229.62 1116.4C1231.22 1119.03 1233.26 1120.79 1235.72 1121.71C1238.24 1122.56 1240.9 1122.99 1243.68 1122.99C1245.77 1122.99 1247.49 1122.88 1248.83 1122.67C1250.17 1122.4 1251.24 1122.19 1252.04 1122.03L1255.9 1139.07C1254.61 1139.55 1252.82 1140.03 1250.51 1140.51C1248.21 1141.05 1245.29 1141.32 1241.75 1141.32C1236.39 1141.32 1231.14 1140.17 1226 1137.86C1220.91 1135.56 1216.68 1132.05 1213.3 1127.33C1209.98 1122.62 1208.32 1116.67 1208.32 1109.49V986.671Z" fill="url(#paint2_linear_105_127)"/>
<path d="M1605.04 159.292H1302.96C1279.95 159.292 1261.29 177.946 1261.29 200.958V503.042C1261.29 526.054 1279.95 544.708 1302.96 544.708H1605.04C1628.05 544.708 1646.71 526.054 1646.71 503.042V200.958C1646.71 177.946 1628.05 159.292 1605.04 159.292Z" stroke="white" stroke-width="2" stroke-linecap="round" stroke-linejoin="round"/>
<path d="M1367.28 310.333V372.833C1367.28 378.359 1365.09 383.658 1361.18 387.565C1357.27 391.472 1351.97 393.667 1346.45 393.667C1340.92 393.667 1335.62 391.472 1331.72 387.565C1327.81 383.658 1325.61 378.359 1325.61 372.833V365.917M1421.27 384.531C1426.37 391.187 1432.79 393.667 1441.71 393.667H1454.04C1459.56 393.667 1464.84 391.476 1468.74 387.577C1472.64 383.678 1474.83 378.389 1474.83 372.875V372.781C1474.83 367.269 1472.64 361.983 1468.74 358.086C1464.84 354.189 1459.55 352 1454.04 352H1440.43C1434.91 351.992 1429.63 349.797 1425.73 345.898C1421.83 341.999 1419.63 336.712 1419.62 331.198C1419.62 319.677 1428.96 310.344 1440.48 310.344H1452.75C1461.67 310.344 1468.06 312.812 1473.18 319.469M1527.18 310.333L1554.78 341.583L1582.39 310.333M1582.39 393.667L1554.78 362.417L1527.18 393.667" stroke="white" stroke-width="2" stroke-linecap="round" stroke-linejoin="round"/>
<path d="M0 0H568.519C568.519 0 852.779 488.931 568.519 566.877C284.26 644.822 0 566.877 0 566.877V0Z" fill="#DA8A8A"/>
</g>
<defs>
<linearGradient id="paint0_linear_105_127" x1="2069" y1="1143" x2="4.52331e-05" y2="607.668" gradientUnits="userSpaceOnUse">
<stop stop-color="#6A95C7"/>
<stop offset="0.0001" stop-color="#E43D3D"/>
<stop offset="0.490385" stop-color="#28738E"/>
<stop offset="0.836538" stop-color="#5B1A5A"/>
</linearGradient>
<linearGradient id="paint1_linear_105_127" x1="522" y1="662" x2="522" y2="884" gradientUnits="userSpaceOnUse">
<stop offset="1" stop-color="white"/>
</linearGradient>
<linearGradient id="paint2_linear_105_127" x1="702.5" y1="920.71" x2="702.5" y2="1194.71" gradientUnits="userSpaceOnUse">
<stop offset="1" stop-color="white"/>
</linearGradient>
<clipPath id="clip0_105_127">
<rect width="1920" height="1440" fill="white"/>
</clipPath>
<clipPath id="clip1_105_127">
<rect width="1073.1" height="282" fill="white" transform="translate(131 632)"/>
</clipPath>
</defs>
</svg>
