<svg width="1920" height="1440" viewBox="0 0 1920 1440" fill="none" xmlns="http://www.w3.org/2000/svg">
<g clip-path="url(#clip0_105_270)">
<rect width="1920" height="1440" fill="url(#paint0_linear_105_270)"/>
<path d="M188.345 839.529H147.181V706.135H190.169C203.109 706.135 214.182 708.806 223.387 714.147C232.593 719.444 239.649 727.065 244.556 737.008C249.462 746.909 251.916 758.763 251.916 772.571C251.916 786.466 249.441 798.429 244.491 808.46C239.54 818.447 232.332 826.133 222.866 831.517C213.4 836.858 201.893 839.529 188.345 839.529ZM163.334 825.199H187.303C198.333 825.199 207.473 823.071 214.724 818.816C221.976 814.561 227.382 808.503 230.943 800.644C234.503 792.784 236.284 783.427 236.284 772.571C236.284 761.803 234.525 752.532 231.008 744.759C227.491 736.943 222.237 730.951 215.246 726.782C208.255 722.57 199.548 720.464 189.127 720.464H163.334V825.199ZM318.873 841.613C309.233 841.613 300.918 839.485 293.927 835.23C286.979 830.931 281.617 824.939 277.839 817.253C274.105 809.524 272.237 800.535 272.237 790.288C272.237 780.04 274.105 771.008 277.839 763.192C281.617 755.333 286.871 749.21 293.601 744.824C300.375 740.395 308.278 738.181 317.31 738.181C322.52 738.181 327.666 739.049 332.746 740.786C337.827 742.523 342.451 745.345 346.62 749.253C350.788 753.118 354.11 758.242 356.585 764.625C359.06 771.008 360.298 778.868 360.298 788.203V794.717H283.18V781.429H344.666C344.666 775.785 343.537 770.748 341.279 766.318C339.064 761.889 335.895 758.394 331.769 755.832C327.688 753.27 322.868 751.989 317.31 751.989C311.187 751.989 305.89 753.509 301.417 756.548C296.988 759.545 293.579 763.453 291.191 768.272C288.803 773.092 287.609 778.26 287.609 783.774V792.632C287.609 800.188 288.912 806.593 291.517 811.847C294.166 817.057 297.835 821.031 302.524 823.766C307.214 826.458 312.664 827.805 318.873 827.805C322.911 827.805 326.559 827.24 329.815 826.111C333.116 824.939 335.96 823.202 338.348 820.9C340.736 818.556 342.582 815.646 343.884 812.172L358.735 816.341C357.172 821.378 354.544 825.807 350.854 829.628C347.163 833.406 342.603 836.359 337.176 838.486C331.748 840.571 325.647 841.613 318.873 841.613ZM462.444 739.483L425.448 839.529H409.816L372.82 739.483H389.494L417.111 819.207H418.153L445.769 739.483H462.444ZM597.368 772.832C597.368 786.901 594.827 799.059 589.747 809.307C584.667 819.554 577.697 827.457 568.839 833.015C559.981 838.573 549.864 841.352 538.487 841.352C527.11 841.352 516.993 838.573 508.135 833.015C499.277 827.457 492.307 819.554 487.227 809.307C482.146 799.059 479.606 786.901 479.606 772.832C479.606 758.763 482.146 746.605 487.227 736.357C492.307 726.109 499.277 718.207 508.135 712.648C516.993 707.09 527.11 704.311 538.487 704.311C549.864 704.311 559.981 707.09 568.839 712.648C577.697 718.207 584.667 726.109 589.747 736.357C594.827 746.605 597.368 758.763 597.368 772.832ZM581.736 772.832C581.736 761.281 579.803 751.533 575.939 743.587C572.118 735.641 566.929 729.627 560.372 725.545C553.858 721.463 546.564 719.422 538.487 719.422C530.41 719.422 523.094 721.463 516.537 725.545C510.024 729.627 504.835 735.641 500.97 743.587C497.149 751.533 495.238 761.281 495.238 772.832C495.238 784.382 497.149 794.13 500.97 802.077C504.835 810.023 510.024 816.037 516.537 820.119C523.094 824.2 530.41 826.241 538.487 826.241C546.564 826.241 553.858 824.2 560.372 820.119C566.929 816.037 572.118 810.023 575.939 802.077C579.803 794.13 581.736 784.382 581.736 772.832ZM622.444 877.045V739.483H637.295V755.376H639.118C640.247 753.639 641.81 751.425 643.808 748.732C645.849 745.997 648.758 743.565 652.536 741.437C656.357 739.266 661.524 738.181 668.038 738.181C676.461 738.181 683.887 740.287 690.313 744.499C696.74 748.711 701.755 754.681 705.359 762.41C708.963 770.14 710.765 779.258 710.765 789.767C710.765 800.362 708.963 809.545 705.359 817.318C701.755 825.047 696.761 831.039 690.378 835.295C683.995 839.507 676.635 841.613 668.298 841.613C661.872 841.613 656.726 840.549 652.861 838.421C648.997 836.25 646.022 833.797 643.938 831.061C641.854 828.282 640.247 825.981 639.118 824.157H637.816V877.045H622.444ZM637.555 789.506C637.555 797.062 638.662 803.727 640.877 809.502C643.091 815.234 646.326 819.728 650.582 822.985C654.837 826.198 660.048 827.805 666.214 827.805C672.64 827.805 678.003 826.111 682.302 822.724C686.644 819.294 689.901 814.691 692.072 808.916C694.286 803.097 695.394 796.627 695.394 789.506C695.394 782.472 694.308 776.132 692.137 770.487C690.009 764.799 686.774 760.304 682.432 757.004C678.133 753.661 672.727 751.989 666.214 751.989C659.961 751.989 654.707 753.574 650.452 756.744C646.196 759.87 642.983 764.256 640.812 769.901C638.641 775.502 637.555 782.037 637.555 789.506ZM805.078 761.889L791.27 765.797C790.402 763.496 789.121 761.26 787.427 759.089C785.777 756.874 783.519 755.05 780.653 753.617C777.788 752.184 774.118 751.468 769.646 751.468C763.523 751.468 758.421 752.879 754.339 755.702C750.301 758.481 748.282 762.02 748.282 766.318C748.282 770.14 749.672 773.157 752.451 775.372C755.23 777.587 759.572 779.432 765.477 780.908L780.328 784.556C789.273 786.727 795.938 790.049 800.324 794.521C804.709 798.95 806.902 804.66 806.902 811.651C806.902 817.383 805.252 822.507 801.952 827.023C798.695 831.539 794.136 835.099 788.274 837.705C782.412 840.31 775.595 841.613 767.822 841.613C757.618 841.613 749.172 839.398 742.485 834.969C735.798 830.54 731.564 824.07 729.784 815.559L744.374 811.912C745.764 817.296 748.391 821.335 752.255 824.027C756.163 826.719 761.265 828.065 767.562 828.065C774.726 828.065 780.415 826.545 784.627 823.506C788.882 820.423 791.01 816.732 791.01 812.433C791.01 808.959 789.794 806.05 787.362 803.705C784.93 801.317 781.196 799.537 776.159 798.364L759.485 794.456C750.323 792.285 743.592 788.92 739.294 784.36C735.038 779.758 732.911 774.004 732.911 767.1C732.911 761.455 734.495 756.462 737.665 752.119C740.879 747.777 745.242 744.368 750.757 741.893C756.315 739.418 762.611 738.181 769.646 738.181C779.546 738.181 787.319 740.352 792.964 744.694C798.652 749.036 802.69 754.768 805.078 761.889Z" fill="url(#paint1_linear_105_270)"/>
<path d="M145.308 1139.71V975.097H165.242V1122.03H241.761V1139.71H145.308ZM270.054 1139.71V1016.25H289.023V1139.71H270.054ZM279.699 995.674C276.002 995.674 272.814 994.414 270.135 991.896C267.509 989.377 266.196 986.35 266.196 982.813C266.196 979.277 267.509 976.249 270.135 973.731C272.814 971.212 276.002 969.953 279.699 969.953C283.397 969.953 286.558 971.212 289.184 973.731C291.863 976.249 293.203 979.277 293.203 982.813C293.203 986.35 291.863 989.377 289.184 991.896C286.558 994.414 283.397 995.674 279.699 995.674ZM342.736 1065.44V1139.71H323.766V1016.25H342.093V1035.54H343.7C346.594 1029.27 350.988 1024.23 356.882 1020.43C362.776 1016.57 370.385 1014.64 379.709 1014.64C388.068 1014.64 395.383 1016.36 401.652 1019.79C407.922 1023.16 412.798 1028.31 416.281 1035.22C419.764 1042.08 421.506 1050.76 421.506 1061.26V1139.71H402.536V1062.55C402.536 1052.85 400.018 1045.29 394.981 1039.88C389.944 1034.42 383.032 1031.68 374.244 1031.68C368.188 1031.68 362.776 1033 358.007 1035.62C353.292 1038.25 349.568 1042.08 346.835 1047.12C344.102 1052.15 342.736 1058.26 342.736 1065.44ZM533.974 1089.23V1016.25H552.943V1139.71H533.974V1118.81H532.688C529.794 1125.08 525.293 1130.41 519.184 1134.81C513.076 1139.15 505.359 1141.32 496.036 1141.32C488.319 1141.32 481.461 1139.63 475.459 1136.25C469.457 1132.82 464.742 1127.68 461.313 1120.82C457.883 1113.91 456.168 1105.2 456.168 1094.7V1016.25H475.137V1093.41C475.137 1102.42 477.656 1109.6 482.693 1114.95C487.784 1120.31 494.267 1122.99 502.144 1122.99C506.86 1122.99 511.656 1121.79 516.532 1119.37C521.462 1116.96 525.588 1113.27 528.91 1108.28C532.286 1103.3 533.974 1096.95 533.974 1089.23ZM601.833 1016.25L631.412 1066.73L660.99 1016.25H682.853L642.986 1077.98L682.853 1139.71H660.99L631.412 1091.81L601.833 1139.71H579.97L619.194 1077.98L579.97 1016.25H601.833ZM776.151 1139.71V975.097H833.702C845.169 975.097 854.627 977.08 862.075 981.045C869.523 984.957 875.069 990.235 878.713 996.879C882.357 1003.47 884.179 1010.78 884.179 1018.82C884.179 1025.9 882.92 1031.74 880.401 1036.34C877.936 1040.95 874.667 1044.6 870.595 1047.28C866.576 1049.96 862.209 1051.94 857.493 1053.22V1054.83C862.53 1055.15 867.594 1056.92 872.685 1060.14C877.775 1063.35 882.035 1067.96 885.465 1073.96C888.894 1079.96 890.609 1087.3 890.609 1095.98C890.609 1104.24 888.734 1111.66 884.983 1118.25C881.232 1124.84 875.311 1130.06 867.219 1133.92C859.128 1137.78 848.598 1139.71 835.631 1139.71H776.151ZM796.085 1122.03H835.631C848.652 1122.03 857.895 1119.51 863.361 1114.47C868.88 1109.38 871.64 1103.22 871.64 1095.98C871.64 1090.41 870.22 1085.27 867.38 1080.55C864.54 1075.78 860.494 1071.98 855.243 1069.14C849.992 1066.25 843.776 1064.8 836.595 1064.8H796.085V1122.03ZM796.085 1047.44H833.059C839.06 1047.44 844.472 1046.26 849.295 1043.9C854.171 1041.54 858.029 1038.22 860.869 1033.93C863.763 1029.65 865.21 1024.61 865.21 1018.82C865.21 1011.59 862.691 1005.45 857.654 1000.42C852.617 995.325 844.633 992.78 833.702 992.78H796.085V1047.44ZM957.121 1142.6C949.298 1142.6 942.198 1141.13 935.821 1138.18C929.445 1135.18 924.381 1130.87 920.63 1125.24C916.879 1119.56 915.004 1112.7 915.004 1104.67C915.004 1097.59 916.397 1091.86 919.183 1087.46C921.97 1083.02 925.694 1079.53 930.356 1077.02C935.018 1074.5 940.162 1072.62 945.788 1071.39C951.468 1070.1 957.175 1069.09 962.909 1068.33C970.41 1067.37 976.492 1066.65 981.154 1066.16C985.87 1065.63 989.299 1064.74 991.443 1063.51C993.64 1062.28 994.738 1060.14 994.738 1057.08V1056.44C994.738 1048.51 992.568 1042.35 988.228 1037.95C983.941 1033.56 977.43 1031.36 968.696 1031.36C959.64 1031.36 952.54 1033.34 947.396 1037.31C942.252 1041.27 938.635 1045.51 936.545 1050.01L918.54 1043.58C921.755 1036.08 926.042 1030.24 931.401 1026.06C936.813 1021.82 942.707 1018.88 949.084 1017.21C955.514 1015.5 961.837 1014.64 968.053 1014.64C972.018 1014.64 976.573 1015.13 981.717 1016.09C986.915 1017 991.925 1018.9 996.748 1021.8C1001.62 1024.69 1005.67 1029.06 1008.88 1034.9C1012.1 1040.74 1013.71 1048.56 1013.71 1058.37V1139.71H994.738V1122.99H993.774C992.488 1125.67 990.344 1128.54 987.343 1131.59C984.343 1134.65 980.351 1137.25 975.367 1139.39C970.384 1141.53 964.302 1142.6 957.121 1142.6ZM960.015 1125.56C967.517 1125.56 973.84 1124.09 978.984 1121.14C984.182 1118.2 988.094 1114.39 990.719 1109.73C993.398 1105.07 994.738 1100.16 994.738 1095.02V1077.66C993.934 1078.62 992.166 1079.51 989.433 1080.31C986.754 1081.06 983.646 1081.73 980.109 1082.32C976.626 1082.86 973.224 1083.34 969.901 1083.77C966.633 1084.14 963.98 1084.46 961.944 1084.73C957.014 1085.37 952.406 1086.42 948.119 1087.87C943.886 1089.26 940.456 1091.38 937.831 1094.22C935.259 1097 933.973 1100.81 933.973 1105.63C933.973 1112.22 936.411 1117.2 941.287 1120.58C946.217 1123.9 952.46 1125.56 960.015 1125.56ZM1135.78 1043.9L1118.74 1048.72C1117.67 1045.88 1116.09 1043.12 1114 1040.44C1111.96 1037.71 1109.18 1035.46 1105.64 1033.69C1102.1 1031.92 1097.57 1031.04 1092.06 1031.04C1084.5 1031.04 1078.2 1032.78 1073.17 1036.26C1068.18 1039.69 1065.69 1044.06 1065.69 1049.37C1065.69 1054.08 1067.41 1057.81 1070.84 1060.54C1074.26 1063.27 1079.62 1065.55 1086.91 1067.37L1105.24 1071.87C1116.28 1074.55 1124.5 1078.65 1129.91 1084.17C1135.33 1089.63 1138.03 1096.68 1138.03 1105.31C1138.03 1112.38 1135.99 1118.7 1131.92 1124.28C1127.9 1129.85 1122.28 1134.24 1115.04 1137.46C1107.81 1140.67 1099.4 1142.28 1089.8 1142.28C1077.21 1142.28 1066.79 1139.55 1058.54 1134.08C1050.29 1128.62 1045.06 1120.63 1042.86 1110.13L1060.87 1105.63C1062.58 1112.27 1065.83 1117.26 1070.59 1120.58C1075.42 1123.9 1081.71 1125.56 1089.48 1125.56C1098.32 1125.56 1105.34 1123.69 1110.54 1119.94C1115.79 1116.13 1118.42 1111.58 1118.42 1106.27C1118.42 1101.99 1116.92 1098.4 1113.92 1095.5C1110.92 1092.56 1106.31 1090.36 1100.09 1088.91L1079.52 1084.09C1068.21 1081.41 1059.9 1077.26 1054.6 1071.63C1049.35 1065.95 1046.72 1058.85 1046.72 1050.33C1046.72 1043.36 1048.68 1037.2 1052.59 1031.84C1056.56 1026.49 1061.94 1022.28 1068.75 1019.22C1075.6 1016.17 1083.37 1014.64 1092.06 1014.64C1104.27 1014.64 1113.86 1017.32 1120.83 1022.68C1127.85 1028.04 1132.83 1035.11 1135.78 1043.9ZM1166.59 1139.71V1016.25H1185.55V1139.71H1166.59ZM1176.23 995.674C1172.53 995.674 1169.34 994.414 1166.67 991.896C1164.04 989.377 1162.73 986.35 1162.73 982.813C1162.73 979.277 1164.04 976.249 1166.67 973.731C1169.34 971.212 1172.53 969.953 1176.23 969.953C1179.93 969.953 1183.09 971.212 1185.72 973.731C1188.39 976.249 1189.73 979.277 1189.73 982.813C1189.73 986.35 1188.39 989.377 1185.72 991.896C1183.09 994.414 1179.93 995.674 1176.23 995.674ZM1270.45 1142.28C1258.88 1142.28 1248.91 1139.55 1240.55 1134.08C1232.19 1128.62 1225.76 1121.09 1221.26 1111.5C1216.76 1101.91 1214.51 1090.95 1214.51 1078.62C1214.51 1066.08 1216.81 1055.02 1221.42 1045.43C1226.08 1035.78 1232.57 1028.25 1240.87 1022.84C1249.23 1017.38 1258.99 1014.64 1270.13 1014.64C1278.81 1014.64 1286.64 1016.25 1293.6 1019.47C1300.57 1022.68 1306.27 1027.18 1310.72 1032.97C1315.17 1038.76 1317.93 1045.51 1319 1053.22H1300.03C1298.59 1047.6 1295.37 1042.61 1290.39 1038.27C1285.46 1033.88 1278.81 1031.68 1270.45 1031.68C1263.06 1031.68 1256.57 1033.61 1251 1037.47C1245.48 1041.27 1241.17 1046.66 1238.06 1053.63C1235.01 1060.54 1233.48 1068.66 1233.48 1077.98C1233.48 1087.52 1234.98 1095.82 1237.98 1102.9C1241.03 1109.97 1245.32 1115.46 1250.84 1119.37C1256.41 1123.29 1262.95 1125.24 1270.45 1125.24C1275.38 1125.24 1279.86 1124.38 1283.88 1122.67C1287.9 1120.96 1291.3 1118.49 1294.08 1115.28C1296.87 1112.06 1298.85 1108.2 1300.03 1103.7H1319C1317.93 1110.99 1315.28 1117.55 1311.04 1123.39C1306.86 1129.18 1301.32 1133.79 1294.41 1137.22C1287.55 1140.59 1279.56 1142.28 1270.45 1142.28ZM1434.18 1043.9L1417.14 1048.72C1416.07 1045.88 1414.49 1043.12 1412.4 1040.44C1410.36 1037.71 1407.58 1035.46 1404.04 1033.69C1400.5 1031.92 1395.98 1031.04 1390.46 1031.04C1382.9 1031.04 1376.61 1032.78 1371.57 1036.26C1366.58 1039.69 1364.09 1044.06 1364.09 1049.37C1364.09 1054.08 1365.81 1057.81 1369.24 1060.54C1372.67 1063.27 1378.03 1065.55 1385.31 1067.37L1403.64 1071.87C1414.68 1074.55 1422.9 1078.65 1428.31 1084.17C1433.73 1089.63 1436.43 1096.68 1436.43 1105.31C1436.43 1112.38 1434.4 1118.7 1430.32 1124.28C1426.31 1129.85 1420.68 1134.24 1413.44 1137.46C1406.21 1140.67 1397.8 1142.28 1388.21 1142.28C1375.61 1142.28 1365.19 1139.55 1356.94 1134.08C1348.69 1128.62 1343.46 1120.63 1341.27 1110.13L1359.27 1105.63C1360.99 1112.27 1364.23 1117.26 1369 1120.58C1373.82 1123.9 1380.11 1125.56 1387.88 1125.56C1396.73 1125.56 1403.75 1123.69 1408.94 1119.94C1414.19 1116.13 1416.82 1111.58 1416.82 1106.27C1416.82 1101.99 1415.32 1098.4 1412.32 1095.5C1409.32 1092.56 1404.71 1090.36 1398.49 1088.91L1377.92 1084.09C1366.61 1081.41 1358.31 1077.26 1353 1071.63C1347.75 1065.95 1345.12 1058.85 1345.12 1050.33C1345.12 1043.36 1347.08 1037.2 1350.99 1031.84C1354.96 1026.49 1360.34 1022.28 1367.15 1019.22C1374.01 1016.17 1381.78 1014.64 1390.46 1014.64C1402.67 1014.64 1412.27 1017.32 1419.23 1022.68C1426.25 1028.04 1431.24 1035.11 1434.18 1043.9Z" fill="url(#paint2_linear_105_270)"/>
<path fill-rule="evenodd" clip-rule="evenodd" d="M1463.18 133.25C1460.35 133.25 1457.44 133.396 1454.45 133.633C1377.4 139.703 1397.83 221.254 1396.66 248.432C1395.26 268.355 1391.2 284.049 1377.51 303.498C1361.38 322.656 1338.74 353.625 1328 385.906C1322.93 401.072 1320.53 416.602 1322.77 431.275C1321.93 431.946 1321.24 432.784 1320.75 433.736C1316.01 438.621 1312.56 444.691 1308.68 449.029C1305.05 452.657 1299.84 453.896 1294.15 456.321C1288.45 458.8 1282.16 461.224 1278.4 468.733C1276.76 472.16 1275.92 475.897 1276 479.688C1276 483.316 1276.49 486.998 1277 489.459C1278.06 496.731 1279.11 502.747 1277.71 507.139C1273.19 519.534 1272.62 528.028 1275.8 534.208C1278.97 540.296 1285.55 542.757 1292.91 545.163C1307.69 548.808 1327.73 547.624 1343.49 556.081C1360.37 564.594 1377.51 568.313 1391.18 564.648C1395.91 563.615 1400.34 561.529 1404.15 558.547C1407.96 555.565 1411.06 551.763 1413.2 547.423C1423.9 547.368 1435.62 542.52 1454.39 541.335C1467.13 540.278 1483.08 546.202 1501.38 544.962C1501.84 547.423 1502.53 548.589 1503.46 551.05L1503.52 551.105C1510.64 565.286 1523.8 571.739 1537.86 570.627C1551.91 569.533 1566.88 560.856 1579 546.821C1590.5 532.877 1609.68 527.063 1622.34 519.425C1628.69 515.797 1633.81 510.876 1634.17 503.877C1634.59 496.585 1630.55 489.076 1621.16 478.777V477.009L1621.1 476.954C1618.01 473.309 1616.55 467.202 1614.94 460.075C1613.39 452.766 1611.63 445.748 1605.98 441.009H1605.92C1604.84 440.024 1603.68 439.788 1602.49 438.548C1601.47 437.836 1600.27 437.431 1599.03 437.381C1606.89 414.086 1603.84 390.9 1595.88 370.047C1586.16 344.346 1569.17 321.962 1556.23 306.56C1541.72 288.241 1527.5 270.888 1527.78 245.15C1528.27 205.924 1532.1 133.359 1463.18 133.25ZM1472.82 195.315H1473.06C1476.94 195.315 1480.28 196.446 1483.7 198.925C1487.18 201.386 1489.72 204.977 1491.7 208.641C1493.62 213.361 1494.58 217.007 1494.73 221.837C1494.73 221.473 1494.84 221.108 1494.84 220.762V222.658C1494.8 222.534 1494.77 222.405 1494.77 222.275L1494.69 221.837C1494.66 226.267 1493.73 230.644 1491.96 234.706C1491.11 236.991 1489.79 239.072 1488.08 240.813C1487.56 240.521 1487.02 240.265 1486.47 240.047C1484.56 239.227 1482.85 238.88 1481.28 237.623C1479.98 237.106 1478.65 236.704 1477.29 236.42C1478.18 235.344 1479.93 233.996 1480.6 232.811C1481.57 230.478 1482.1 227.999 1482.21 225.483V225.136C1482.25 222.661 1481.87 220.196 1481.1 217.846C1480.28 215.385 1479.26 214.182 1477.76 211.757C1476.23 210.554 1474.72 209.351 1472.89 209.351H1472.6C1470.91 209.351 1469.39 209.898 1467.83 211.757C1466.1 213.446 1464.81 215.538 1464.09 217.846C1463.12 220.162 1462.57 222.629 1462.45 225.137V225.483C1462.49 227.105 1462.59 228.746 1462.81 230.35C1459.3 229.129 1454.83 227.889 1451.75 226.668C1451.57 225.467 1451.46 224.255 1451.42 223.04V222.676C1451.28 217.858 1452.21 213.069 1454.16 208.659C1455.65 204.658 1458.4 201.25 1461.99 198.943C1465.11 196.588 1468.91 195.314 1472.82 195.315ZM1418.83 196.391H1419.49C1422.07 196.391 1424.41 197.266 1426.76 198.852C1429.42 201.204 1431.57 204.102 1433.03 207.328C1434.67 210.956 1435.6 214.638 1435.82 219.486V219.559C1435.95 222.001 1435.93 223.223 1435.78 224.408V225.866C1435.23 225.993 1434.76 226.194 1434.27 226.303C1431.5 227.306 1429.27 228.764 1427.11 229.949C1427.32 228.327 1427.34 226.686 1427.16 225.082V224.809C1426.94 222.384 1426.45 221.181 1425.67 218.739C1425.1 216.881 1424.05 215.204 1422.64 213.872C1422.19 213.463 1421.66 213.149 1421.09 212.949C1420.52 212.749 1419.91 212.666 1419.3 212.705H1418.92C1417.63 212.814 1416.55 213.452 1415.53 215.111C1414.37 216.523 1413.61 218.224 1413.34 220.033C1412.85 222.004 1412.71 224.046 1412.92 226.066V226.321C1413.14 228.782 1413.6 229.985 1414.4 232.41C1415.22 234.852 1416.17 236.055 1417.41 237.294C1417.61 237.459 1417.79 237.623 1418.03 237.732C1416.75 238.771 1415.9 239.008 1414.82 240.211C1414.14 240.813 1413.32 241.239 1412.43 241.451C1410.54 239.169 1408.86 236.716 1407.42 234.123C1405.7 230.292 1404.74 226.163 1404.59 221.965C1404.29 217.85 1404.79 213.716 1406.05 209.789C1407.06 206.207 1408.82 202.882 1411.21 200.037C1413.54 197.613 1415.95 196.391 1418.83 196.391ZM1443.82 227.488C1449.85 227.488 1457.16 228.673 1465.97 234.761C1471.31 238.407 1475.5 239.665 1485.16 243.292H1485.22C1489.86 245.771 1492.6 248.141 1493.93 250.565V248.177C1494.58 249.503 1494.95 250.952 1495 252.429C1495.05 253.906 1494.78 255.377 1494.22 256.744C1491.98 262.413 1484.81 268.483 1474.83 272.11V272.147C1469.94 274.608 1465.69 278.216 1460.7 280.623C1455.67 283.084 1449.98 285.945 1442.25 285.49C1439.48 285.634 1436.7 285.218 1434.09 284.268C1432.07 283.17 1430.11 281.965 1428.22 280.659C1424.66 278.198 1421.6 274.607 1417.06 272.183V272.092H1416.97C1409.68 267.608 1405.74 262.759 1404.47 259.132C1403.21 254.247 1404.37 250.583 1407.98 248.195C1412.07 245.734 1414.91 243.256 1416.79 242.071C1418.68 240.722 1419.39 240.211 1420 239.683H1420.03V239.628C1423.11 235.946 1427.98 231.08 1435.33 228.673C1437.86 228.017 1440.68 227.488 1443.82 227.488ZM1494.84 266.551C1501.38 292.38 1516.66 329.893 1526.48 348.084C1531.7 357.818 1542.07 378.324 1546.57 403.205C1549.41 403.114 1552.57 403.533 1555.92 404.372C1567.7 373.913 1545.97 341.176 1536.07 332.08C1532.04 328.416 1531.84 325.974 1533.83 325.974C1544.57 335.708 1558.71 354.628 1563.83 376.228C1566.18 385.98 1566.73 396.352 1564.21 406.668C1565.44 407.179 1566.68 407.78 1567.95 407.89C1586.76 417.624 1593.71 424.987 1590.37 435.906V435.122C1589.26 435.067 1588.18 435.122 1587.07 435.122H1586.8C1589.55 426.61 1583.48 420.084 1567.39 412.811C1550.71 405.52 1537.38 406.687 1535.1 421.287C1534.98 422.071 1534.89 422.49 1534.8 423.748C1533.56 424.167 1532.26 424.714 1530.99 424.915C1523.15 429.799 1518.92 437.109 1516.53 446.551C1514.16 456.267 1513.43 467.623 1512.79 480.619V480.673C1512.41 486.762 1509.68 495.948 1506.98 505.299C1479.64 524.839 1441.72 533.334 1409.48 511.387C1407.46 507.852 1404.99 504.588 1402.15 501.672C1400.79 499.403 1399.1 497.351 1397.14 495.584C1400.46 495.584 1403.3 495.055 1405.61 494.363C1408.24 493.147 1410.29 490.966 1411.34 488.274C1413.31 483.408 1411.34 475.569 1405.05 467.076C1398.76 458.563 1388.08 448.939 1372.46 439.351C1360.97 432.078 1354.49 423.493 1351.5 413.905C1348.49 404.171 1348.89 394.127 1351.22 383.92C1355.69 364.416 1367.14 345.459 1374.44 333.557C1376.4 332.372 1375.12 336.018 1367.01 351.311C1359.79 365 1346.21 396.825 1364.78 421.561C1365.49 403.513 1369.48 385.746 1376.58 369.137C1386.86 345.842 1408.35 305.267 1410.04 273.113C1410.92 273.769 1414 275.574 1415.31 276.794C1419.29 279.219 1422.24 282.865 1426.07 285.271C1429.91 288.935 1434.76 291.377 1442.03 291.377C1442.74 291.432 1443.4 291.486 1444.06 291.486C1451.55 291.486 1457.35 289.044 1462.21 286.602C1467.5 284.159 1471.71 280.513 1475.7 279.311H1475.79C1484.3 276.85 1491.03 271.983 1494.84 266.551M1534.69 429.836C1535.36 440.791 1540.94 452.53 1550.76 454.936C1561.48 457.378 1576.9 448.866 1583.41 440.991L1587.25 440.827C1593 440.682 1597.77 441.01 1602.69 445.694L1602.75 445.749C1606.54 449.376 1608.31 455.428 1609.88 461.716C1611.42 469.026 1612.68 475.934 1617.33 481.147C1626.19 490.753 1629.09 497.662 1628.92 501.927L1628.98 501.818V502.146L1628.92 501.927C1628.65 506.703 1625.55 509.146 1619.85 512.773C1608.36 520.083 1588.02 525.751 1575.06 541.391C1563.8 554.824 1550.07 562.152 1537.95 563.1C1525.84 564.066 1515.4 559.454 1509.26 546.731L1509.17 546.677C1505.34 539.367 1506.98 527.993 1510.19 515.871C1513.4 503.695 1517.99 491.355 1518.63 481.275C1519.3 468.26 1520.01 456.941 1522.18 448.209C1524.37 439.734 1527.8 433.682 1533.87 430.273L1534.69 429.873V429.836ZM1337.55 430.729H1337.73C1338.7 430.729 1339.65 430.82 1340.59 430.984C1347.45 431.987 1353.46 437.054 1359.24 444.692L1375.83 475.023L1375.88 475.078C1380.31 484.793 1389.63 494.472 1397.56 504.935C1405.47 515.835 1411.59 525.55 1410.85 533.553V533.662C1409.81 547.224 1402.11 554.587 1390.34 557.249C1378.58 559.709 1362.63 557.285 1346.68 548.791C1329.04 539.021 1308.08 540.242 1294.61 537.818C1287.88 536.615 1283.47 534.154 1281.43 530.508C1279.4 526.881 1279.37 519.554 1283.67 508.088V508.034L1283.71 507.979C1285.84 501.891 1284.25 494.253 1283.21 487.582C1282.21 480.272 1281.7 474.658 1284 470.448C1286.91 464.359 1291.22 463.175 1296.56 460.732C1301.93 458.272 1308.24 457.05 1313.25 452.183H1313.29V452.129C1317.96 447.244 1321.4 441.174 1325.47 436.854C1328.93 433.19 1332.39 430.729 1337.55 430.729M1468.04 265.329C1460.11 268.993 1450.82 275.081 1440.92 275.081C1431.04 275.081 1423.24 270.214 1417.61 266.587C1414.78 264.144 1412.5 261.702 1410.79 260.48C1407.8 258.038 1408.17 254.393 1409.44 254.393C1411.43 254.684 1411.79 256.854 1413.07 258.056C1414.82 259.259 1416.99 261.684 1419.65 264.126C1424.95 267.771 1432.04 272.639 1440.9 272.639C1449.74 272.639 1460.1 267.771 1466.39 264.144C1469.94 261.683 1474.5 258.056 1478.2 255.632C1481.04 253.135 1480.91 250.747 1483.28 250.747C1485.63 251.039 1483.9 253.189 1480.6 256.817C1476.56 259.875 1472.36 262.722 1468.03 265.347V265.329L1468.04 265.329ZM1448.32 236.457V236.055C1448.21 235.709 1448.56 235.29 1448.85 235.144C1450.2 234.36 1452.13 234.651 1453.59 235.217C1454.74 235.217 1456.51 236.438 1456.32 237.678C1456.21 238.571 1454.77 238.88 1453.86 238.88C1452.86 238.88 1452.19 238.097 1451.29 237.641C1450.34 237.313 1448.63 237.495 1448.32 236.456M1438.28 236.456C1437.91 237.513 1436.22 237.349 1435.25 237.659C1434.4 238.114 1433.68 238.898 1432.72 238.898C1431.79 238.898 1430.33 238.552 1430.22 237.659C1430.06 236.456 1431.83 235.234 1432.96 235.234C1434.43 234.669 1436.31 234.377 1437.68 235.143C1438.02 235.307 1438.33 235.69 1438.22 236.055V236.438H1438.28L1438.28 236.456Z" fill="white" fill-opacity="0.8"/>
<path d="M0 0H568.519C568.519 0 852.779 488.931 568.519 566.877C284.26 644.822 0 566.877 0 566.877V0Z" fill="#D98ADA" fill-opacity="0.34"/>
</g>
<defs>
<linearGradient id="paint0_linear_105_270" x1="2069" y1="1143" x2="4.52331e-05" y2="607.668" gradientUnits="userSpaceOnUse">
<stop stop-color="#992B43"/>
<stop offset="0.0001" stop-color="#2D091D"/>
<stop offset="0.490385" stop-color="#5D073B"/>
<stop offset="0.836538" stop-color="#210E1F"/>
</linearGradient>
<linearGradient id="paint1_linear_105_270" x1="473.5" y1="661.529" x2="473.5" y2="883.529" gradientUnits="userSpaceOnUse">
<stop offset="1" stop-color="white"/>
</linearGradient>
<linearGradient id="paint2_linear_105_270" x1="786.5" y1="920.71" x2="786.5" y2="1194.71" gradientUnits="userSpaceOnUse">
<stop offset="1" stop-color="white"/>
</linearGradient>
<clipPath id="clip0_105_270">
<rect width="1920" height="1440" fill="white"/>
</clipPath>
</defs>
</svg>
