<svg width="1920" height="1440" viewBox="0 0 1920 1440" fill="none" xmlns="http://www.w3.org/2000/svg">
<g clip-path="url(#clip0_105_218)">
<rect width="1920" height="1440" fill="url(#paint0_linear_105_218)"/>
<path d="M152.879 839.529H135.945L184.925 706.135H201.599L250.58 839.529H233.645L193.783 727.238H192.741L152.879 839.529ZM159.132 787.422H227.392V801.751H159.132V787.422ZM287.51 706.135V839.529H271.357V706.135H287.51Z" fill="url(#paint1_linear_105_218)"/>
<g clip-path="url(#clip1_105_218)">
<path d="M129.167 975.097H152.959L208.902 1111.74H210.831L266.773 975.097H290.565V1139.71H271.917V1014.64H270.31L218.868 1139.71H200.864L149.422 1014.64H147.815V1139.71H129.167V975.097ZM327.961 1139.71V1016.25H346.93V1139.71H327.961ZM337.606 995.674C333.909 995.674 330.72 994.414 328.041 991.896C325.415 989.377 324.103 986.35 324.103 982.813C324.103 979.277 325.415 976.249 328.041 973.731C330.72 971.212 333.909 969.953 337.606 969.953C341.303 969.953 344.465 971.212 347.091 973.731C349.77 976.249 351.109 979.277 351.109 982.813C351.109 986.35 349.77 989.377 347.091 991.896C344.465 994.414 341.303 995.674 337.606 995.674ZM428.292 1142.28C418.004 1142.28 408.921 1139.68 401.044 1134.49C393.167 1129.23 387.005 1121.84 382.557 1112.3C378.11 1102.71 375.886 1091.38 375.886 1078.3C375.886 1065.33 378.11 1054.08 382.557 1044.54C387.005 1035.01 393.194 1027.64 401.124 1022.44C409.055 1017.24 418.218 1014.64 428.614 1014.64C436.651 1014.64 443.001 1015.98 447.663 1018.66C452.378 1021.29 455.969 1024.29 458.434 1027.66C460.952 1030.99 462.908 1033.72 464.301 1035.86H465.909V975.097H484.878V1139.71H466.552V1120.74H464.301C462.908 1122.99 460.925 1125.83 458.353 1129.26C455.781 1132.64 452.111 1135.66 447.341 1138.34C442.572 1140.97 436.223 1142.28 428.292 1142.28ZM430.864 1125.24C438.473 1125.24 444.903 1123.26 450.155 1119.29C455.406 1115.28 459.398 1109.73 462.131 1102.66C464.864 1095.53 466.23 1087.3 466.23 1077.98C466.23 1068.76 464.891 1060.7 462.211 1053.79C459.532 1046.82 455.567 1041.41 450.315 1037.55C445.064 1033.64 438.58 1031.68 430.864 1031.68C422.826 1031.68 416.128 1033.75 410.77 1037.87C405.465 1041.94 401.473 1047.49 398.793 1054.51C396.168 1061.48 394.855 1069.3 394.855 1077.98C394.855 1086.77 396.195 1094.75 398.874 1101.93C401.607 1109.06 405.626 1114.74 410.93 1118.97C416.289 1123.15 422.934 1125.24 430.864 1125.24ZM522.253 1016.25H541.222V1148.71C541.222 1156.32 539.91 1162.91 537.284 1168.49C534.712 1174.06 530.8 1178.37 525.549 1181.43C520.351 1184.48 513.787 1186.01 505.856 1186.01C505.213 1186.01 504.57 1186.01 503.927 1186.01C503.284 1186.01 502.641 1186.01 501.998 1186.01V1168.32C502.641 1168.32 503.231 1168.32 503.766 1168.32C504.302 1168.32 504.892 1168.32 505.535 1168.32C511.322 1168.32 515.555 1166.61 518.234 1163.18C520.914 1159.8 522.253 1154.98 522.253 1148.71V1016.25ZM531.577 995.674C527.88 995.674 524.691 994.414 522.012 991.896C519.387 989.377 518.074 986.35 518.074 982.813C518.074 979.277 519.387 976.249 522.012 973.731C524.691 971.212 527.88 969.953 531.577 969.953C535.274 969.953 538.436 971.212 541.062 973.731C543.741 976.249 545.081 979.277 545.081 982.813C545.081 986.35 543.741 989.377 541.062 991.896C538.436 994.414 535.274 995.674 531.577 995.674ZM626.121 1142.28C614.976 1142.28 605.196 1139.63 596.783 1134.32C588.424 1129.02 581.887 1121.6 577.171 1112.06C572.509 1102.52 570.178 1091.38 570.178 1078.62C570.178 1065.76 572.509 1054.54 577.171 1044.95C581.887 1035.35 588.424 1027.91 596.783 1022.6C605.196 1017.3 614.976 1014.64 626.121 1014.64C637.267 1014.64 647.019 1017.3 655.379 1022.6C663.792 1027.91 670.329 1035.35 674.991 1044.95C679.706 1054.54 682.064 1065.76 682.064 1078.62C682.064 1091.38 679.706 1102.52 674.991 1112.06C670.329 1121.6 663.792 1129.02 655.379 1134.32C647.019 1139.63 637.267 1142.28 626.121 1142.28ZM626.121 1125.24C634.588 1125.24 641.554 1123.07 647.019 1118.73C652.485 1114.39 656.531 1108.68 659.156 1101.61C661.782 1094.54 663.095 1086.88 663.095 1078.62C663.095 1070.37 661.782 1062.68 659.156 1055.55C656.531 1048.43 652.485 1042.67 647.019 1038.27C641.554 1033.88 634.588 1031.68 626.121 1031.68C617.655 1031.68 610.689 1033.88 605.223 1038.27C599.757 1042.67 595.712 1048.43 593.086 1055.55C590.46 1062.68 589.148 1070.37 589.148 1078.62C589.148 1086.88 590.46 1094.54 593.086 1101.61C595.712 1108.68 599.757 1114.39 605.223 1118.73C610.689 1123.07 617.655 1125.24 626.121 1125.24ZM788.825 1089.23V1016.25H807.795V1139.71H788.825V1118.81H787.539C784.646 1125.08 780.145 1130.41 774.036 1134.81C767.927 1139.15 760.211 1141.32 750.887 1141.32C743.171 1141.32 736.312 1139.63 730.311 1136.25C724.309 1132.82 719.594 1127.68 716.164 1120.82C712.735 1113.91 711.02 1105.2 711.02 1094.7V1016.25H729.989V1093.41C729.989 1102.42 732.508 1109.6 737.545 1114.95C742.635 1120.31 749.119 1122.99 756.996 1122.99C761.711 1122.99 766.507 1121.79 771.384 1119.37C776.313 1116.96 780.439 1113.27 783.762 1108.28C787.138 1103.3 788.825 1096.95 788.825 1089.23ZM842.538 1139.71V1016.25H860.864V1034.9H862.15C864.4 1028.79 868.473 1023.83 874.367 1020.03C880.262 1016.22 886.906 1014.32 894.301 1014.32C895.694 1014.32 897.436 1014.35 899.525 1014.4C901.615 1014.46 903.196 1014.54 904.268 1014.64V1033.93C903.625 1033.77 902.151 1033.53 899.847 1033.21C897.596 1032.83 895.212 1032.65 892.693 1032.65C886.692 1032.65 881.333 1033.91 876.618 1036.43C871.956 1038.89 868.259 1042.32 865.526 1046.71C862.846 1051.05 861.507 1056.01 861.507 1061.58V1139.71H842.538ZM945.722 1065.44V1139.71H926.753V1016.25H945.079V1035.54H946.687C949.581 1029.27 953.975 1024.23 959.869 1020.43C965.763 1016.57 973.372 1014.64 982.696 1014.64C991.055 1014.64 998.37 1016.36 1004.64 1019.79C1010.91 1023.16 1015.78 1028.31 1019.27 1035.22C1022.75 1042.08 1024.49 1050.76 1024.49 1061.26V1139.71H1005.52V1062.55C1005.52 1052.85 1003 1045.29 997.968 1039.88C992.931 1034.42 986.018 1031.68 977.23 1031.68C971.175 1031.68 965.763 1033 960.994 1035.62C956.279 1038.25 952.555 1042.08 949.822 1047.12C947.089 1052.15 945.722 1058.26 945.722 1065.44ZM1110.92 1142.28C1099.02 1142.28 1088.76 1139.66 1080.13 1134.41C1071.56 1129.1 1064.94 1121.71 1060.28 1112.22C1055.67 1102.68 1053.37 1091.59 1053.37 1078.94C1053.37 1066.3 1055.67 1055.15 1060.28 1045.51C1064.94 1035.81 1071.43 1028.25 1079.73 1022.84C1088.09 1017.38 1097.84 1014.64 1108.99 1014.64C1115.42 1014.64 1121.77 1015.71 1128.04 1017.86C1134.31 1020 1140.02 1023.48 1145.16 1028.31C1150.3 1033.08 1154.4 1039.4 1157.46 1047.28C1160.51 1055.15 1162.04 1064.85 1162.04 1076.37V1084.41H1066.87V1068.01H1142.75C1142.75 1061.05 1141.35 1054.83 1138.57 1049.37C1135.84 1043.9 1131.92 1039.59 1126.83 1036.43C1121.8 1033.26 1115.85 1031.68 1108.99 1031.68C1101.43 1031.68 1094.9 1033.56 1089.38 1037.31C1083.91 1041.01 1079.71 1045.83 1076.76 1051.78C1073.81 1057.73 1072.34 1064.1 1072.34 1070.91V1081.84C1072.34 1091.16 1073.94 1099.07 1077.16 1105.55C1080.43 1111.98 1084.96 1116.88 1090.74 1120.26C1096.53 1123.58 1103.26 1125.24 1110.92 1125.24C1115.9 1125.24 1120.4 1124.55 1124.42 1123.15C1128.49 1121.71 1132 1119.56 1134.95 1116.72C1137.9 1113.83 1140.18 1110.24 1141.78 1105.95L1160.11 1111.1C1158.18 1117.31 1154.94 1122.78 1150.38 1127.49C1145.83 1132.15 1140.2 1135.8 1133.5 1138.42C1126.81 1141 1119.28 1142.28 1110.92 1142.28ZM1199.35 1186.01C1196.14 1186.01 1193.27 1185.74 1190.75 1185.2C1188.23 1184.72 1186.49 1184.24 1185.53 1183.76L1190.35 1167.04C1194.96 1168.22 1199.03 1168.65 1202.57 1168.32C1206.11 1168 1209.24 1166.42 1211.97 1163.58C1214.76 1160.8 1217.3 1156.27 1219.61 1150L1223.15 1140.35L1177.49 1016.25H1198.07L1232.15 1114.63H1233.43L1267.51 1016.25H1288.09L1235.68 1157.71C1233.33 1164.09 1230.41 1169.37 1226.92 1173.55C1223.44 1177.78 1219.39 1180.92 1214.79 1182.95C1210.23 1184.99 1205.09 1186.01 1199.35 1186.01Z" fill="url(#paint2_linear_105_218)"/>
</g>
<g clip-path="url(#clip2_105_218)">
<path d="M1674.41 420.172C1675.7 423.53 1674.64 426.341 1671.78 428.649C1644.92 450.274 1616.72 469.891 1586.03 485.763L1560.41 498.998C1565.69 503.219 1571.66 504.407 1577.99 504.171C1584.92 503.911 1590.73 500.727 1596.1 496.635C1602.51 491.744 1608.57 486.333 1615.3 481.948C1631.61 471.332 1649.19 472.291 1664.61 484.263C1671.17 489.349 1677.19 495.158 1683.99 499.866C1687.27 502.141 1691.48 503.382 1695.52 504.274L1696.41 504.468C1701.31 505.499 1704.28 507.964 1703.95 512.193C1703.63 516.388 1700.31 518.84 1695.29 518.516C1684.66 517.828 1676.32 512.343 1668.51 505.71C1663.63 501.569 1658.92 497.155 1653.65 493.562C1643.89 486.904 1633.53 486.71 1623.59 493.103C1617.72 496.871 1612.4 501.481 1606.91 505.815C1598.07 512.804 1588.53 517.949 1576.88 518.125C1564.12 518.318 1553.84 512.587 1544.43 504.714C1541.06 501.897 1537.73 499.039 1534.29 496.303C1521.43 486.04 1508.25 486.046 1495.35 496.311C1493.84 497.509 1492.35 498.72 1490.87 499.944L1487.9 502.385C1485.44 504.429 1482.93 506.423 1480.38 508.366C1464.58 520.311 1446.49 520.881 1430.12 509.697C1424.16 505.628 1418.73 500.788 1413.05 496.311C1400.14 486.144 1389.43 486.173 1376.29 496.268L1375.21 497.096L1371.99 499.586C1367.69 502.907 1363.37 506.198 1358.83 509.15C1341.72 520.275 1324.3 519.811 1307.3 509.058C1300.26 504.608 1293.84 499.19 1287.17 494.152L1286.17 493.398C1283.51 491.412 1280.88 489.377 1278.15 487.492C1274.35 484.863 1270.24 484.128 1266.12 486.632C1258.83 491.058 1251.63 495.625 1244.41 500.165C1237.59 504.454 1231 509.169 1223.9 512.943C1220.06 514.986 1215.44 515.937 1211.06 516.498C1206.98 517.017 1204.18 513.99 1204.02 510.169C1203.87 506.407 1206.33 504.044 1210.15 502.958L1210.37 502.897C1214.43 501.811 1218.61 500.432 1222.13 498.219C1232.07 491.971 1241.69 485.232 1251.43 478.671C1251.71 478.485 1251.87 478.132 1252.2 477.708L1246.15 466.273C1244.13 462.458 1242.12 458.636 1240.11 454.808C1236.6 448.092 1238.88 443.588 1246.44 443.049C1266.79 441.594 1287.16 440.346 1307.52 439.035L1424.74 431.511C1452.45 429.728 1480.16 427.927 1507.86 426.139C1546.93 423.618 1586 421.099 1625.08 418.58C1635.47 417.912 1645.86 417.26 1656.25 416.58L1666.64 415.891C1670.21 415.65 1673.08 416.731 1674.41 420.172ZM1644.69 432.046L1644.34 431.193L1256.46 456.169L1257.42 457.958C1259.94 462.67 1262.16 466.924 1264.59 471.057C1264.82 471.438 1265.6 471.516 1266.43 471.545L1267.27 471.565L1267.52 471.575L1267.76 471.588C1271.13 471.836 1274.81 471.242 1277.8 472.424C1282.58 474.311 1287.15 477.014 1291.36 479.995C1298.9 485.333 1305.87 491.482 1313.5 496.668C1327.07 505.88 1339.84 505.606 1353.19 496.266C1358.82 492.324 1364.16 487.968 1369.74 483.948C1387.18 471.379 1403.71 471.639 1420.74 484.763C1425.71 488.599 1430.46 492.736 1435.42 496.582C1447.88 506.228 1460.52 506.263 1472.91 496.682C1477.04 493.492 1480.97 490.047 1485.02 486.755C1503.39 471.83 1522.01 470.391 1540.07 483.702L1540.62 484.109C1546.4 488.468 1550.7 488.25 1556.46 485.376L1559.27 483.974C1584.96 471.088 1610.17 457.396 1633.44 440.381C1637.21 437.627 1640.94 434.826 1644.69 432.046ZM1284.51 103.318C1326.5 122.261 1364.2 147.744 1398.46 178.371C1441.09 216.483 1474.7 261.487 1499.52 312.957C1512.58 340.049 1522.74 368.188 1527.4 398.065L1527.63 399.53L1527.97 401.87C1527.97 407.652 1523.34 411.049 1518.51 409.097C1494.55 399.411 1469.8 392.694 1444.22 388.857C1410.43 383.787 1377.06 385.049 1344.2 394.942C1322.41 401.505 1301.68 410.455 1282.42 422.669C1278.87 424.925 1275.09 424.53 1272.77 421.77C1270.36 418.905 1270.36 415.445 1273.15 412.42C1293.27 390.568 1304.98 364.326 1312.74 336.109C1320.33 308.539 1323.1 280.367 1321.4 251.865C1320.12 230.443 1314.99 209.715 1308.26 189.368C1299.57 163.044 1288.28 137.88 1274.68 113.743C1272.45 109.797 1272.5 106.725 1274.74 104.201C1277.07 101.588 1280.07 101.311 1284.51 103.318ZM1413.94 152.525C1417.83 153.66 1423.07 154.781 1428.01 156.699C1447.7 164.366 1464.66 176.529 1480.83 189.817C1507.09 211.412 1531.15 235.299 1552.66 261.643C1567.63 279.978 1579.91 300.148 1591.1 320.966C1603.8 344.575 1614.73 368.981 1624.01 394.123L1624.65 395.879C1624.9 396.547 1625.15 397.213 1625.38 397.887C1626.35 400.794 1626.23 403.607 1623.96 405.827C1621.63 408.095 1618.84 408.246 1615.9 407.093L1615.7 407.011C1611.48 405.277 1607.2 403.677 1602.99 401.925L1601.19 401.165C1589.34 396.079 1577.17 395.063 1564.63 397.911C1563.48 398.174 1562.3 398.374 1561.13 398.553C1556.48 399.27 1553.57 397.452 1552.3 392.948C1540.09 349.612 1522.87 308.349 1501.08 268.979L1499.99 267.018C1485.93 241.905 1469.85 218.288 1448.94 198.224C1436.59 186.374 1423.6 175.328 1409.25 165.946C1405.93 163.772 1404.68 160.754 1405.78 157.461C1406.85 154.223 1409.37 152.949 1413.94 152.525ZM1297.07 125.027C1297.11 126.123 1297.4 126.98 1297.8 127.781C1306.92 146.187 1314.86 165.093 1321.3 184.6C1327.42 203.105 1332.1 221.966 1334.35 241.362C1336.86 263.071 1335.83 284.725 1332.85 306.316C1328.93 334.752 1321.04 361.949 1307.44 387.351L1305.86 390.311L1303.46 394.809C1303.97 394.946 1304.22 395.108 1304.39 395.043C1305.82 394.479 1307.24 393.889 1308.65 393.272C1337.52 380.599 1367.6 372.946 1399.19 372.159C1435.26 371.26 1470.2 377.765 1504.32 389.094L1506.65 389.867C1508.33 390.422 1510.13 390.992 1512.47 391.748C1498.64 331.24 1469.99 279.23 1431.37 232.445C1394.14 187.344 1348.86 152.103 1297.07 125.027ZM1468.47 198.39L1468.93 198.908L1469.83 199.919C1470.19 200.314 1470.5 200.685 1470.8 201.072C1472.93 203.814 1475.08 206.536 1477.26 209.237L1480.81 213.655C1486.15 220.304 1491.41 227 1496.05 234.106C1525.35 279.058 1546.9 327.665 1562.61 378.89L1563.08 380.443C1563.9 383.125 1565.02 383.879 1567.63 383.484L1567.81 383.455C1579.57 381.497 1591.05 382.515 1602.19 386.805L1602.76 387.029C1603.83 387.451 1604.96 387.685 1607.03 388.289C1591.94 350.64 1574.11 315.594 1551.55 282.926C1532.04 254.677 1479.79 204.521 1468.47 198.388" fill="#F5F9FF" fill-opacity="0.59"/>
</g>
<path d="M0 0H568.519C568.519 0 852.779 488.931 568.519 566.877C284.26 644.822 0 566.877 0 566.877V0Z" fill="#C5DA8A"/>
</g>
<defs>
<linearGradient id="paint0_linear_105_218" x1="2069" y1="1143" x2="4.52331e-05" y2="607.668" gradientUnits="userSpaceOnUse">
<stop stop-color="#56EFB2"/>
<stop offset="0.0001" stop-color="#58EFBF"/>
<stop offset="0.490385" stop-color="#49BABA"/>
<stop offset="0.836538" stop-color="#3491A6"/>
</linearGradient>
<linearGradient id="paint1_linear_105_218" x1="217.5" y1="661.529" x2="217.5" y2="883.529" gradientUnits="userSpaceOnUse">
<stop offset="1" stop-color="white"/>
</linearGradient>
<linearGradient id="paint2_linear_105_218" x1="702.5" y1="920.71" x2="702.5" y2="1194.71" gradientUnits="userSpaceOnUse">
<stop offset="1" stop-color="white"/>
</linearGradient>
<clipPath id="clip0_105_218">
<rect width="1920" height="1440" fill="white"/>
</clipPath>
<clipPath id="clip1_105_218">
<rect width="1324.25" height="348" fill="white" transform="translate(125 884)"/>
</clipPath>
<clipPath id="clip2_105_218">
<rect width="500" height="418" fill="white" transform="translate(1204 102)"/>
</clipPath>
</defs>
</svg>
