<svg width="1920" height="1440" viewBox="0 0 1920 1440" fill="none" xmlns="http://www.w3.org/2000/svg">
<g clip-path="url(#clip0_105_179)">
<rect width="1920" height="1440" fill="url(#paint0_linear_105_179)"/>
<path d="M147.392 839.529V706.135H192.465C202.93 706.135 211.484 708.024 218.127 711.802C224.814 715.536 229.765 720.595 232.978 726.978C236.191 733.361 237.798 740.482 237.798 748.342C237.798 756.201 236.191 763.344 232.978 769.771C229.808 776.197 224.901 781.321 218.258 785.142C211.614 788.92 203.103 790.809 192.725 790.809H160.419V776.479H192.204C199.369 776.479 205.122 775.242 209.465 772.767C213.807 770.292 216.955 766.948 218.909 762.736C220.906 758.481 221.905 753.683 221.905 748.342C221.905 743.001 220.906 738.224 218.909 734.012C216.955 729.8 213.785 726.5 209.399 724.112C205.014 721.68 199.195 720.464 191.944 720.464H163.545V839.529H147.392ZM261.734 839.529V739.483H276.585V754.594H277.627C279.451 749.644 282.751 745.628 287.527 742.545C292.304 739.462 297.688 737.92 303.68 737.92C304.809 737.92 306.22 737.942 307.914 737.985C309.607 738.029 310.888 738.094 311.757 738.181V753.813C311.236 753.683 310.042 753.487 308.174 753.227C306.351 752.923 304.418 752.771 302.378 752.771C297.514 752.771 293.172 753.791 289.351 755.832C285.573 757.829 282.577 760.608 280.362 764.169C278.191 767.686 277.106 771.703 277.106 776.219V839.529H261.734ZM367.576 841.613C358.544 841.613 350.62 839.463 343.803 835.165C337.029 830.866 331.731 824.852 327.91 817.123C324.132 809.393 322.243 800.362 322.243 790.027C322.243 779.606 324.132 770.509 327.91 762.736C331.731 754.964 337.029 748.928 343.803 744.629C350.62 740.33 358.544 738.181 367.576 738.181C376.608 738.181 384.511 740.33 391.285 744.629C398.102 748.928 403.4 754.964 407.177 762.736C410.999 770.509 412.909 779.606 412.909 790.027C412.909 800.362 410.999 809.393 407.177 817.123C403.4 824.852 398.102 830.866 391.285 835.165C384.511 839.463 376.608 841.613 367.576 841.613ZM367.576 827.805C374.437 827.805 380.082 826.046 384.511 822.529C388.94 819.012 392.218 814.387 394.346 808.655C396.474 802.924 397.538 796.714 397.538 790.027C397.538 783.34 396.474 777.109 394.346 771.334C392.218 765.559 388.94 760.891 384.511 757.33C380.082 753.769 374.437 751.989 367.576 751.989C360.716 751.989 355.071 753.769 350.642 757.33C346.212 760.891 342.934 765.559 340.806 771.334C338.679 777.109 337.615 783.34 337.615 790.027C337.615 796.714 338.679 802.924 340.806 808.655C342.934 814.387 346.212 819.012 350.642 822.529C355.071 826.046 360.716 827.805 367.576 827.805ZM474.151 841.613C465.814 841.613 458.454 839.507 452.071 835.295C445.688 831.039 440.694 825.047 437.09 817.318C433.486 809.545 431.684 800.362 431.684 789.767C431.684 779.258 433.486 770.14 437.09 762.41C440.694 754.681 445.709 748.711 452.136 744.499C458.562 740.287 465.988 738.181 474.412 738.181C480.925 738.181 486.07 739.266 489.848 741.437C493.669 743.565 496.579 745.997 498.576 748.732C500.617 751.425 502.202 753.639 503.331 755.376H504.634V706.135H520.005V839.529H505.155V824.157H503.331C502.202 825.981 500.595 828.282 498.511 831.061C496.427 833.797 493.452 836.25 489.588 838.421C485.723 840.549 480.578 841.613 474.151 841.613ZM476.235 827.805C482.401 827.805 487.612 826.198 491.867 822.985C496.123 819.728 499.358 815.234 501.572 809.502C503.787 803.727 504.894 797.062 504.894 789.506C504.894 782.037 503.808 775.502 501.637 769.901C499.466 764.256 496.253 759.87 491.998 756.744C487.742 753.574 482.488 751.989 476.235 751.989C469.722 751.989 464.294 753.661 459.952 757.004C455.653 760.304 452.418 764.799 450.247 770.487C448.119 776.132 447.055 782.472 447.055 789.506C447.055 796.627 448.141 803.097 450.312 808.916C452.527 814.691 455.783 819.294 460.082 822.724C464.424 826.111 469.809 827.805 476.235 827.805ZM613.341 798.625V739.483H628.713V839.529H613.341V822.594H612.299C609.954 827.674 606.307 831.995 601.357 835.555C596.407 839.073 590.154 840.831 582.598 840.831C576.346 840.831 570.787 839.463 565.924 836.728C561.061 833.949 557.24 829.78 554.461 824.222C551.682 818.621 550.292 811.565 550.292 803.054V739.483H565.664V802.012C565.664 809.307 567.704 815.125 571.786 819.467C575.911 823.81 581.165 825.981 587.548 825.981C591.37 825.981 595.256 825.004 599.207 823.05C603.202 821.096 606.546 818.1 609.238 814.061C611.974 810.023 613.341 804.878 613.341 798.625ZM697.51 841.613C688.131 841.613 680.054 839.398 673.28 834.969C666.507 830.54 661.296 824.439 657.648 816.667C654.001 808.894 652.177 800.014 652.177 790.027C652.177 779.866 654.044 770.9 657.779 763.127C661.556 755.311 666.811 749.21 673.541 744.824C680.315 740.395 688.218 738.181 697.25 738.181C704.284 738.181 710.624 739.483 716.269 742.089C721.914 744.694 726.538 748.342 730.142 753.031C733.746 757.721 735.982 763.192 736.851 769.445H721.479C720.307 764.886 717.702 760.847 713.663 757.33C709.668 753.769 704.284 751.989 697.51 751.989C691.518 751.989 686.264 753.552 681.748 756.679C677.275 759.762 673.78 764.126 671.261 769.771C668.786 775.372 667.549 781.951 667.549 789.506C667.549 797.235 668.765 803.966 671.196 809.697C673.671 815.429 677.145 819.88 681.618 823.05C686.133 826.22 691.431 827.805 697.51 827.805C701.505 827.805 705.131 827.11 708.387 825.72C711.644 824.331 714.401 822.333 716.659 819.728C718.917 817.123 720.524 813.996 721.479 810.349H736.851C735.982 816.254 733.833 821.573 730.403 826.306C727.016 830.996 722.521 834.73 716.92 837.509C711.362 840.245 704.892 841.613 697.51 841.613ZM802.831 739.483V752.51H750.985V739.483H802.831ZM766.096 715.514H781.467V810.87C781.467 815.212 782.097 818.469 783.356 820.64C784.659 822.768 786.309 824.2 788.306 824.939C790.347 825.633 792.497 825.981 794.755 825.981C796.448 825.981 797.838 825.894 798.923 825.72C800.009 825.503 800.877 825.329 801.528 825.199L804.655 839.007C803.613 839.398 802.158 839.789 800.291 840.18C798.424 840.614 796.057 840.831 793.191 840.831C788.849 840.831 784.594 839.898 780.425 838.03C776.3 836.163 772.87 833.319 770.134 829.498C767.442 825.677 766.096 820.857 766.096 815.038V715.514ZM825.953 839.529V739.483H841.325V839.529H825.953ZM833.77 722.809C830.773 722.809 828.19 721.789 826.019 719.748C823.891 717.707 822.827 715.254 822.827 712.388C822.827 709.522 823.891 707.069 826.019 705.028C828.19 702.987 830.773 701.967 833.77 701.967C836.766 701.967 839.328 702.987 841.455 705.028C843.626 707.069 844.712 709.522 844.712 712.388C844.712 715.254 843.626 717.707 841.455 719.748C839.328 721.789 836.766 722.809 833.77 722.809ZM951.287 739.483L914.291 839.529H898.659L861.663 739.483H878.337L905.954 819.207H906.996L934.612 739.483H951.287ZM971.576 839.529V739.483H986.947V839.529H971.576ZM979.392 722.809C976.396 722.809 973.812 721.789 971.641 719.748C969.513 717.707 968.449 715.254 968.449 712.388C968.449 709.522 969.513 707.069 971.641 705.028C973.812 702.987 976.396 701.967 979.392 701.967C982.388 701.967 984.95 702.987 987.078 705.028C989.249 707.069 990.334 709.522 990.334 712.388C990.334 715.254 989.249 717.707 987.078 719.748C984.95 721.789 982.388 722.809 979.392 722.809ZM1058.61 739.483V752.51H1006.76V739.483H1058.61ZM1021.88 715.514H1037.25V810.87C1037.25 815.212 1037.88 818.469 1039.14 820.64C1040.44 822.768 1042.09 824.2 1044.09 824.939C1046.13 825.633 1048.28 825.981 1050.53 825.981C1052.23 825.981 1053.62 825.894 1054.7 825.72C1055.79 825.503 1056.66 825.329 1057.31 825.199L1060.43 839.007C1059.39 839.398 1057.94 839.789 1056.07 840.18C1054.2 840.614 1051.84 840.831 1048.97 840.831C1044.63 840.831 1040.37 839.898 1036.2 838.03C1032.08 836.163 1028.65 833.319 1025.91 829.498C1023.22 825.677 1021.88 820.857 1021.88 815.038V715.514ZM1091.63 877.045C1089.03 877.045 1086.7 876.828 1084.66 876.394C1082.62 876.003 1081.21 875.613 1080.43 875.222L1084.34 861.674C1088.07 862.629 1091.37 862.977 1094.24 862.716C1097.1 862.456 1099.64 861.175 1101.86 858.873C1104.12 856.615 1106.18 852.946 1108.05 847.866L1110.91 840.05L1073.92 739.483H1090.59L1118.21 819.207H1119.25L1146.87 739.483H1163.54L1121.07 854.118C1119.16 859.286 1116.8 863.563 1113.97 866.95C1111.15 870.38 1107.87 872.92 1104.14 874.57C1100.45 876.22 1096.28 877.045 1091.63 877.045Z" fill="url(#paint1_linear_105_179)"/>
<path d="M275.532 975.097V1139.71H256.241L166.54 1010.46H164.932V1139.71H144.999V975.097H164.289L254.312 1104.67H255.92V975.097H275.532ZM363.003 1142.28C351.857 1142.28 342.078 1139.63 333.665 1134.32C325.306 1129.02 318.768 1121.6 314.053 1112.06C309.391 1102.52 307.06 1091.38 307.06 1078.62C307.06 1065.76 309.391 1054.54 314.053 1044.95C318.768 1035.35 325.306 1027.91 333.665 1022.6C342.078 1017.3 351.857 1014.64 363.003 1014.64C374.148 1014.64 383.901 1017.3 392.26 1022.6C400.673 1027.91 407.21 1035.35 411.872 1044.95C416.588 1054.54 418.946 1065.76 418.946 1078.62C418.946 1091.38 416.588 1102.52 411.872 1112.06C407.21 1121.6 400.673 1129.02 392.26 1134.32C383.901 1139.63 374.148 1142.28 363.003 1142.28ZM363.003 1125.24C371.469 1125.24 378.435 1123.07 383.901 1118.73C389.367 1114.39 393.412 1108.68 396.038 1101.61C398.664 1094.54 399.976 1086.88 399.976 1078.62C399.976 1070.37 398.664 1062.68 396.038 1055.55C393.412 1048.43 389.367 1042.67 383.901 1038.27C378.435 1033.88 371.469 1031.68 363.003 1031.68C354.536 1031.68 347.57 1033.88 342.105 1038.27C336.639 1042.67 332.593 1048.43 329.968 1055.55C327.342 1062.68 326.029 1070.37 326.029 1078.62C326.029 1086.88 327.342 1094.54 329.968 1101.61C332.593 1108.68 336.639 1114.39 342.105 1118.73C347.57 1123.07 354.536 1125.24 363.003 1125.24ZM501.594 1016.25V1032.33H437.613V1016.25H501.594ZM456.261 986.671H475.23V1104.34C475.23 1109.7 476.007 1113.72 477.561 1116.4C479.168 1119.03 481.205 1120.79 483.67 1121.71C486.188 1122.56 488.841 1122.99 491.627 1122.99C493.717 1122.99 495.432 1122.88 496.771 1122.67C498.111 1122.4 499.182 1122.19 499.986 1122.03L503.844 1139.07C502.558 1139.55 500.763 1140.03 498.459 1140.51C496.155 1141.05 493.235 1141.32 489.698 1141.32C484.339 1141.32 479.088 1140.17 473.944 1137.86C468.853 1135.56 464.62 1132.05 461.244 1127.33C457.922 1122.62 456.261 1116.67 456.261 1109.49V986.671ZM530.128 1139.71V1016.25H549.097V1139.71H530.128ZM539.773 995.674C536.076 995.674 532.887 994.414 530.208 991.896C527.583 989.377 526.27 986.35 526.27 982.813C526.27 979.277 527.583 976.249 530.208 973.731C532.887 971.212 536.076 969.953 539.773 969.953C543.47 969.953 546.632 971.212 549.258 973.731C551.937 976.249 553.277 979.277 553.277 982.813C553.277 986.35 551.937 989.377 549.258 991.896C546.632 994.414 543.47 995.674 539.773 995.674ZM633.996 1142.28C622.85 1142.28 613.071 1139.63 604.658 1134.32C596.299 1129.02 589.761 1121.6 585.046 1112.06C580.384 1102.52 578.053 1091.38 578.053 1078.62C578.053 1065.76 580.384 1054.54 585.046 1044.95C589.761 1035.35 596.299 1027.91 604.658 1022.6C613.071 1017.3 622.85 1014.64 633.996 1014.64C645.141 1014.64 654.894 1017.3 663.253 1022.6C671.666 1027.91 678.203 1035.35 682.865 1044.95C687.581 1054.54 689.938 1065.76 689.938 1078.62C689.938 1091.38 687.581 1102.52 682.865 1112.06C678.203 1121.6 671.666 1129.02 663.253 1134.32C654.894 1139.63 645.141 1142.28 633.996 1142.28ZM633.996 1125.24C642.462 1125.24 649.428 1123.07 654.894 1118.73C660.36 1114.39 664.405 1108.68 667.031 1101.61C669.657 1094.54 670.969 1086.88 670.969 1078.62C670.969 1070.37 669.657 1062.68 667.031 1055.55C664.405 1048.43 660.36 1042.67 654.894 1038.27C649.428 1033.88 642.462 1031.68 633.996 1031.68C625.529 1031.68 618.563 1033.88 613.098 1038.27C607.632 1042.67 603.586 1048.43 600.961 1055.55C598.335 1062.68 597.022 1070.37 597.022 1078.62C597.022 1086.88 598.335 1094.54 600.961 1101.61C603.586 1108.68 607.632 1114.39 613.098 1118.73C618.563 1123.07 625.529 1125.24 633.996 1125.24ZM737.864 1065.44V1139.71H718.895V1016.25H737.221V1035.54H738.828C741.722 1029.27 746.116 1024.23 752.01 1020.43C757.904 1016.57 765.513 1014.64 774.837 1014.64C783.197 1014.64 790.511 1016.36 796.78 1019.79C803.05 1023.16 807.926 1028.31 811.409 1035.22C814.892 1042.08 816.634 1050.76 816.634 1061.26V1139.71H797.665V1062.55C797.665 1052.85 795.146 1045.29 790.109 1039.88C785.072 1034.42 778.16 1031.68 769.372 1031.68C763.316 1031.68 757.904 1033 753.135 1035.62C748.42 1038.25 744.696 1042.08 741.963 1047.12C739.23 1052.15 737.864 1058.26 737.864 1065.44Z" fill="url(#paint2_linear_105_179)"/>
<path d="M1642.97 534.677L1325.28 544.708L1328.1 243.292L1642.97 228.021V534.677Z" stroke="white" stroke-width="2" stroke-linecap="round" stroke-linejoin="round"/>
<path d="M1642.97 228.021L1539.57 159.292L1269.3 178L1328.1 243.292" stroke="white" stroke-width="2" stroke-linecap="round" stroke-linejoin="round"/>
<path d="M1325.28 544.708L1265.03 459.948L1269.3 178M1423.39 484.271V309.854M1423.39 309.854L1554.07 480.531V300.51M1423.39 309.854H1399.26M1399.26 485.906L1447.52 482.635M1529.95 302.146L1578.2 298.865" stroke="white" stroke-width="2" stroke-linecap="round" stroke-linejoin="round"/>
<path d="M0 0H568.519C568.519 0 852.779 488.931 568.519 566.877C284.26 644.822 0 566.877 0 566.877V0Z" fill="#A68695"/>
</g>
<defs>
<linearGradient id="paint0_linear_105_179" x1="2069" y1="1143" x2="4.52331e-05" y2="607.668" gradientUnits="userSpaceOnUse">
<stop stop-color="#B12292"/>
<stop offset="0.0001" stop-color="#EF2CF3"/>
<stop offset="0.490385" stop-color="#5D0755"/>
<stop offset="0.836538" stop-color="#3D0D3A"/>
</linearGradient>
<linearGradient id="paint1_linear_105_179" x1="650.5" y1="661.529" x2="650.5" y2="883.529" gradientUnits="userSpaceOnUse">
<stop offset="1" stop-color="white"/>
</linearGradient>
<linearGradient id="paint2_linear_105_179" x1="479.5" y1="920.71" x2="479.5" y2="1194.71" gradientUnits="userSpaceOnUse">
<stop offset="1" stop-color="white"/>
</linearGradient>
<clipPath id="clip0_105_179">
<rect width="1920" height="1440" fill="white"/>
</clipPath>
</defs>
</svg>
