<svg width="1920" height="1440" viewBox="0 0 1920 1440" fill="none" xmlns="http://www.w3.org/2000/svg">
<g clip-path="url(#clip0_105_101)">
<rect width="1920" height="1440" fill="url(#paint0_linear_105_101)"/>
<path d="M188.319 839.529H147.154V706.135H190.142C203.082 706.135 214.155 708.806 223.361 714.147C232.566 719.444 239.622 727.065 244.529 737.008C249.436 746.909 251.889 758.763 251.889 772.571C251.889 786.466 249.414 798.429 244.464 808.46C239.514 818.447 232.306 826.133 222.839 831.517C213.373 836.858 201.866 839.529 188.319 839.529ZM163.307 825.199H187.277C198.306 825.199 207.446 823.071 214.698 818.816C221.949 814.561 227.355 808.503 230.916 800.644C234.477 792.784 236.257 783.427 236.257 772.571C236.257 761.803 234.498 752.532 230.981 744.759C227.464 736.943 222.21 730.951 215.219 726.782C208.228 722.57 199.522 720.464 189.1 720.464H163.307V825.199ZM318.846 841.613C309.207 841.613 300.891 839.485 293.9 835.23C286.953 830.931 281.59 824.939 277.812 817.253C274.078 809.524 272.211 800.535 272.211 790.288C272.211 780.04 274.078 771.008 277.812 763.192C281.59 755.333 286.844 749.21 293.574 744.824C300.348 740.395 308.251 738.181 317.283 738.181C322.494 738.181 327.639 739.049 332.72 740.786C337.8 742.523 342.425 745.345 346.593 749.253C350.762 753.118 354.084 758.242 356.559 764.625C359.034 771.008 360.271 778.868 360.271 788.203V794.717H283.153V781.429H344.639C344.639 775.785 343.51 770.748 341.252 766.318C339.038 761.889 335.868 758.394 331.743 755.832C327.661 753.27 322.841 751.989 317.283 751.989C311.161 751.989 305.863 753.509 301.391 756.548C296.961 759.545 293.553 763.453 291.165 768.272C288.776 773.092 287.582 778.26 287.582 783.774V792.632C287.582 800.188 288.885 806.593 291.49 811.847C294.139 817.057 297.808 821.031 302.498 823.766C307.187 826.458 312.637 827.805 318.846 827.805C322.885 827.805 326.532 827.24 329.789 826.111C333.089 824.939 335.933 823.202 338.321 820.9C340.709 818.556 342.555 815.646 343.858 812.172L358.708 816.341C357.145 821.378 354.518 825.807 350.827 829.628C347.136 833.406 342.577 836.359 337.149 838.486C331.721 840.571 325.62 841.613 318.846 841.613ZM454.519 761.889L440.711 765.797C439.843 763.496 438.562 761.26 436.868 759.089C435.218 756.874 432.96 755.05 430.094 753.617C427.228 752.184 423.559 751.468 419.087 751.468C412.964 751.468 407.862 752.879 403.78 755.702C399.742 758.481 397.723 762.02 397.723 766.318C397.723 770.14 399.112 773.157 401.892 775.372C404.671 777.587 409.013 779.432 414.918 780.908L429.769 784.556C438.714 786.727 445.379 790.049 449.765 794.521C454.15 798.95 456.343 804.66 456.343 811.651C456.343 817.383 454.693 822.507 451.393 827.023C448.136 831.539 443.577 835.099 437.715 837.705C431.853 840.31 425.036 841.613 417.263 841.613C407.059 841.613 398.613 839.398 391.926 834.969C385.239 830.54 381.005 824.07 379.225 815.559L393.815 811.912C395.204 817.296 397.832 821.335 401.696 824.027C405.604 826.719 410.706 828.065 417.003 828.065C424.167 828.065 429.856 826.545 434.067 823.506C438.323 820.423 440.451 816.732 440.451 812.433C440.451 808.959 439.235 806.05 436.803 803.705C434.371 801.317 430.637 799.537 425.6 798.364L408.926 794.456C399.764 792.285 393.033 788.92 388.735 784.36C384.479 779.758 382.351 774.004 382.351 767.1C382.351 761.455 383.936 756.462 387.106 752.119C390.319 747.777 394.683 744.368 400.198 741.893C405.756 739.418 412.052 738.181 419.087 738.181C428.987 738.181 436.76 740.352 442.405 744.694C448.093 749.036 452.131 754.768 454.519 761.889ZM479.482 839.529V739.483H494.853V839.529H479.482ZM487.298 722.809C484.302 722.809 481.718 721.789 479.547 719.748C477.419 717.707 476.355 715.254 476.355 712.388C476.355 709.522 477.419 707.069 479.547 705.028C481.718 702.987 484.302 701.967 487.298 701.967C490.294 701.967 492.856 702.987 494.984 705.028C497.155 707.069 498.24 709.522 498.24 712.388C498.24 715.254 497.155 717.707 494.984 719.748C492.856 721.789 490.294 722.809 487.298 722.809ZM563.39 879.13C555.965 879.13 549.582 878.174 544.241 876.264C538.9 874.397 534.449 871.922 530.889 868.839C527.371 865.799 524.571 862.542 522.486 859.069L534.731 850.471C536.121 852.295 537.88 854.379 540.007 856.724C542.135 859.112 545.044 861.175 548.735 862.912C552.469 864.692 557.354 865.582 563.39 865.582C571.467 865.582 578.132 863.628 583.386 859.72C588.64 855.812 591.267 849.689 591.267 841.352V821.031H589.965C588.836 822.854 587.229 825.112 585.145 827.805C583.104 830.453 580.151 832.82 576.287 834.904C572.465 836.945 567.298 837.965 560.785 837.965C552.708 837.965 545.457 836.055 539.03 832.234C532.647 828.412 527.588 822.854 523.854 815.559C520.163 808.264 518.318 799.406 518.318 788.985C518.318 778.737 520.12 769.814 523.724 762.215C527.328 754.573 532.343 748.667 538.77 744.499C545.196 740.287 552.621 738.181 561.045 738.181C567.559 738.181 572.726 739.266 576.547 741.437C580.412 743.565 583.364 745.997 585.405 748.732C587.49 751.425 589.096 753.639 590.225 755.376H591.788V739.483H606.639V842.394C606.639 850.992 604.685 857.983 600.777 863.367C596.912 868.795 591.702 872.768 585.145 875.287C578.631 877.849 571.38 879.13 563.39 879.13ZM562.869 824.157C569.035 824.157 574.246 822.746 578.501 819.923C582.757 817.101 585.991 813.041 588.206 807.743C590.421 802.446 591.528 796.106 591.528 788.724C591.528 781.516 590.442 775.155 588.271 769.64C586.1 764.126 582.887 759.805 578.631 756.679C574.376 753.552 569.122 751.989 562.869 751.989C556.356 751.989 550.928 753.639 546.586 756.939C542.287 760.239 539.052 764.668 536.881 770.226C534.753 775.785 533.689 781.951 533.689 788.724C533.689 795.672 534.775 801.816 536.946 807.157C539.16 812.455 542.417 816.623 546.716 819.663C551.058 822.659 556.443 824.157 562.869 824.157ZM650.148 779.345V839.529H634.776V739.483H649.627V755.116H650.93C653.274 750.035 656.835 745.953 661.611 742.87C666.388 739.744 672.554 738.181 680.109 738.181C686.883 738.181 692.81 739.57 697.891 742.349C702.971 745.085 706.923 749.253 709.745 754.855C712.568 760.413 713.979 767.447 713.979 775.958V839.529H698.607V777C698.607 769.141 696.566 763.018 692.485 758.633C688.403 754.204 682.802 751.989 675.68 751.989C670.774 751.989 666.388 753.053 662.523 755.181C658.702 757.308 655.684 760.413 653.47 764.495C651.255 768.576 650.148 773.527 650.148 779.345Z" fill="url(#paint1_linear_105_101)"/>
<path d="M145.245 1139.71V975.097H200.866C213.78 975.097 224.336 977.428 232.535 982.09C240.787 986.698 246.896 992.941 250.861 1000.82C254.826 1008.69 256.809 1017.48 256.809 1027.18C256.809 1036.88 254.826 1045.7 250.861 1053.63C246.949 1061.56 240.894 1067.88 232.696 1072.59C224.497 1077.26 213.994 1079.59 201.188 1079.59H161.32V1061.9H200.545C209.386 1061.9 216.486 1060.38 221.845 1057.32C227.203 1054.27 231.088 1050.14 233.499 1044.95C235.964 1039.69 237.197 1033.77 237.197 1027.18C237.197 1020.59 235.964 1014.7 233.499 1009.5C231.088 1004.3 227.176 1000.23 221.764 997.281C216.352 994.28 209.172 992.78 200.223 992.78H165.178V1139.71H145.245ZM305.317 1065.44V1139.71H286.348V975.097H305.317V1035.54H306.924C309.818 1029.16 314.158 1024.1 319.945 1020.35C325.786 1016.55 333.556 1014.64 343.255 1014.64C351.668 1014.64 359.036 1016.33 365.359 1019.71C371.682 1023.03 376.585 1028.15 380.068 1035.06C383.604 1041.92 385.373 1050.65 385.373 1061.26V1139.71H366.404V1062.55C366.404 1052.74 363.858 1045.16 358.768 1039.8C353.731 1034.39 346.738 1031.68 337.789 1031.68C331.573 1031.68 326.001 1033 321.071 1035.62C316.194 1038.25 312.336 1042.08 309.496 1047.12C306.71 1052.15 305.317 1058.26 305.317 1065.44ZM470.231 1142.28C459.086 1142.28 449.306 1139.63 440.894 1134.32C432.534 1129.02 425.997 1121.6 421.281 1112.06C416.62 1102.52 414.289 1091.38 414.289 1078.62C414.289 1065.76 416.62 1054.54 421.281 1044.95C425.997 1035.35 432.534 1027.91 440.894 1022.6C449.306 1017.3 459.086 1014.64 470.231 1014.64C481.377 1014.64 491.13 1017.3 499.489 1022.6C507.902 1027.91 514.439 1035.35 519.101 1044.95C523.816 1054.54 526.174 1065.76 526.174 1078.62C526.174 1091.38 523.816 1102.52 519.101 1112.06C514.439 1121.6 507.902 1129.02 499.489 1134.32C491.13 1139.63 481.377 1142.28 470.231 1142.28ZM470.231 1125.24C478.698 1125.24 485.664 1123.07 491.13 1118.73C496.595 1114.39 500.641 1108.68 503.267 1101.61C505.892 1094.54 507.205 1086.88 507.205 1078.62C507.205 1070.37 505.892 1062.68 503.267 1055.55C500.641 1048.43 496.595 1042.67 491.13 1038.27C485.664 1033.88 478.698 1031.68 470.231 1031.68C461.765 1031.68 454.799 1033.88 449.333 1038.27C443.868 1042.67 439.822 1048.43 437.196 1055.55C434.571 1062.68 433.258 1070.37 433.258 1078.62C433.258 1086.88 434.571 1094.54 437.196 1101.61C439.822 1108.68 443.868 1114.39 449.333 1118.73C454.799 1123.07 461.765 1125.24 470.231 1125.24ZM608.822 1016.25V1032.33H544.842V1016.25H608.822ZM563.489 986.671H582.459V1104.34C582.459 1109.7 583.236 1113.72 584.789 1116.4C586.397 1119.03 588.433 1120.79 590.898 1121.71C593.417 1122.56 596.069 1122.99 598.856 1122.99C600.945 1122.99 602.66 1122.88 604 1122.67C605.339 1122.4 606.411 1122.19 607.215 1122.03L611.073 1139.07C609.787 1139.55 607.992 1140.03 605.688 1140.51C603.383 1141.05 600.463 1141.32 596.926 1141.32C591.568 1141.32 586.317 1140.17 581.172 1137.86C576.082 1135.56 571.849 1132.05 568.473 1127.33C565.151 1122.62 563.489 1116.67 563.489 1109.49V986.671ZM686.186 1142.28C675.04 1142.28 665.261 1139.63 656.848 1134.32C648.489 1129.02 641.951 1121.6 637.236 1112.06C632.574 1102.52 630.243 1091.38 630.243 1078.62C630.243 1065.76 632.574 1054.54 637.236 1044.95C641.951 1035.35 648.489 1027.91 656.848 1022.6C665.261 1017.3 675.04 1014.64 686.186 1014.64C697.331 1014.64 707.084 1017.3 715.443 1022.6C723.856 1027.91 730.393 1035.35 735.055 1044.95C739.771 1054.54 742.129 1065.76 742.129 1078.62C742.129 1091.38 739.771 1102.52 735.055 1112.06C730.393 1121.6 723.856 1129.02 715.443 1134.32C707.084 1139.63 697.331 1142.28 686.186 1142.28ZM686.186 1125.24C694.652 1125.24 701.618 1123.07 707.084 1118.73C712.55 1114.39 716.595 1108.68 719.221 1101.61C721.847 1094.54 723.159 1086.88 723.159 1078.62C723.159 1070.37 721.847 1062.68 719.221 1055.55C716.595 1048.43 712.55 1042.67 707.084 1038.27C701.618 1033.88 694.652 1031.68 686.186 1031.68C677.719 1031.68 670.753 1033.88 665.288 1038.27C659.822 1042.67 655.776 1048.43 653.151 1055.55C650.525 1062.68 649.212 1070.37 649.212 1078.62C649.212 1086.88 650.525 1094.54 653.151 1101.61C655.776 1108.68 659.822 1114.39 665.288 1118.73C670.753 1123.07 677.719 1125.24 686.186 1125.24ZM858.535 1043.9L841.495 1048.72C840.424 1045.88 838.843 1043.12 836.753 1040.44C834.717 1037.71 831.93 1035.46 828.394 1033.69C824.857 1031.92 820.329 1031.04 814.81 1031.04C807.254 1031.04 800.958 1032.78 795.921 1036.26C790.938 1039.69 788.446 1044.06 788.446 1049.37C788.446 1054.08 790.161 1057.81 793.59 1060.54C797.02 1063.27 802.378 1065.55 809.666 1067.37L827.992 1071.87C839.03 1074.55 847.256 1078.65 852.668 1084.17C858.08 1089.63 860.786 1096.68 860.786 1105.31C860.786 1112.38 858.75 1118.7 854.677 1124.28C850.658 1129.85 845.032 1134.24 837.798 1137.46C830.564 1140.67 822.151 1142.28 812.559 1142.28C799.967 1142.28 789.545 1139.55 781.292 1134.08C773.04 1128.62 767.816 1120.63 765.619 1110.13L783.623 1105.63C785.338 1112.27 788.58 1117.26 793.349 1120.58C798.172 1123.9 804.468 1125.56 812.238 1125.56C821.079 1125.56 828.099 1123.69 833.297 1119.94C838.548 1116.13 841.174 1111.58 841.174 1106.27C841.174 1101.99 839.673 1098.4 836.673 1095.5C833.672 1092.56 829.064 1090.36 822.848 1088.91L802.271 1084.09C790.965 1081.41 782.659 1077.26 777.354 1071.63C772.103 1065.95 769.477 1058.85 769.477 1050.33C769.477 1043.36 771.433 1037.2 775.345 1031.84C779.31 1026.49 784.695 1022.28 791.5 1019.22C798.359 1016.17 806.129 1014.64 814.81 1014.64C827.027 1014.64 836.619 1017.32 843.585 1022.68C850.605 1028.04 855.588 1035.11 858.535 1043.9ZM908.309 1065.44V1139.71H889.34V975.097H908.309V1035.54H909.917C912.81 1029.16 917.151 1024.1 922.938 1020.35C928.779 1016.55 936.548 1014.64 946.247 1014.64C954.66 1014.64 962.028 1016.33 968.351 1019.71C974.674 1023.03 979.577 1028.15 983.06 1035.06C986.597 1041.92 988.365 1050.65 988.365 1061.26V1139.71H969.396V1062.55C969.396 1052.74 966.851 1045.16 961.76 1039.8C956.723 1034.39 949.73 1031.68 940.782 1031.68C934.566 1031.68 928.993 1033 924.063 1035.62C919.187 1038.25 915.329 1042.08 912.489 1047.12C909.702 1052.15 908.309 1058.26 908.309 1065.44ZM1073.22 1142.28C1062.08 1142.28 1052.3 1139.63 1043.89 1134.32C1035.53 1129.02 1028.99 1121.6 1024.27 1112.06C1019.61 1102.52 1017.28 1091.38 1017.28 1078.62C1017.28 1065.76 1019.61 1054.54 1024.27 1044.95C1028.99 1035.35 1035.53 1027.91 1043.89 1022.6C1052.3 1017.3 1062.08 1014.64 1073.22 1014.64C1084.37 1014.64 1094.12 1017.3 1102.48 1022.6C1110.89 1027.91 1117.43 1035.35 1122.09 1044.95C1126.81 1054.54 1129.17 1065.76 1129.17 1078.62C1129.17 1091.38 1126.81 1102.52 1122.09 1112.06C1117.43 1121.6 1110.89 1129.02 1102.48 1134.32C1094.12 1139.63 1084.37 1142.28 1073.22 1142.28ZM1073.22 1125.24C1081.69 1125.24 1088.66 1123.07 1094.12 1118.73C1099.59 1114.39 1103.63 1108.68 1106.26 1101.61C1108.88 1094.54 1110.2 1086.88 1110.2 1078.62C1110.2 1070.37 1108.88 1062.68 1106.26 1055.55C1103.63 1048.43 1099.59 1042.67 1094.12 1038.27C1088.66 1033.88 1081.69 1031.68 1073.22 1031.68C1064.76 1031.68 1057.79 1033.88 1052.33 1038.27C1046.86 1042.67 1042.81 1048.43 1040.19 1055.55C1037.56 1062.68 1036.25 1070.37 1036.25 1078.62C1036.25 1086.88 1037.56 1094.54 1040.19 1101.61C1042.81 1108.68 1046.86 1114.39 1052.33 1118.73C1057.79 1123.07 1064.76 1125.24 1073.22 1125.24ZM1158.12 1186.01V1016.25H1176.45V1035.86H1178.7C1180.09 1033.72 1182.02 1030.99 1184.49 1027.66C1187 1024.29 1190.6 1021.29 1195.26 1018.66C1199.97 1015.98 1206.35 1014.64 1214.39 1014.64C1224.78 1014.64 1233.95 1017.24 1241.88 1022.44C1249.81 1027.64 1256 1035.01 1260.44 1044.54C1264.89 1054.08 1267.11 1065.33 1267.11 1078.3C1267.11 1091.38 1264.89 1102.71 1260.44 1112.3C1256 1121.84 1249.83 1129.23 1241.96 1134.49C1234.08 1139.68 1225 1142.28 1214.71 1142.28C1206.78 1142.28 1200.43 1140.97 1195.66 1138.34C1190.89 1135.66 1187.22 1132.64 1184.65 1129.26C1182.07 1125.83 1180.09 1122.99 1178.7 1120.74H1177.09V1186.01H1158.12ZM1176.77 1077.98C1176.77 1087.3 1178.14 1095.53 1180.87 1102.66C1183.6 1109.73 1187.59 1115.28 1192.85 1119.29C1198.1 1123.26 1204.53 1125.24 1212.14 1125.24C1220.07 1125.24 1226.68 1123.15 1231.99 1118.97C1237.35 1114.74 1241.37 1109.06 1244.05 1101.93C1246.78 1094.75 1248.15 1086.77 1248.15 1077.98C1248.15 1069.3 1246.81 1061.48 1244.13 1054.51C1241.5 1047.49 1237.51 1041.94 1232.15 1037.87C1226.85 1033.75 1220.17 1031.68 1212.14 1031.68C1204.42 1031.68 1197.94 1033.64 1192.68 1037.55C1187.43 1041.41 1183.47 1046.82 1180.79 1053.79C1178.11 1060.7 1176.77 1068.76 1176.77 1077.98Z" fill="url(#paint2_linear_105_101)"/>
<path d="M1605.04 159.292H1302.96C1279.95 159.292 1261.29 177.946 1261.29 200.958V503.042C1261.29 526.054 1279.95 544.708 1302.96 544.708H1605.04C1628.05 544.708 1646.71 526.054 1646.71 503.042V200.958C1646.71 177.946 1628.05 159.292 1605.04 159.292Z" stroke="white" stroke-width="2" stroke-linecap="round" stroke-linejoin="round"/>
<path d="M1337.36 445.75V258.25H1398.75C1433.45 258.25 1461.58 286.448 1461.58 321.219C1461.58 355.99 1433.46 384.188 1398.75 384.188H1337.36M1490.58 435.271C1499.15 442.458 1508.39 445.75 1529.13 445.75H1539.65C1547.87 445.736 1555.76 442.458 1561.57 436.636C1567.38 430.814 1570.64 422.923 1570.64 414.698C1570.64 406.474 1567.38 398.585 1561.57 392.763C1555.76 386.942 1547.88 383.662 1539.66 383.646H1518.61C1510.39 383.629 1502.51 380.349 1496.7 374.524C1490.89 368.7 1487.63 360.809 1487.64 352.583C1487.63 344.36 1490.89 336.471 1496.7 330.649C1502.51 324.827 1510.39 321.548 1518.61 321.531H1529.14C1549.89 321.531 1559.14 324.823 1567.69 332.01" stroke="white" stroke-width="2" stroke-linecap="round" stroke-linejoin="round"/>
<path d="M0 0H568.519C568.519 0 852.779 488.931 568.519 566.877C284.26 644.822 0 566.877 0 566.877V0Z" fill="#C5DA8A"/>
</g>
<defs>
<linearGradient id="paint0_linear_105_101" x1="2069" y1="1143" x2="4.52331e-05" y2="607.668" gradientUnits="userSpaceOnUse">
<stop stop-color="#13271F"/>
<stop offset="0.0001" stop-color="#706653"/>
<stop offset="0.490385" stop-color="#075D24"/>
<stop offset="0.836538" stop-color="#1F3D0D"/>
</linearGradient>
<linearGradient id="paint1_linear_105_101" x1="429.5" y1="661.529" x2="429.5" y2="883.529" gradientUnits="userSpaceOnUse">
<stop offset="1" stop-color="white"/>
</linearGradient>
<linearGradient id="paint2_linear_105_101" x1="702" y1="920.71" x2="702" y2="1194.71" gradientUnits="userSpaceOnUse">
<stop offset="1" stop-color="white"/>
</linearGradient>
<clipPath id="clip0_105_101">
<rect width="1920" height="1440" fill="white"/>
</clipPath>
</defs>
</svg>
