<svg width="1920" height="1440" viewBox="0 0 1920 1440" fill="none" xmlns="http://www.w3.org/2000/svg">
<g clip-path="url(#clip0_105_205)">
<rect width="1920" height="1440" fill="url(#paint0_linear_105_205)"/>
<path d="M188.319 839.529H147.154V706.135H190.142C203.082 706.135 214.155 708.806 223.361 714.147C232.566 719.444 239.622 727.065 244.529 737.008C249.436 746.909 251.889 758.763 251.889 772.571C251.889 786.466 249.414 798.429 244.464 808.46C239.514 818.447 232.306 826.133 222.839 831.517C213.373 836.858 201.866 839.529 188.319 839.529ZM163.307 825.199H187.277C198.306 825.199 207.446 823.071 214.698 818.816C221.949 814.561 227.355 808.503 230.916 800.644C234.477 792.784 236.257 783.427 236.257 772.571C236.257 761.803 234.498 752.532 230.981 744.759C227.464 736.943 222.21 730.951 215.219 726.782C208.228 722.57 199.522 720.464 189.1 720.464H163.307V825.199ZM318.846 841.613C309.207 841.613 300.891 839.485 293.9 835.23C286.953 830.931 281.59 824.939 277.812 817.253C274.078 809.524 272.211 800.535 272.211 790.288C272.211 780.04 274.078 771.008 277.812 763.192C281.59 755.333 286.844 749.21 293.574 744.824C300.348 740.395 308.251 738.181 317.283 738.181C322.494 738.181 327.639 739.049 332.72 740.786C337.8 742.523 342.425 745.345 346.593 749.253C350.762 753.118 354.084 758.242 356.559 764.625C359.034 771.008 360.271 778.868 360.271 788.203V794.717H283.153V781.429H344.639C344.639 775.785 343.51 770.748 341.252 766.318C339.038 761.889 335.868 758.394 331.743 755.832C327.661 753.27 322.841 751.989 317.283 751.989C311.161 751.989 305.863 753.509 301.391 756.548C296.961 759.545 293.553 763.453 291.165 768.272C288.776 773.092 287.582 778.26 287.582 783.774V792.632C287.582 800.188 288.885 806.593 291.49 811.847C294.139 817.057 297.808 821.031 302.498 823.766C307.187 826.458 312.637 827.805 318.846 827.805C322.885 827.805 326.532 827.24 329.789 826.111C333.089 824.939 335.933 823.202 338.321 820.9C340.709 818.556 342.555 815.646 343.858 812.172L358.708 816.341C357.145 821.378 354.518 825.807 350.827 829.628C347.136 833.406 342.577 836.359 337.149 838.486C331.721 840.571 325.62 841.613 318.846 841.613ZM454.519 761.889L440.711 765.797C439.843 763.496 438.562 761.26 436.868 759.089C435.218 756.874 432.96 755.05 430.094 753.617C427.228 752.184 423.559 751.468 419.087 751.468C412.964 751.468 407.862 752.879 403.78 755.702C399.742 758.481 397.723 762.02 397.723 766.318C397.723 770.14 399.112 773.157 401.892 775.372C404.671 777.587 409.013 779.432 414.918 780.908L429.769 784.556C438.714 786.727 445.379 790.049 449.765 794.521C454.15 798.95 456.343 804.66 456.343 811.651C456.343 817.383 454.693 822.507 451.393 827.023C448.136 831.539 443.577 835.099 437.715 837.705C431.853 840.31 425.036 841.613 417.263 841.613C407.059 841.613 398.613 839.398 391.926 834.969C385.239 830.54 381.005 824.07 379.225 815.559L393.815 811.912C395.204 817.296 397.832 821.335 401.696 824.027C405.604 826.719 410.706 828.065 417.003 828.065C424.167 828.065 429.856 826.545 434.067 823.506C438.323 820.423 440.451 816.732 440.451 812.433C440.451 808.959 439.235 806.05 436.803 803.705C434.371 801.317 430.637 799.537 425.6 798.364L408.926 794.456C399.764 792.285 393.033 788.92 388.735 784.36C384.479 779.758 382.351 774.004 382.351 767.1C382.351 761.455 383.936 756.462 387.106 752.119C390.319 747.777 394.683 744.368 400.198 741.893C405.756 739.418 412.052 738.181 419.087 738.181C428.987 738.181 436.76 740.352 442.405 744.694C448.093 749.036 452.131 754.768 454.519 761.889ZM479.482 839.529V739.483H494.853V839.529H479.482ZM487.298 722.809C484.302 722.809 481.718 721.789 479.547 719.748C477.419 717.707 476.355 715.254 476.355 712.388C476.355 709.522 477.419 707.069 479.547 705.028C481.718 702.987 484.302 701.967 487.298 701.967C490.294 701.967 492.856 702.987 494.984 705.028C497.155 707.069 498.24 709.522 498.24 712.388C498.24 715.254 497.155 717.707 494.984 719.748C492.856 721.789 490.294 722.809 487.298 722.809ZM563.39 879.13C555.965 879.13 549.582 878.174 544.241 876.264C538.9 874.397 534.449 871.922 530.889 868.839C527.371 865.799 524.571 862.542 522.486 859.069L534.731 850.471C536.121 852.295 537.88 854.379 540.007 856.724C542.135 859.112 545.044 861.175 548.735 862.912C552.469 864.692 557.354 865.582 563.39 865.582C571.467 865.582 578.132 863.628 583.386 859.72C588.64 855.812 591.267 849.689 591.267 841.352V821.031H589.965C588.836 822.854 587.229 825.112 585.145 827.805C583.104 830.453 580.151 832.82 576.287 834.904C572.465 836.945 567.298 837.965 560.785 837.965C552.708 837.965 545.457 836.055 539.03 832.234C532.647 828.412 527.588 822.854 523.854 815.559C520.163 808.264 518.318 799.406 518.318 788.985C518.318 778.737 520.12 769.814 523.724 762.215C527.328 754.573 532.343 748.667 538.77 744.499C545.196 740.287 552.621 738.181 561.045 738.181C567.559 738.181 572.726 739.266 576.547 741.437C580.412 743.565 583.364 745.997 585.405 748.732C587.49 751.425 589.096 753.639 590.225 755.376H591.788V739.483H606.639V842.394C606.639 850.992 604.685 857.983 600.777 863.367C596.912 868.795 591.702 872.768 585.145 875.287C578.631 877.849 571.38 879.13 563.39 879.13ZM562.869 824.157C569.035 824.157 574.246 822.746 578.501 819.923C582.757 817.101 585.991 813.041 588.206 807.743C590.421 802.446 591.528 796.106 591.528 788.724C591.528 781.516 590.442 775.155 588.271 769.64C586.1 764.126 582.887 759.805 578.631 756.679C574.376 753.552 569.122 751.989 562.869 751.989C556.356 751.989 550.928 753.639 546.586 756.939C542.287 760.239 539.052 764.668 536.881 770.226C534.753 775.785 533.689 781.951 533.689 788.724C533.689 795.672 534.775 801.816 536.946 807.157C539.16 812.455 542.417 816.623 546.716 819.663C551.058 822.659 556.443 824.157 562.869 824.157ZM650.148 779.345V839.529H634.776V739.483H649.627V755.116H650.93C653.274 750.035 656.835 745.953 661.611 742.87C666.388 739.744 672.554 738.181 680.109 738.181C686.883 738.181 692.81 739.57 697.891 742.349C702.971 745.085 706.923 749.253 709.745 754.855C712.568 760.413 713.979 767.447 713.979 775.958V839.529H698.607V777C698.607 769.141 696.566 763.018 692.485 758.633C688.403 754.204 682.802 751.989 675.68 751.989C670.774 751.989 666.388 753.053 662.523 755.181C658.702 757.308 655.684 760.413 653.47 764.495C651.255 768.576 650.148 773.527 650.148 779.345Z" fill="url(#paint1_linear_105_205)"/>
<path d="M145.389 1139.71V975.097H201.01C213.924 975.097 224.48 977.428 232.679 982.09C240.931 986.698 247.04 992.941 251.005 1000.82C254.97 1008.69 256.953 1017.48 256.953 1027.18C256.953 1036.88 254.97 1045.7 251.005 1053.63C247.093 1061.56 241.038 1067.88 232.84 1072.59C224.641 1077.26 214.138 1079.59 201.332 1079.59H161.464V1061.9H200.689C209.53 1061.9 216.63 1060.38 221.989 1057.32C227.347 1054.27 231.232 1050.14 233.643 1044.95C236.108 1039.69 237.341 1033.77 237.341 1027.18C237.341 1020.59 236.108 1014.7 233.643 1009.5C231.232 1004.3 227.32 1000.23 221.908 997.281C216.496 994.28 209.316 992.78 200.367 992.78H165.322V1139.71H145.389ZM286.492 1139.71V1016.25H304.818V1034.9H306.104C308.354 1028.79 312.427 1023.83 318.321 1020.03C324.215 1016.22 330.86 1014.32 338.255 1014.32C339.648 1014.32 341.389 1014.35 343.479 1014.4C345.569 1014.46 347.15 1014.54 348.222 1014.64V1033.93C347.579 1033.77 346.105 1033.53 343.801 1033.21C341.55 1032.83 339.166 1032.65 336.647 1032.65C330.646 1032.65 325.287 1033.91 320.572 1036.43C315.91 1038.89 312.212 1042.32 309.48 1046.71C306.8 1051.05 305.461 1056.01 305.461 1061.58V1139.71H286.492ZM418.713 1142.28C406.817 1142.28 396.555 1139.66 387.928 1134.41C379.354 1129.1 372.737 1121.71 368.075 1112.22C363.467 1102.68 361.162 1091.59 361.162 1078.94C361.162 1066.3 363.467 1055.15 368.075 1045.51C372.737 1035.81 379.221 1028.25 387.526 1022.84C395.885 1017.38 405.638 1014.64 416.784 1014.64C423.214 1014.64 429.564 1015.71 435.833 1017.86C442.103 1020 447.809 1023.48 452.954 1028.31C458.098 1033.08 462.197 1039.4 465.251 1047.28C468.306 1055.15 469.833 1064.85 469.833 1076.37V1084.41H374.666V1068.01H450.542C450.542 1061.05 449.149 1054.83 446.363 1049.37C443.63 1043.9 439.718 1039.59 434.627 1036.43C429.59 1033.26 423.642 1031.68 416.784 1031.68C409.228 1031.68 402.691 1033.56 397.171 1037.31C391.706 1041.01 387.499 1045.83 384.552 1051.78C381.605 1057.73 380.131 1064.1 380.131 1070.91V1081.84C380.131 1091.16 381.739 1099.07 384.954 1105.55C388.223 1111.98 392.751 1116.88 398.538 1120.26C404.325 1123.58 411.05 1125.24 418.713 1125.24C423.696 1125.24 428.197 1124.55 432.216 1123.15C436.289 1121.71 439.798 1119.56 442.746 1116.72C445.693 1113.83 447.97 1110.24 449.578 1105.95L467.904 1111.1C465.975 1117.31 462.733 1122.78 458.178 1127.49C453.623 1132.15 447.997 1135.8 441.299 1138.42C434.601 1141 427.072 1142.28 418.713 1142.28ZM498.688 1139.71V1016.25H517.014V1035.54H518.622C521.194 1028.95 525.347 1023.83 531.08 1020.19C536.814 1016.49 543.7 1014.64 551.738 1014.64C559.882 1014.64 566.661 1016.49 572.073 1020.19C577.539 1023.83 581.799 1028.95 584.853 1035.54H586.139C589.301 1029.16 594.043 1024.1 600.366 1020.35C606.689 1016.55 614.271 1014.64 623.113 1014.64C634.151 1014.64 643.18 1018.1 650.2 1025.01C657.22 1031.87 660.729 1042.56 660.729 1057.08V1139.71H641.76V1057.08C641.76 1047.97 639.269 1041.46 634.285 1037.55C629.302 1033.64 623.434 1031.68 616.683 1031.68C608.002 1031.68 601.277 1034.31 596.508 1039.56C591.739 1044.76 589.354 1051.35 589.354 1059.33V1139.71H570.064V1055.15C570.064 1048.13 567.786 1042.48 563.232 1038.19C558.677 1033.85 552.809 1031.68 545.629 1031.68C540.699 1031.68 536.091 1033 531.804 1035.62C527.571 1038.25 524.141 1041.89 521.516 1046.55C518.943 1051.16 517.657 1056.49 517.657 1062.55V1139.71H498.688ZM695.412 1139.71V1016.25H714.381V1139.71H695.412ZM705.058 995.674C701.36 995.674 698.172 994.414 695.493 991.896C692.867 989.377 691.554 986.35 691.554 982.813C691.554 979.277 692.867 976.249 695.493 973.731C698.172 971.212 701.36 969.953 705.058 969.953C708.755 969.953 711.917 971.212 714.542 973.731C717.222 976.249 718.561 979.277 718.561 982.813C718.561 986.35 717.222 989.377 714.542 991.896C711.917 994.414 708.755 995.674 705.058 995.674ZM800.888 1142.28C788.992 1142.28 778.73 1139.66 770.103 1134.41C761.53 1129.1 754.912 1121.71 750.25 1112.22C745.642 1102.68 743.337 1091.59 743.337 1078.94C743.337 1066.3 745.642 1055.15 750.25 1045.51C754.912 1035.81 761.396 1028.25 769.701 1022.84C778.061 1017.38 787.813 1014.64 798.959 1014.64C805.389 1014.64 811.739 1015.71 818.008 1017.86C824.278 1020 829.984 1023.48 835.129 1028.31C840.273 1033.08 844.372 1039.4 847.426 1047.28C850.481 1055.15 852.008 1064.85 852.008 1076.37V1084.41H756.841V1068.01H832.717C832.717 1061.05 831.324 1054.83 828.538 1049.37C825.805 1043.9 821.893 1039.59 816.803 1036.43C811.766 1033.26 805.818 1031.68 798.959 1031.68C791.403 1031.68 784.866 1033.56 779.347 1037.31C773.881 1041.01 769.675 1045.83 766.727 1051.78C763.78 1057.73 762.307 1064.1 762.307 1070.91V1081.84C762.307 1091.16 763.914 1099.07 767.129 1105.55C770.398 1111.98 774.926 1116.88 780.713 1120.26C786.5 1123.58 793.225 1125.24 800.888 1125.24C805.871 1125.24 810.372 1124.55 814.391 1123.15C818.464 1121.71 821.974 1119.56 824.921 1116.72C827.868 1113.83 830.145 1110.24 831.753 1105.95L850.079 1111.1C848.15 1117.31 844.908 1122.78 840.353 1127.49C835.798 1132.15 830.172 1135.8 823.474 1138.42C816.776 1141 809.247 1142.28 800.888 1142.28ZM880.864 1139.71V1016.25H899.19V1034.9H900.476C902.726 1028.79 906.799 1023.83 912.693 1020.03C918.587 1016.22 925.232 1014.32 932.627 1014.32C934.02 1014.32 935.761 1014.35 937.851 1014.4C939.941 1014.46 941.522 1014.54 942.593 1014.64V1033.93C941.95 1033.77 940.477 1033.53 938.173 1033.21C935.922 1032.83 933.538 1032.65 931.019 1032.65C925.018 1032.65 919.659 1033.91 914.944 1036.43C910.282 1038.89 906.584 1042.32 903.851 1046.71C901.172 1051.05 899.833 1056.01 899.833 1061.58V1139.71H880.864ZM1013.08 1142.28C1001.19 1142.28 990.927 1139.66 982.3 1134.41C973.726 1129.1 967.109 1121.71 962.447 1112.22C957.838 1102.68 955.534 1091.59 955.534 1078.94C955.534 1066.3 957.838 1055.15 962.447 1045.51C967.109 1035.81 973.592 1028.25 981.898 1022.84C990.257 1017.38 1000.01 1014.64 1011.16 1014.64C1017.59 1014.64 1023.94 1015.71 1030.2 1017.86C1036.47 1020 1042.18 1023.48 1047.33 1028.31C1052.47 1033.08 1056.57 1039.4 1059.62 1047.28C1062.68 1055.15 1064.2 1064.85 1064.2 1076.37V1084.41H969.038V1068.01H1044.91C1044.91 1061.05 1043.52 1054.83 1040.73 1049.37C1038 1043.9 1034.09 1039.59 1029 1036.43C1023.96 1033.26 1018.01 1031.68 1011.16 1031.68C1003.6 1031.68 997.063 1033.56 991.543 1037.31C986.078 1041.01 981.871 1045.83 978.924 1051.78C975.977 1057.73 974.503 1064.1 974.503 1070.91V1081.84C974.503 1091.16 976.111 1099.07 979.326 1105.55C982.595 1111.98 987.123 1116.88 992.91 1120.26C998.697 1123.58 1005.42 1125.24 1013.08 1125.24C1018.07 1125.24 1022.57 1124.55 1026.59 1123.15C1030.66 1121.71 1034.17 1119.56 1037.12 1116.72C1040.06 1113.83 1042.34 1110.24 1043.95 1105.95L1062.28 1111.1C1060.35 1117.31 1057.1 1122.78 1052.55 1127.49C1048 1132.15 1042.37 1135.8 1035.67 1138.42C1028.97 1141 1021.44 1142.28 1013.08 1142.28ZM1159.29 1139.71V975.097H1214.91C1227.83 975.097 1238.38 977.428 1246.58 982.09C1254.83 986.698 1260.94 992.941 1264.91 1000.82C1268.87 1008.69 1270.86 1017.48 1270.86 1027.18C1270.86 1036.88 1268.87 1045.7 1264.91 1053.63C1261 1061.56 1254.94 1067.88 1246.74 1072.59C1238.54 1077.26 1228.04 1079.59 1215.23 1079.59H1175.37V1061.9H1214.59C1223.43 1061.9 1230.53 1060.38 1235.89 1057.32C1241.25 1054.27 1245.13 1050.14 1247.55 1044.95C1250.01 1039.69 1251.24 1033.77 1251.24 1027.18C1251.24 1020.59 1250.01 1014.7 1247.55 1009.5C1245.13 1004.3 1241.22 1000.23 1235.81 997.281C1230.4 994.28 1223.22 992.78 1214.27 992.78H1179.22V1139.71H1159.29ZM1300.39 1139.71V1016.25H1318.72V1034.9H1320.01C1322.26 1028.79 1326.33 1023.83 1332.22 1020.03C1338.12 1016.22 1344.76 1014.32 1352.16 1014.32C1353.55 1014.32 1355.29 1014.35 1357.38 1014.4C1359.47 1014.46 1361.05 1014.54 1362.12 1014.64V1033.93C1361.48 1033.77 1360.01 1033.53 1357.7 1033.21C1355.45 1032.83 1353.07 1032.65 1350.55 1032.65C1344.55 1032.65 1339.19 1033.91 1334.47 1036.43C1329.81 1038.89 1326.11 1042.32 1323.38 1046.71C1320.7 1051.05 1319.36 1056.01 1319.36 1061.58V1139.71H1300.39ZM1431.01 1142.28C1419.86 1142.28 1410.08 1139.63 1401.67 1134.32C1393.31 1129.02 1386.77 1121.6 1382.06 1112.06C1377.4 1102.52 1375.06 1091.38 1375.06 1078.62C1375.06 1065.76 1377.4 1054.54 1382.06 1044.95C1386.77 1035.35 1393.31 1027.91 1401.67 1022.6C1410.08 1017.3 1419.86 1014.64 1431.01 1014.64C1442.15 1014.64 1451.91 1017.3 1460.27 1022.6C1468.68 1027.91 1475.22 1035.35 1479.88 1044.95C1484.59 1054.54 1486.95 1065.76 1486.95 1078.62C1486.95 1091.38 1484.59 1102.52 1479.88 1112.06C1475.22 1121.6 1468.68 1129.02 1460.27 1134.32C1451.91 1139.63 1442.15 1142.28 1431.01 1142.28ZM1431.01 1125.24C1439.47 1125.24 1446.44 1123.07 1451.91 1118.73C1457.37 1114.39 1461.42 1108.68 1464.04 1101.61C1466.67 1094.54 1467.98 1086.88 1467.98 1078.62C1467.98 1070.37 1466.67 1062.68 1464.04 1055.55C1461.42 1048.43 1457.37 1042.67 1451.91 1038.27C1446.44 1033.88 1439.47 1031.68 1431.01 1031.68C1422.54 1031.68 1415.58 1033.88 1410.11 1038.27C1404.64 1042.67 1400.6 1048.43 1397.97 1055.55C1395.35 1062.68 1394.03 1070.37 1394.03 1078.62C1394.03 1086.88 1395.35 1094.54 1397.97 1101.61C1400.6 1108.68 1404.64 1114.39 1410.11 1118.73C1415.58 1123.07 1422.54 1125.24 1431.01 1125.24Z" fill="url(#paint2_linear_105_205)"/>
<path d="M1349.83 445.75V362.417M1349.83 362.417V258.25H1401.92C1415.73 258.25 1428.98 263.737 1438.75 273.505C1448.51 283.272 1454 296.52 1454 310.333C1454 324.147 1448.51 337.394 1438.75 347.162C1428.98 356.929 1415.73 362.417 1401.92 362.417H1349.83ZM1526.92 289.5V445.75M1526.92 341.583C1538.31 318.458 1559.48 299.917 1599.83 299.917" stroke="white" stroke-width="4" stroke-linejoin="round"/>
<path d="M1235.25 195.75C1235.25 179.174 1241.83 163.277 1253.56 151.556C1265.28 139.835 1281.17 133.25 1297.75 133.25H1610.25C1626.83 133.25 1642.72 139.835 1654.44 151.556C1666.17 163.277 1672.75 179.174 1672.75 195.75V508.25C1672.75 524.826 1666.17 540.723 1654.44 552.444C1642.72 564.165 1626.83 570.75 1610.25 570.75H1297.75C1281.17 570.75 1265.28 564.165 1253.56 552.444C1241.83 540.723 1235.25 524.826 1235.25 508.25V195.75Z" stroke="white" stroke-width="4" stroke-linejoin="round"/>
<path d="M0 0H568.519C568.519 0 852.779 488.931 568.519 566.877C284.26 644.822 0 566.877 0 566.877V0Z" fill="#672122"/>
</g>
<defs>
<linearGradient id="paint0_linear_105_205" x1="2069" y1="1143" x2="4.52331e-05" y2="607.668" gradientUnits="userSpaceOnUse">
<stop stop-color="#1D0687"/>
<stop offset="0.0001" stop-color="#0A0B69"/>
<stop offset="0.39645" stop-color="#100A67"/>
<stop offset="0.836538" stop-color="#150C3A"/>
</linearGradient>
<linearGradient id="paint1_linear_105_205" x1="429.5" y1="661.529" x2="429.5" y2="883.529" gradientUnits="userSpaceOnUse">
<stop offset="1" stop-color="white"/>
</linearGradient>
<linearGradient id="paint2_linear_105_205" x1="812" y1="920.71" x2="812" y2="1194.71" gradientUnits="userSpaceOnUse">
<stop offset="1" stop-color="white"/>
</linearGradient>
<clipPath id="clip0_105_205">
<rect width="1920" height="1440" fill="white"/>
</clipPath>
</defs>
</svg>
