<svg width="1920" height="1440" viewBox="0 0 1920 1440" fill="none" xmlns="http://www.w3.org/2000/svg">
<g clip-path="url(#clip0_105_140)">
<rect width="1920" height="1440" fill="url(#paint0_linear_105_140)"/>
<g clip-path="url(#clip1_105_140)">
<path d="M140.731 840V706.607H185.804C196.269 706.607 204.823 708.495 211.466 712.273C218.154 716.007 223.104 721.066 226.317 727.449C229.53 733.832 231.137 740.954 231.137 748.813C231.137 756.673 229.53 763.815 226.317 770.242C223.147 776.668 218.24 781.792 211.597 785.614C204.953 789.391 196.442 791.28 186.064 791.28H153.758V776.951H185.543C192.708 776.951 198.462 775.713 202.804 773.238C207.146 770.763 210.294 767.42 212.248 763.208C214.246 758.952 215.244 754.154 215.244 748.813C215.244 743.472 214.246 738.696 212.248 734.484C210.294 730.272 207.124 726.972 202.739 724.583C198.353 722.152 192.534 720.936 185.283 720.936H156.885V840H140.731ZM255.073 840V739.955H269.924V755.066H270.966C272.79 750.116 276.09 746.099 280.866 743.016C285.643 739.933 291.027 738.392 297.019 738.392C298.148 738.392 299.56 738.413 301.253 738.457C302.947 738.5 304.227 738.565 305.096 738.652V754.284C304.575 754.154 303.381 753.959 301.514 753.698C299.69 753.394 297.758 753.242 295.717 753.242C290.853 753.242 286.511 754.263 282.69 756.303C278.912 758.301 275.916 761.08 273.702 764.641C271.53 768.158 270.445 772.174 270.445 776.69V840H255.073ZM360.915 842.084C351.884 842.084 343.959 839.935 337.142 835.636C330.368 831.337 325.07 825.323 321.249 817.594C317.471 809.865 315.582 800.833 315.582 790.499C315.582 780.077 317.471 770.98 321.249 763.208C325.07 755.435 330.368 749.399 337.142 745.1C343.959 740.802 351.884 738.652 360.915 738.652C369.947 738.652 377.85 740.802 384.624 745.1C391.441 749.399 396.739 755.435 400.517 763.208C404.338 770.98 406.248 780.077 406.248 790.499C406.248 800.833 404.338 809.865 400.517 817.594C396.739 825.323 391.441 831.337 384.624 835.636C377.85 839.935 369.947 842.084 360.915 842.084ZM360.915 828.276C367.776 828.276 373.421 826.517 377.85 823C382.279 819.483 385.558 814.858 387.685 809.127C389.813 803.395 390.877 797.186 390.877 790.499C390.877 783.811 389.813 777.58 387.685 771.805C385.558 766.03 382.279 761.362 377.85 757.801C373.421 754.241 367.776 752.461 360.915 752.461C354.055 752.461 348.41 754.241 343.981 757.801C339.552 761.362 336.273 766.03 334.146 771.805C332.018 777.58 330.954 783.811 330.954 790.499C330.954 797.186 332.018 803.395 334.146 809.127C336.273 814.858 339.552 819.483 343.981 823C348.41 826.517 354.055 828.276 360.915 828.276ZM470.095 879.601C462.67 879.601 456.287 878.646 450.946 876.735C445.605 874.868 441.154 872.393 437.594 869.31C434.077 866.271 431.276 863.014 429.192 859.54L441.437 850.942C442.826 852.766 444.585 854.85 446.712 857.195C448.84 859.583 451.749 861.646 455.44 863.383C459.175 865.163 464.06 866.053 470.095 866.053C478.172 866.053 484.837 864.099 490.091 860.191C495.346 856.283 497.973 850.161 497.973 841.824V821.502H496.67C495.541 823.326 493.934 825.584 491.85 828.276C489.809 830.925 486.856 833.291 482.992 835.376C479.171 837.416 474.003 838.437 467.49 838.437C459.414 838.437 452.162 836.526 445.735 832.705C439.352 828.884 434.294 823.326 430.559 816.031C426.868 808.736 425.023 799.878 425.023 789.456C425.023 779.209 426.825 770.285 430.429 762.686C434.033 755.044 439.048 749.139 445.475 744.97C451.901 740.758 459.327 738.652 467.751 738.652C474.264 738.652 479.431 739.738 483.252 741.909C487.117 744.037 490.07 746.468 492.111 749.204C494.195 751.896 495.801 754.111 496.93 755.847H498.494V739.955H513.344V842.866C513.344 851.464 511.39 858.454 507.482 863.839C503.617 869.267 498.407 873.24 491.85 875.758C485.337 878.32 478.085 879.601 470.095 879.601ZM469.574 824.628C475.74 824.628 480.951 823.217 485.206 820.395C489.462 817.572 492.697 813.512 494.911 808.215C497.126 802.917 498.233 796.578 498.233 789.196C498.233 781.988 497.148 775.626 494.976 770.112C492.805 764.597 489.592 760.277 485.337 757.15C481.081 754.024 475.827 752.461 469.574 752.461C463.061 752.461 457.633 754.111 453.291 757.411C448.992 760.711 445.757 765.14 443.586 770.698C441.458 776.256 440.395 782.422 440.395 789.196C440.395 796.143 441.48 802.288 443.651 807.629C445.866 812.926 449.122 817.095 453.421 820.134C457.763 823.13 463.148 824.628 469.574 824.628ZM541.482 840V739.955H556.332V755.066H557.374C559.198 750.116 562.498 746.099 567.275 743.016C572.051 739.933 577.436 738.392 583.428 738.392C584.557 738.392 585.968 738.413 587.661 738.457C589.355 738.5 590.636 738.565 591.504 738.652V754.284C590.983 754.154 589.789 753.959 587.922 753.698C586.098 753.394 584.166 753.242 582.125 753.242C577.262 753.242 572.92 754.263 569.098 756.303C565.321 758.301 562.325 761.08 560.11 764.641C557.939 768.158 556.853 772.174 556.853 776.69V840H541.482ZM639.166 842.345C632.826 842.345 627.073 841.151 621.905 838.762C616.738 836.331 612.635 832.835 609.595 828.276C606.556 823.673 605.036 818.115 605.036 811.602C605.036 805.87 606.165 801.224 608.423 797.663C610.681 794.059 613.699 791.237 617.476 789.196C621.254 787.155 625.423 785.635 629.982 784.637C634.585 783.594 639.209 782.769 643.855 782.161C649.935 781.38 654.863 780.794 658.641 780.403C662.462 779.969 665.241 779.252 666.978 778.253C668.758 777.255 669.648 775.518 669.648 773.043V772.522C669.648 766.095 667.89 761.102 664.372 757.541C660.899 753.98 655.623 752.2 648.545 752.2C641.207 752.2 635.453 753.807 631.285 757.02C627.116 760.233 624.185 763.664 622.492 767.311L607.902 762.1C610.507 756.021 613.981 751.288 618.323 747.901C622.709 744.471 627.485 742.083 632.652 740.737C637.863 739.347 642.987 738.652 648.024 738.652C651.237 738.652 654.928 739.043 659.097 739.825C663.309 740.563 667.369 742.104 671.277 744.449C675.228 746.794 678.506 750.333 681.112 755.066C683.717 759.799 685.02 766.139 685.02 774.085V840H669.648V826.452H668.867C667.825 828.623 666.088 830.946 663.656 833.422C661.224 835.897 657.989 838.003 653.951 839.739C649.913 841.476 644.984 842.345 639.166 842.345ZM641.511 828.536C647.59 828.536 652.714 827.342 656.882 824.954C661.094 822.566 664.264 819.483 666.392 815.705C668.563 811.927 669.648 807.954 669.648 803.786V789.717C668.997 790.499 667.564 791.215 665.349 791.866C663.178 792.474 660.66 793.017 657.794 793.495C654.972 793.929 652.214 794.32 649.522 794.667C646.873 794.971 644.724 795.232 643.074 795.449C639.079 795.97 635.345 796.816 631.871 797.989C628.44 799.118 625.661 800.833 623.534 803.134C621.449 805.392 620.407 808.475 620.407 812.383C620.407 817.724 622.383 821.763 626.335 824.498C630.329 827.19 635.388 828.536 641.511 828.536ZM713.076 840V739.955H727.926V755.587H729.229C731.313 750.246 734.679 746.099 739.325 743.146C743.971 740.15 749.551 738.652 756.064 738.652C762.664 738.652 768.157 740.15 772.543 743.146C776.972 746.099 780.424 750.246 782.899 755.587H783.941C786.503 750.42 790.346 746.316 795.47 743.277C800.594 740.194 806.738 738.652 813.903 738.652C822.848 738.652 830.164 741.453 835.853 747.054C841.541 752.613 844.385 761.275 844.385 773.043V840H829.014V773.043C829.014 765.661 826.995 760.385 822.956 757.215C818.918 754.045 814.163 752.461 808.692 752.461C801.658 752.461 796.208 754.588 792.344 758.844C788.479 763.056 786.547 768.397 786.547 774.866V840H770.915V771.48C770.915 765.791 769.069 761.21 765.378 757.736C761.687 754.219 756.933 752.461 751.114 752.461C747.119 752.461 743.385 753.524 739.911 755.652C736.481 757.78 733.702 760.732 731.574 764.51C729.49 768.245 728.448 772.565 728.448 777.472V840H713.076ZM872.49 840V739.955H887.341V755.587H888.643C890.728 750.246 894.093 746.099 898.739 743.146C903.385 740.15 908.965 738.652 915.478 738.652C922.079 738.652 927.572 740.15 931.957 743.146C936.386 746.099 939.838 750.246 942.313 755.587H943.356C945.918 750.42 949.76 746.316 954.884 743.277C960.008 740.194 966.152 738.652 973.317 738.652C982.262 738.652 989.579 741.453 995.267 747.054C1000.96 752.613 1003.8 761.275 1003.8 773.043V840H988.428V773.043C988.428 765.661 986.409 760.385 982.371 757.215C978.332 754.045 973.578 752.461 968.106 752.461C961.072 752.461 955.622 754.588 951.758 758.844C947.893 763.056 945.961 768.397 945.961 774.866V840H930.329V771.48C930.329 765.791 928.483 761.21 924.793 757.736C921.102 754.219 916.347 752.461 910.528 752.461C906.533 752.461 902.799 753.524 899.325 755.652C895.895 757.78 893.116 760.732 890.988 764.51C888.904 768.245 887.862 772.565 887.862 777.472V840H872.49ZM1031.9 840V739.955H1047.28V840H1031.9ZM1039.72 723.281C1036.72 723.281 1034.14 722.26 1031.97 720.219C1029.84 718.179 1028.78 715.725 1028.78 712.859C1028.78 709.993 1029.84 707.54 1031.97 705.499C1034.14 703.458 1036.72 702.438 1039.72 702.438C1042.72 702.438 1045.28 703.458 1047.41 705.499C1049.58 707.54 1050.66 709.993 1050.66 712.859C1050.66 715.725 1049.58 718.179 1047.41 720.219C1045.28 722.26 1042.72 723.281 1039.72 723.281ZM1090.8 779.817V840H1075.43V739.955H1090.28V755.587H1091.58C1093.93 750.507 1097.49 746.425 1102.27 743.342C1107.04 740.215 1113.21 738.652 1120.76 738.652C1127.54 738.652 1133.46 740.042 1138.54 742.821C1143.62 745.556 1147.58 749.725 1150.4 755.326C1153.22 760.884 1154.63 767.919 1154.63 776.43V840H1139.26V777.472C1139.26 769.612 1137.22 763.49 1133.14 759.104C1129.06 754.675 1123.46 752.461 1116.33 752.461C1111.43 752.461 1107.04 753.524 1103.18 755.652C1099.36 757.78 1096.34 760.884 1094.12 764.966C1091.91 769.048 1090.8 773.998 1090.8 779.817ZM1223.1 879.601C1215.68 879.601 1209.3 878.646 1203.95 876.735C1198.61 874.868 1194.16 872.393 1190.6 869.31C1187.09 866.271 1184.28 863.014 1182.2 859.54L1194.45 850.942C1195.83 852.766 1197.59 854.85 1199.72 857.195C1201.85 859.583 1204.76 861.646 1208.45 863.383C1212.18 865.163 1217.07 866.053 1223.1 866.053C1231.18 866.053 1237.85 864.099 1243.1 860.191C1248.35 856.283 1250.98 850.161 1250.98 841.824V821.502H1249.68C1248.55 823.326 1246.94 825.584 1244.86 828.276C1242.82 830.925 1239.87 833.291 1236 835.376C1232.18 837.416 1227.01 838.437 1220.5 838.437C1212.42 838.437 1205.17 836.526 1198.74 832.705C1192.36 828.884 1187.3 823.326 1183.57 816.031C1179.88 808.736 1178.03 799.878 1178.03 789.456C1178.03 779.209 1179.83 770.285 1183.44 762.686C1187.04 755.044 1192.06 749.139 1198.48 744.97C1204.91 740.758 1212.34 738.652 1220.76 738.652C1227.27 738.652 1232.44 739.738 1236.26 741.909C1240.13 744.037 1243.08 746.468 1245.12 749.204C1247.2 751.896 1248.81 754.111 1249.94 755.847H1251.5V739.955H1266.35V842.866C1266.35 851.464 1264.4 858.454 1260.49 863.839C1256.63 869.267 1251.42 873.24 1244.86 875.758C1238.35 878.32 1231.09 879.601 1223.1 879.601ZM1222.58 824.628C1228.75 824.628 1233.96 823.217 1238.22 820.395C1242.47 817.572 1245.71 813.512 1247.92 808.215C1250.13 802.917 1251.24 796.578 1251.24 789.196C1251.24 781.988 1250.16 775.626 1247.99 770.112C1245.81 764.597 1242.6 760.277 1238.35 757.15C1234.09 754.024 1228.84 752.461 1222.58 752.461C1216.07 752.461 1210.64 754.111 1206.3 757.411C1202 760.711 1198.77 765.14 1196.59 770.698C1194.47 776.256 1193.4 782.422 1193.4 789.196C1193.4 796.143 1194.49 802.288 1196.66 807.629C1198.87 812.926 1202.13 817.095 1206.43 820.134C1210.77 823.13 1216.16 824.628 1222.58 824.628Z" fill="url(#paint1_linear_105_140)"/>
</g>
<path d="M145.069 1139.71V975.097H200.69C213.604 975.097 224.16 977.428 232.359 982.09C240.611 986.698 246.72 992.941 250.685 1000.82C254.65 1008.69 256.633 1017.48 256.633 1027.18C256.633 1036.88 254.65 1045.7 250.685 1053.63C246.773 1061.56 240.718 1067.88 232.52 1072.59C224.321 1077.26 213.818 1079.59 201.012 1079.59H161.144V1061.9H200.368C209.21 1061.9 216.31 1060.38 221.669 1057.32C227.027 1054.27 230.912 1050.14 233.323 1044.95C235.788 1039.69 237.021 1033.77 237.021 1027.18C237.021 1020.59 235.788 1014.7 233.323 1009.5C230.912 1004.3 227 1000.23 221.588 997.281C216.176 994.28 208.996 992.78 200.047 992.78H165.002V1139.71H145.069ZM298.389 1186.01C295.174 1186.01 292.307 1185.74 289.789 1185.2C287.27 1184.72 285.528 1184.24 284.564 1183.76L289.387 1167.04C293.995 1168.22 298.067 1168.65 301.604 1168.32C305.141 1168 308.275 1166.42 311.008 1163.58C313.795 1160.8 316.34 1156.27 318.644 1150L322.181 1140.35L276.526 1016.25H297.103L331.183 1114.63H332.469L366.549 1016.25H387.126L334.72 1157.71C332.362 1164.09 329.441 1169.37 325.958 1173.55C322.475 1177.78 318.43 1180.92 313.821 1182.95C309.267 1184.99 304.123 1186.01 298.389 1186.01ZM465.856 1016.25V1032.33H401.875V1016.25H465.856ZM420.523 986.671H439.492V1104.34C439.492 1109.7 440.269 1113.72 441.823 1116.4C443.43 1119.03 445.466 1120.79 447.931 1121.71C450.45 1122.56 453.102 1122.99 455.889 1122.99C457.979 1122.99 459.693 1122.88 461.033 1122.67C462.373 1122.4 463.444 1122.19 464.248 1122.03L468.106 1139.07C466.82 1139.55 465.025 1140.03 462.721 1140.51C460.417 1141.05 457.496 1141.32 453.96 1141.32C448.601 1141.32 443.35 1140.17 438.206 1137.86C433.115 1135.56 428.882 1132.05 425.506 1127.33C422.184 1122.62 420.523 1116.67 420.523 1109.49V986.671ZM516.011 1065.44V1139.71H497.042V975.097H516.011V1035.54H517.619C520.512 1029.16 524.853 1024.1 530.64 1020.35C536.481 1016.55 544.25 1014.64 553.949 1014.64C562.362 1014.64 569.73 1016.33 576.053 1019.71C582.376 1023.03 587.279 1028.15 590.762 1035.06C594.299 1041.92 596.067 1050.65 596.067 1061.26V1139.71H577.098V1062.55C577.098 1052.74 574.553 1045.16 569.462 1039.8C564.425 1034.39 557.432 1031.68 548.484 1031.68C542.268 1031.68 536.695 1033 531.765 1035.62C526.889 1038.25 523.031 1042.08 520.191 1047.12C517.404 1052.15 516.011 1058.26 516.011 1065.44ZM680.926 1142.28C669.78 1142.28 660.001 1139.63 651.588 1134.32C643.229 1129.02 636.691 1121.6 631.976 1112.06C627.314 1102.52 624.983 1091.38 624.983 1078.62C624.983 1065.76 627.314 1054.54 631.976 1044.95C636.691 1035.35 643.229 1027.91 651.588 1022.6C660.001 1017.3 669.78 1014.64 680.926 1014.64C692.071 1014.64 701.824 1017.3 710.183 1022.6C718.596 1027.91 725.133 1035.35 729.795 1044.95C734.511 1054.54 736.869 1065.76 736.869 1078.62C736.869 1091.38 734.511 1102.52 729.795 1112.06C725.133 1121.6 718.596 1129.02 710.183 1134.32C701.824 1139.63 692.071 1142.28 680.926 1142.28ZM680.926 1125.24C689.392 1125.24 696.358 1123.07 701.824 1118.73C707.29 1114.39 711.335 1108.68 713.961 1101.61C716.587 1094.54 717.899 1086.88 717.899 1078.62C717.899 1070.37 716.587 1062.68 713.961 1055.55C711.335 1048.43 707.29 1042.67 701.824 1038.27C696.358 1033.88 689.392 1031.68 680.926 1031.68C672.459 1031.68 665.493 1033.88 660.028 1038.27C654.562 1042.67 650.516 1048.43 647.891 1055.55C645.265 1062.68 643.952 1070.37 643.952 1078.62C643.952 1086.88 645.265 1094.54 647.891 1101.61C650.516 1108.68 654.562 1114.39 660.028 1118.73C665.493 1123.07 672.459 1125.24 680.926 1125.24ZM784.794 1065.44V1139.71H765.825V1016.25H784.151V1035.54H785.758C788.652 1029.27 793.046 1024.23 798.94 1020.43C804.834 1016.57 812.444 1014.64 821.767 1014.64C830.127 1014.64 837.441 1016.36 843.71 1019.79C849.98 1023.16 854.856 1028.31 858.339 1035.22C861.822 1042.08 863.564 1050.76 863.564 1061.26V1139.71H844.595V1062.55C844.595 1052.85 842.076 1045.29 837.039 1039.88C832.002 1034.42 825.09 1031.68 816.302 1031.68C810.247 1031.68 804.834 1033 800.065 1035.62C795.35 1038.25 791.626 1042.08 788.893 1047.12C786.16 1052.15 784.794 1058.26 784.794 1065.44Z" fill="url(#paint2_linear_105_140)"/>
<path d="M1577.15 334.948V357.677L1502.75 486.74H1449.52" stroke="white" stroke-width="2" stroke-linecap="round" stroke-linejoin="round"/>
<path d="M1467.85 334.948V357.677L1511.21 431.74H1534.47M1330.85 217.26V420.698M1376.26 332.781L1331.49 298.354V251.917L1376.26 217.521H1397.14L1441.9 251.917V298.354L1397.14 332.771L1376.26 332.781Z" stroke="white" stroke-width="2" stroke-linecap="round" stroke-linejoin="round"/>
<path d="M1605.04 159.292H1302.96C1279.95 159.292 1261.29 177.946 1261.29 200.958V503.042C1261.29 526.054 1279.95 544.708 1302.96 544.708H1605.04C1628.05 544.708 1646.71 526.054 1646.71 503.042V200.958C1646.71 177.946 1628.05 159.292 1605.04 159.292Z" stroke="white" stroke-width="2" stroke-linecap="round" stroke-linejoin="round"/>
<path d="M0 0H568.519C568.519 0 852.779 488.931 568.519 566.877C284.26 644.822 0 566.877 0 566.877V0Z" fill="#DA8A8E"/>
</g>
<defs>
<linearGradient id="paint0_linear_105_140" x1="2069" y1="1143" x2="4.52331e-05" y2="607.668" gradientUnits="userSpaceOnUse">
<stop stop-color="#B70E0E"/>
<stop offset="0.0001" stop-color="#BC6666"/>
<stop offset="0.490385" stop-color="#5D0707"/>
<stop offset="0.836538" stop-color="#3D0D0D"/>
</linearGradient>
<linearGradient id="paint1_linear_105_140" x1="702.5" y1="662" x2="702.5" y2="884" gradientUnits="userSpaceOnUse">
<stop offset="1" stop-color="white"/>
</linearGradient>
<linearGradient id="paint2_linear_105_140" x1="503" y1="920.71" x2="503" y2="1194.71" gradientUnits="userSpaceOnUse">
<stop offset="1" stop-color="white"/>
</linearGradient>
<clipPath id="clip0_105_140">
<rect width="1920" height="1440" fill="white"/>
</clipPath>
<clipPath id="clip1_105_140">
<rect width="1387" height="282" fill="white" transform="translate(131 632)"/>
</clipPath>
</defs>
</svg>
