<svg width="1920" height="1440" viewBox="0 0 1920 1440" fill="none" xmlns="http://www.w3.org/2000/svg">
<g clip-path="url(#clip0_105_166)">
<rect width="1920" height="1440" fill="url(#paint0_linear_105_166)"/>
<path d="M188.811 839.529H147.646V706.135H190.634C203.574 706.135 214.647 708.806 223.852 714.147C233.058 719.444 240.114 727.065 245.021 737.008C249.928 746.909 252.381 758.763 252.381 772.571C252.381 786.466 249.906 798.429 244.956 808.46C240.006 818.447 232.797 826.133 223.331 831.517C213.865 836.858 202.358 839.529 188.811 839.529ZM163.799 825.199H187.768C198.798 825.199 207.938 823.071 215.19 818.816C222.441 814.561 227.847 808.503 231.408 800.644C234.969 792.784 236.749 783.427 236.749 772.571C236.749 761.803 234.99 752.532 231.473 744.759C227.956 736.943 222.702 730.951 215.711 726.782C208.72 722.57 200.014 720.464 189.592 720.464H163.799V825.199ZM306.833 841.873C300.493 841.873 294.739 840.679 289.572 838.291C284.405 835.859 280.301 832.364 277.262 827.805C274.222 823.202 272.703 817.644 272.703 811.13C272.703 805.399 273.832 800.752 276.09 797.192C278.347 793.588 281.365 790.765 285.143 788.724C288.921 786.684 293.089 785.164 297.649 784.165C302.251 783.123 306.876 782.298 311.522 781.69C317.601 780.908 322.53 780.322 326.307 779.931C330.129 779.497 332.908 778.781 334.645 777.782C336.425 776.783 337.315 775.046 337.315 772.571V772.05C337.315 765.624 335.556 760.63 332.039 757.07C328.565 753.509 323.29 751.729 316.212 751.729C308.873 751.729 303.12 753.335 298.951 756.548C294.783 759.762 291.852 763.192 290.158 766.84L275.568 761.629C278.174 755.55 281.648 750.817 285.99 747.43C290.375 743.999 295.152 741.611 300.319 740.265C305.53 738.876 310.654 738.181 315.691 738.181C318.904 738.181 322.595 738.572 326.763 739.353C330.975 740.091 335.035 741.633 338.943 743.978C342.895 746.322 346.173 749.861 348.779 754.594C351.384 759.327 352.687 765.667 352.687 773.613V839.529H337.315V825.981H336.533C335.491 828.152 333.754 830.475 331.323 832.95C328.891 835.425 325.656 837.531 321.618 839.268C317.58 841.005 312.651 841.873 306.833 841.873ZM309.177 828.065C315.256 828.065 320.38 826.871 324.549 824.483C328.761 822.094 331.931 819.012 334.058 815.234C336.229 811.456 337.315 807.483 337.315 803.314V789.245C336.664 790.027 335.231 790.744 333.016 791.395C330.845 792.003 328.327 792.546 325.461 793.023C322.638 793.457 319.881 793.848 317.189 794.196C314.54 794.5 312.391 794.76 310.741 794.977C306.746 795.498 303.011 796.345 299.538 797.517C296.107 798.646 293.328 800.362 291.2 802.663C289.116 804.921 288.074 808.004 288.074 811.912C288.074 817.253 290.05 821.291 294.001 824.027C297.996 826.719 303.055 828.065 309.177 828.065ZM424.252 739.483V752.51H372.406V739.483H424.252ZM387.517 715.514H402.888V810.87C402.888 815.212 403.518 818.469 404.777 820.64C406.08 822.768 407.73 824.2 409.727 824.939C411.768 825.633 413.917 825.981 416.175 825.981C417.869 825.981 419.258 825.894 420.344 825.72C421.43 825.503 422.298 825.329 422.949 825.199L426.076 839.007C425.034 839.398 423.579 839.789 421.712 840.18C419.845 840.614 417.478 840.831 414.612 840.831C410.27 840.831 406.015 839.898 401.846 838.03C397.721 836.163 394.291 833.319 391.555 829.498C388.863 825.677 387.517 820.857 387.517 815.038V715.514ZM476.815 841.873C470.475 841.873 464.722 840.679 459.554 838.291C454.387 835.859 450.284 832.364 447.244 827.805C444.205 823.202 442.685 817.644 442.685 811.13C442.685 805.399 443.814 800.752 446.072 797.192C448.33 793.588 451.348 790.765 455.125 788.724C458.903 786.684 463.072 785.164 467.631 784.165C472.234 783.123 476.858 782.298 481.504 781.69C487.584 780.908 492.512 780.322 496.29 779.931C500.111 779.497 502.89 778.781 504.627 777.782C506.407 776.783 507.297 775.046 507.297 772.571V772.05C507.297 765.624 505.539 760.63 502.021 757.07C498.548 753.509 493.272 751.729 486.194 751.729C478.856 751.729 473.102 753.335 468.934 756.548C464.765 759.762 461.834 763.192 460.141 766.84L445.551 761.629C448.156 755.55 451.63 750.817 455.972 747.43C460.358 743.999 465.134 741.611 470.301 740.265C475.512 738.876 480.636 738.181 485.673 738.181C488.886 738.181 492.577 738.572 496.746 739.353C500.958 740.091 505.018 741.633 508.926 743.978C512.877 746.322 516.155 749.861 518.761 754.594C521.366 759.327 522.669 765.667 522.669 773.613V839.529H507.297V825.981H506.516C505.474 828.152 503.737 830.475 501.305 832.95C498.873 835.425 495.638 837.531 491.6 839.268C487.562 841.005 482.633 841.873 476.815 841.873ZM479.16 828.065C485.239 828.065 490.363 826.871 494.531 824.483C498.743 822.094 501.913 819.012 504.041 815.234C506.212 811.456 507.297 807.483 507.297 803.314V789.245C506.646 790.027 505.213 790.744 502.998 791.395C500.827 792.003 498.309 792.546 495.443 793.023C492.621 793.457 489.863 793.848 487.171 794.196C484.522 794.5 482.373 794.76 480.723 794.977C476.728 795.498 472.994 796.345 469.52 797.517C466.089 798.646 463.31 800.362 461.183 802.663C459.098 804.921 458.056 808.004 458.056 811.912C458.056 817.253 460.032 821.291 463.983 824.027C467.978 826.719 473.037 828.065 479.16 828.065ZM552.809 839.529V706.135H568.181V755.376H569.483C570.612 753.639 572.176 751.425 574.173 748.732C576.214 745.997 579.123 743.565 582.901 741.437C586.722 739.266 591.889 738.181 598.403 738.181C606.827 738.181 614.252 740.287 620.678 744.499C627.105 748.711 632.12 754.681 635.724 762.41C639.328 770.14 641.13 779.258 641.13 789.767C641.13 800.362 639.328 809.545 635.724 817.318C632.12 825.047 627.127 831.039 620.744 835.295C614.36 839.507 607 841.613 598.663 841.613C592.237 841.613 587.091 840.549 583.227 838.421C579.362 836.25 576.388 833.797 574.303 831.061C572.219 828.282 570.612 825.981 569.483 824.157H567.66V839.529H552.809ZM567.92 789.506C567.92 797.062 569.028 803.727 571.242 809.502C573.457 815.234 576.692 819.728 580.947 822.985C585.202 826.198 590.413 827.805 596.579 827.805C603.006 827.805 608.368 826.111 612.667 822.724C617.009 819.294 620.266 814.691 622.437 808.916C624.652 803.097 625.759 796.627 625.759 789.506C625.759 782.472 624.673 776.132 622.502 770.487C620.374 764.799 617.14 760.304 612.797 757.004C608.498 753.661 603.092 751.989 596.579 751.989C590.326 751.989 585.072 753.574 580.817 756.744C576.561 759.87 573.348 764.256 571.177 769.901C569.006 775.502 567.92 782.037 567.92 789.506ZM694.084 841.873C687.744 841.873 681.991 840.679 676.824 838.291C671.656 835.859 667.553 832.364 664.513 827.805C661.474 823.202 659.954 817.644 659.954 811.13C659.954 805.399 661.083 800.752 663.341 797.192C665.599 793.588 668.617 790.765 672.394 788.724C676.172 786.684 680.341 785.164 684.9 784.165C689.503 783.123 694.127 782.298 698.774 781.69C704.853 780.908 709.781 780.322 713.559 779.931C717.38 779.497 720.159 778.781 721.896 777.782C723.676 776.783 724.566 775.046 724.566 772.571V772.05C724.566 765.624 722.808 760.63 719.291 757.07C715.817 753.509 710.541 751.729 703.463 751.729C696.125 751.729 690.371 753.335 686.203 756.548C682.034 759.762 679.103 763.192 677.41 766.84L662.82 761.629C665.425 755.55 668.899 750.817 673.241 747.43C677.627 743.999 682.403 741.611 687.571 740.265C692.781 738.876 697.905 738.181 702.942 738.181C706.155 738.181 709.846 738.572 714.015 739.353C718.227 740.091 722.287 741.633 726.195 743.978C730.146 746.322 733.425 749.861 736.03 754.594C738.635 759.327 739.938 765.667 739.938 773.613V839.529H724.566V825.981H723.785C722.743 828.152 721.006 830.475 718.574 832.95C716.142 835.425 712.907 837.531 708.869 839.268C704.831 841.005 699.903 841.873 694.084 841.873ZM696.429 828.065C702.508 828.065 707.632 826.871 711.8 824.483C716.012 822.094 719.182 819.012 721.31 815.234C723.481 811.456 724.566 807.483 724.566 803.314V789.245C723.915 790.027 722.482 790.744 720.268 791.395C718.096 792.003 715.578 792.546 712.712 793.023C709.89 793.457 707.132 793.848 704.44 794.196C701.791 794.5 699.642 794.76 697.992 794.977C693.997 795.498 690.263 796.345 686.789 797.517C683.359 798.646 680.58 800.362 678.452 802.663C676.368 804.921 675.325 808.004 675.325 811.912C675.325 817.253 677.301 821.291 681.253 824.027C685.247 826.719 690.306 828.065 696.429 828.065ZM838.859 761.889L825.051 765.797C824.183 763.496 822.902 761.26 821.208 759.089C819.558 756.874 817.3 755.05 814.434 753.617C811.568 752.184 807.899 751.468 803.427 751.468C797.304 751.468 792.202 752.879 788.12 755.702C784.082 758.481 782.063 762.02 782.063 766.318C782.063 770.14 783.452 773.157 786.232 775.372C789.011 777.587 793.353 779.432 799.258 780.908L814.109 784.556C823.054 786.727 829.719 790.049 834.105 794.521C838.49 798.95 840.683 804.66 840.683 811.651C840.683 817.383 839.033 822.507 835.733 827.023C832.476 831.539 827.917 835.099 822.055 837.705C816.193 840.31 809.376 841.613 801.603 841.613C791.399 841.613 782.953 839.398 776.266 834.969C769.579 830.54 765.345 824.07 763.565 815.559L778.155 811.912C779.544 817.296 782.172 821.335 786.036 824.027C789.944 826.719 795.046 828.065 801.343 828.065C808.507 828.065 814.196 826.545 818.407 823.506C822.663 820.423 824.791 816.732 824.791 812.433C824.791 808.959 823.575 806.05 821.143 803.705C818.711 801.317 814.977 799.537 809.94 798.364L793.266 794.456C784.104 792.285 777.373 788.92 773.075 784.36C768.819 779.758 766.691 774.004 766.691 767.1C766.691 761.455 768.276 756.462 771.446 752.119C774.659 747.777 779.023 744.368 784.538 741.893C790.096 739.418 796.392 738.181 803.427 738.181C813.327 738.181 821.1 740.352 826.745 744.694C832.433 749.036 836.471 754.768 838.859 761.889ZM905.768 841.613C896.128 841.613 887.813 839.485 880.822 835.23C873.874 830.931 868.512 824.939 864.734 817.253C860.999 809.524 859.132 800.535 859.132 790.288C859.132 780.04 860.999 771.008 864.734 763.192C868.512 755.333 873.766 749.21 880.496 744.824C887.27 740.395 895.173 738.181 904.205 738.181C909.415 738.181 914.561 739.049 919.641 740.786C924.722 742.523 929.346 745.345 933.515 749.253C937.683 753.118 941.005 758.242 943.48 764.625C945.955 771.008 947.193 778.868 947.193 788.203V794.717H870.075V781.429H931.561C931.561 775.785 930.432 770.748 928.174 766.318C925.959 761.889 922.789 758.394 918.664 755.832C914.583 753.27 909.763 751.989 904.205 751.989C898.082 751.989 892.785 753.509 888.312 756.548C883.883 759.545 880.474 763.453 878.086 768.272C875.698 773.092 874.504 778.26 874.504 783.774V792.632C874.504 800.188 875.806 806.593 878.412 811.847C881.061 817.057 884.73 821.031 889.419 823.766C894.109 826.458 899.558 827.805 905.768 827.805C909.806 827.805 913.454 827.24 916.71 826.111C920.01 824.939 922.855 823.202 925.243 820.9C927.631 818.556 929.476 815.646 930.779 812.172L945.63 816.341C944.066 821.378 941.439 825.807 937.748 829.628C934.058 833.406 929.498 836.359 924.07 838.486C918.643 840.571 912.542 841.613 905.768 841.613Z" fill="url(#paint1_linear_105_166)"/>
<path d="M235.424 1016.25C234.459 1008.11 230.547 1001.78 223.688 997.281C216.83 992.78 208.417 990.529 198.45 990.529C191.162 990.529 184.786 991.708 179.32 994.066C173.908 996.424 169.675 999.666 166.62 1003.79C163.62 1007.92 162.119 1012.61 162.119 1017.86C162.119 1022.25 163.164 1026.03 165.254 1029.19C167.397 1032.3 170.13 1034.9 173.452 1036.99C176.775 1039.02 180.258 1040.71 183.902 1042.05C187.545 1043.34 190.894 1044.38 193.949 1045.19L210.667 1049.69C214.954 1050.81 219.723 1052.37 224.974 1054.35C230.279 1056.33 235.343 1059.04 240.166 1062.47C245.042 1065.84 249.061 1070.18 252.222 1075.49C255.384 1080.79 256.965 1087.3 256.965 1095.02C256.965 1103.92 254.634 1111.95 249.972 1119.13C245.364 1126.31 238.612 1132.02 229.717 1136.25C220.875 1140.49 210.131 1142.6 197.485 1142.6C185.697 1142.6 175.489 1140.7 166.862 1136.9C158.288 1133.09 151.536 1127.79 146.606 1120.98C141.73 1114.18 138.97 1106.27 138.327 1097.27H158.904C159.44 1103.49 161.53 1108.63 165.174 1112.7C168.871 1116.72 173.533 1119.72 179.159 1121.71C184.839 1123.63 190.948 1124.6 197.485 1124.6C205.094 1124.6 211.927 1123.37 217.982 1120.9C224.037 1118.38 228.833 1114.9 232.369 1110.45C235.906 1105.95 237.674 1100.7 237.674 1094.7C237.674 1089.23 236.147 1084.79 233.093 1081.36C230.038 1077.93 226.019 1075.14 221.036 1073C216.053 1070.85 210.667 1068.98 204.88 1067.37L184.625 1061.58C171.765 1057.89 161.583 1052.61 154.081 1045.75C146.58 1038.89 142.829 1029.91 142.829 1018.82C142.829 1009.61 145.32 1001.57 150.304 994.709C155.341 987.797 162.092 982.438 170.559 978.634C179.079 974.775 188.59 972.846 199.093 972.846C209.703 972.846 219.134 974.749 227.386 978.553C235.638 982.304 242.175 987.448 246.998 993.986C251.874 1000.52 254.446 1007.94 254.714 1016.25H235.424ZM349.54 1088.27H371.402L389.728 1112.38L394.551 1118.81L421.879 1155.14H400.017L382.012 1131.03L377.511 1124.92L349.54 1088.27ZM428.631 1057.4C428.631 1074.77 425.496 1089.77 419.227 1102.42C412.957 1115.06 404.357 1124.81 393.426 1131.67C382.494 1138.53 370.009 1141.96 355.97 1141.96C341.931 1141.96 329.445 1138.53 318.514 1131.67C307.583 1124.81 298.982 1115.06 292.713 1102.42C286.443 1089.77 283.308 1074.77 283.308 1057.4C283.308 1040.04 286.443 1025.04 292.713 1012.39C298.982 999.746 307.583 989.994 318.514 983.135C329.445 976.276 341.931 972.846 355.97 972.846C370.009 972.846 382.494 976.276 393.426 983.135C404.357 989.994 412.957 999.746 419.227 1012.39C425.496 1025.04 428.631 1040.04 428.631 1057.4ZM409.34 1057.4C409.34 1043.15 406.956 1031.12 402.187 1021.31C397.471 1011.51 391.068 1004.09 382.977 999.049C374.939 994.013 365.937 991.494 355.97 991.494C346.003 991.494 336.974 994.013 328.883 999.049C320.845 1004.09 314.441 1011.51 309.672 1021.31C304.957 1031.12 302.599 1043.15 302.599 1057.4C302.599 1071.66 304.957 1083.69 309.672 1093.49C314.441 1103.3 320.845 1110.72 328.883 1115.76C336.974 1120.79 346.003 1123.31 355.97 1123.31C365.937 1123.31 374.939 1120.79 382.977 1115.76C391.068 1110.72 397.471 1103.3 402.187 1093.49C406.956 1083.69 409.34 1071.66 409.34 1057.4ZM462.149 1139.71V975.097H482.082V1122.03H558.602V1139.71H462.149Z" fill="url(#paint2_linear_105_166)"/>
<path d="M1279.38 483.531V220.271M1628.63 309.021C1628.63 343.604 1551.04 371.375 1454 371.375C1356.96 371.375 1279.38 343.698 1279.38 309.115M1628.63 394.99C1628.63 429.573 1551.05 457.25 1454 457.25C1356.95 457.25 1279.38 429.583 1279.38 394.99M1279.39 483.635C1279.39 516.937 1356.95 544.708 1454 544.708C1551.05 544.708 1628.63 516.937 1628.63 483.635V220.271M1628.63 220.365C1628.63 254.948 1551.04 282.625 1454 282.625C1356.96 282.625 1279.38 254.958 1279.38 220.365C1282.15 187.063 1358.44 159.292 1452.61 159.292C1548.28 159.292 1625.85 186.958 1628.63 220.365Z" stroke="white" stroke-width="2" stroke-linecap="round" stroke-linejoin="round"/>
<path d="M0 0H568.519C568.519 0 852.779 488.931 568.519 566.877C284.26 644.822 0 566.877 0 566.877V0Z" fill="#8AA4DA" fill-opacity="0.41"/>
</g>
<defs>
<linearGradient id="paint0_linear_105_166" x1="2069" y1="1143" x2="4.52331e-05" y2="607.668" gradientUnits="userSpaceOnUse">
<stop stop-color="#56D3A1"/>
<stop offset="0.0001" stop-color="#362D1B"/>
<stop offset="0.490385" stop-color="#45786E"/>
<stop offset="0.836538" stop-color="#284317"/>
</linearGradient>
<linearGradient id="paint1_linear_105_166" x1="544" y1="661.529" x2="544" y2="883.529" gradientUnits="userSpaceOnUse">
<stop offset="1" stop-color="white"/>
</linearGradient>
<linearGradient id="paint2_linear_105_166" x1="347.5" y1="920.71" x2="347.5" y2="1194.71" gradientUnits="userSpaceOnUse">
<stop offset="1" stop-color="white"/>
</linearGradient>
<clipPath id="clip0_105_166">
<rect width="1920" height="1440" fill="white"/>
</clipPath>
</defs>
</svg>
