<svg width="1920" height="1440" viewBox="0 0 1920 1440" fill="none" xmlns="http://www.w3.org/2000/svg">
<rect width="1920" height="1440" fill="#1E1E1E"/>
<rect width="1920" height="1440" fill="url(#paint0_linear_99_13)"/>
<path d="M0 0H568.519C568.519 0 852.779 488.931 568.519 566.877C284.26 644.822 0 566.877 0 566.877V0Z" fill="#698646"/>
<g clip-path="url(#clip0_99_13)">
<path d="M214.373 739.483C213.592 732.883 210.422 727.759 204.864 724.112C199.306 720.464 192.489 718.641 184.412 718.641C178.507 718.641 173.339 719.596 168.91 721.507C164.525 723.417 161.094 726.044 158.619 729.388C156.187 732.731 154.972 736.531 154.972 740.786C154.972 744.347 155.818 747.408 157.512 749.97C159.249 752.488 161.463 754.594 164.155 756.288C166.848 757.938 169.67 759.306 172.623 760.391C175.575 761.433 178.289 762.28 180.764 762.932L194.312 766.579C197.786 767.491 201.651 768.75 205.906 770.357C210.205 771.963 214.308 774.156 218.216 776.935C222.168 779.671 225.424 783.188 227.986 787.487C230.548 791.786 231.829 797.062 231.829 803.314C231.829 810.522 229.94 817.036 226.163 822.854C222.428 828.673 216.957 833.297 209.749 836.728C202.584 840.158 193.878 841.873 183.63 841.873C174.077 841.873 165.805 840.332 158.814 837.249C151.867 834.166 146.396 829.867 142.401 824.352C138.449 818.838 136.213 812.433 135.692 805.138H152.366C152.8 810.175 154.494 814.344 157.447 817.644C160.443 820.9 164.221 823.332 168.78 824.939C173.383 826.502 178.333 827.283 183.63 827.283C189.796 827.283 195.333 826.285 200.239 824.287C205.146 822.246 209.032 819.424 211.898 815.82C214.764 812.172 216.197 807.917 216.197 803.054C216.197 798.625 214.96 795.021 212.484 792.242C210.009 789.463 206.753 787.205 202.714 785.468C198.676 783.731 194.312 782.211 189.623 780.908L173.209 776.219C162.788 773.223 154.537 768.946 148.458 763.387C142.379 757.829 139.34 750.556 139.34 741.568C139.34 734.099 141.359 727.586 145.397 722.028C149.479 716.426 154.95 712.084 161.811 709.001C168.715 705.875 176.422 704.311 184.933 704.311C193.531 704.311 201.173 705.853 207.86 708.936C214.547 711.975 219.845 716.144 223.753 721.441C227.704 726.739 229.788 732.753 230.005 739.483H214.373ZM296.946 841.613C287.915 841.613 279.99 839.463 273.173 835.165C266.399 830.866 261.101 824.852 257.28 817.123C253.502 809.393 251.613 800.362 251.613 790.027C251.613 779.606 253.502 770.509 257.28 762.736C261.101 754.964 266.399 748.928 273.173 744.629C279.99 740.33 287.915 738.181 296.946 738.181C305.978 738.181 313.881 740.33 320.655 744.629C327.472 748.928 332.77 754.964 336.548 762.736C340.369 770.509 342.279 779.606 342.279 790.027C342.279 800.362 340.369 809.393 336.548 817.123C332.77 824.852 327.472 830.866 320.655 835.165C313.881 839.463 305.978 841.613 296.946 841.613ZM296.946 827.805C303.807 827.805 309.452 826.046 313.881 822.529C318.31 819.012 321.589 814.387 323.716 808.655C325.844 802.924 326.908 796.714 326.908 790.027C326.908 783.34 325.844 777.109 323.716 771.334C321.589 765.559 318.31 760.891 313.881 757.33C309.452 753.769 303.807 751.989 296.946 751.989C290.086 751.989 284.441 753.769 280.012 757.33C275.583 760.891 272.304 765.559 270.177 771.334C268.049 777.109 266.985 783.34 266.985 790.027C266.985 796.714 268.049 802.924 270.177 808.655C272.304 814.387 275.583 819.012 280.012 822.529C284.441 826.046 290.086 827.805 296.946 827.805ZM410.295 739.483V752.51H356.364V739.483H410.295ZM372.518 839.529V725.675C372.518 719.943 373.864 715.167 376.556 711.346C379.248 707.525 382.744 704.659 387.042 702.748C391.341 700.838 395.879 699.882 400.655 699.882C404.433 699.882 407.516 700.186 409.904 700.794C412.292 701.402 414.073 701.967 415.245 702.488L410.816 715.775C410.034 715.514 408.949 715.189 407.559 714.798C406.213 714.407 404.433 714.212 402.218 714.212C397.138 714.212 393.469 715.493 391.211 718.055C388.996 720.616 387.889 724.372 387.889 729.323V839.529H372.518ZM475.347 739.483V752.51H423.501V739.483H475.347ZM438.612 715.514H453.983V810.87C453.983 815.212 454.613 818.469 455.872 820.64C457.175 822.768 458.825 824.2 460.822 824.939C462.863 825.633 465.013 825.981 467.271 825.981C468.964 825.981 470.354 825.894 471.439 825.72C472.525 825.503 473.393 825.329 474.044 825.199L477.171 839.007C476.129 839.398 474.674 839.789 472.807 840.18C470.94 840.614 468.573 840.831 465.707 840.831C461.365 840.831 457.11 839.898 452.941 838.03C448.816 836.163 445.386 833.319 442.65 829.498C439.958 825.677 438.612 820.857 438.612 815.038V715.514ZM521.136 839.529L490.654 739.483H506.807L528.431 816.08H529.473L550.837 739.483H567.251L588.354 815.82H589.396L611.02 739.483H627.173L596.691 839.529H581.58L559.695 762.671H558.132L536.247 839.529H521.136ZM676.935 841.873C670.596 841.873 664.842 840.679 659.675 838.291C654.508 835.859 650.404 832.364 647.365 827.805C644.325 823.202 642.805 817.644 642.805 811.13C642.805 805.399 643.934 800.752 646.192 797.192C648.45 793.588 651.468 790.765 655.246 788.724C659.024 786.684 663.192 785.164 667.752 784.165C672.354 783.123 676.979 782.298 681.625 781.69C687.704 780.908 692.633 780.322 696.41 779.931C700.232 779.497 703.011 778.781 704.747 777.782C706.528 776.783 707.418 775.046 707.418 772.571V772.05C707.418 765.624 705.659 760.63 702.142 757.07C698.668 753.509 693.392 751.729 686.315 751.729C678.976 751.729 673.223 753.335 669.054 756.548C664.886 759.762 661.955 763.192 660.261 766.84L645.671 761.629C648.277 755.55 651.75 750.817 656.093 747.43C660.478 743.999 665.255 741.611 670.422 740.265C675.633 738.876 680.757 738.181 685.794 738.181C689.007 738.181 692.698 738.572 696.866 739.353C701.078 740.091 705.138 741.633 709.046 743.978C712.998 746.322 716.276 749.861 718.881 754.594C721.487 759.327 722.789 765.667 722.789 773.613V839.529H707.418V825.981H706.636C705.594 828.152 703.857 830.475 701.426 832.95C698.994 835.425 695.759 837.531 691.721 839.268C687.682 841.005 682.754 841.873 676.935 841.873ZM679.28 828.065C685.359 828.065 690.483 826.871 694.652 824.483C698.864 822.094 702.034 819.012 704.161 815.234C706.332 811.456 707.418 807.483 707.418 803.314V789.245C706.767 790.027 705.334 790.744 703.119 791.395C700.948 792.003 698.429 792.546 695.564 793.023C692.741 793.457 689.984 793.848 687.292 794.196C684.643 794.5 682.493 794.76 680.843 794.977C676.849 795.498 673.114 796.345 669.64 797.517C666.21 798.646 663.431 800.362 661.303 802.663C659.219 804.921 658.177 808.004 658.177 811.912C658.177 817.253 660.153 821.291 664.104 824.027C668.099 826.719 673.158 828.065 679.28 828.065ZM750.846 839.529V739.483H765.696V754.594H766.738C768.562 749.644 771.862 745.628 776.639 742.545C781.415 739.462 786.799 737.92 792.792 737.92C793.921 737.92 795.332 737.942 797.025 737.985C798.719 738.029 800 738.094 800.868 738.181V753.813C800.347 753.683 799.153 753.487 797.286 753.227C795.462 752.923 793.53 752.771 791.489 752.771C786.626 752.771 782.283 753.791 778.462 755.832C774.685 757.829 771.688 760.608 769.474 764.169C767.303 767.686 766.217 771.703 766.217 776.219V839.529H750.846ZM857.99 841.613C848.351 841.613 840.035 839.485 833.044 835.23C826.097 830.931 820.734 824.939 816.956 817.253C813.222 809.524 811.355 800.535 811.355 790.288C811.355 780.04 813.222 771.008 816.956 763.192C820.734 755.333 825.988 749.21 832.718 744.824C839.492 740.395 847.395 738.181 856.427 738.181C861.638 738.181 866.783 739.049 871.864 740.786C876.944 742.523 881.569 745.345 885.737 749.253C889.906 753.118 893.228 758.242 895.703 764.625C898.178 771.008 899.415 778.868 899.415 788.203V794.717H822.297V781.429H883.783C883.783 775.785 882.654 770.748 880.396 766.318C878.182 761.889 875.012 758.394 870.887 755.832C866.805 753.27 861.985 751.989 856.427 751.989C850.305 751.989 845.007 753.509 840.535 756.548C836.105 759.545 832.697 763.453 830.309 768.272C827.92 773.092 826.726 778.26 826.726 783.774V792.632C826.726 800.188 828.029 806.593 830.634 811.847C833.283 817.057 836.952 821.031 841.642 823.766C846.331 826.458 851.781 827.805 857.99 827.805C862.029 827.805 865.676 827.24 868.933 826.111C872.233 824.939 875.077 823.202 877.465 820.9C879.853 818.556 881.699 815.646 883.002 812.172L897.852 816.341C896.289 821.378 893.662 825.807 889.971 829.628C886.28 833.406 881.721 836.359 876.293 838.486C870.865 840.571 864.764 841.613 857.99 841.613Z" fill="url(#paint1_linear_99_13)"/>
</g>
<path d="M163.2 1139.71V975.097H261.904V992.78H183.134V1048.4H254.509V1066.08H183.134V1139.71H163.2ZM293.472 1139.71V1016.25H312.441V1139.71H293.472ZM303.118 995.674C299.42 995.674 296.232 994.414 293.553 991.896C290.927 989.377 289.614 986.35 289.614 982.813C289.614 979.277 290.927 976.249 293.553 973.731C296.232 971.212 299.42 969.953 303.118 969.953C306.815 969.953 309.977 971.212 312.602 973.731C315.281 976.249 316.621 979.277 316.621 982.813C316.621 986.35 315.281 989.377 312.602 991.896C309.977 994.414 306.815 995.674 303.118 995.674ZM397.019 1188.58C387.856 1188.58 379.979 1187.4 373.388 1185.04C366.797 1182.74 361.304 1179.68 356.91 1175.88C352.57 1172.13 349.114 1168.11 346.542 1163.82L361.653 1153.21C363.367 1155.46 365.538 1158.04 368.163 1160.93C370.789 1163.88 374.379 1166.42 378.934 1168.57C383.542 1170.76 389.57 1171.86 397.019 1171.86C406.986 1171.86 415.211 1169.45 421.695 1164.63C428.178 1159.8 431.42 1152.25 431.42 1141.96V1116.88H429.813C428.42 1119.13 426.437 1121.92 423.865 1125.24C421.346 1128.51 417.703 1131.43 412.933 1134C408.218 1136.52 401.841 1137.78 393.804 1137.78C383.837 1137.78 374.888 1135.42 366.958 1130.71C359.081 1125.99 352.838 1119.13 348.23 1110.13C343.675 1101.13 341.397 1090.2 341.397 1077.34C341.397 1064.69 343.621 1053.68 348.069 1044.3C352.516 1034.87 358.705 1027.58 366.636 1022.44C374.567 1017.24 383.73 1014.64 394.125 1014.64C402.163 1014.64 408.54 1015.98 413.255 1018.66C418.024 1021.29 421.668 1024.29 424.186 1027.66C426.758 1030.99 428.741 1033.72 430.134 1035.86H432.063V1016.25H450.389V1143.25C450.389 1153.86 447.978 1162.48 443.155 1169.13C438.386 1175.83 431.956 1180.73 423.865 1183.84C415.827 1187 406.878 1188.58 397.019 1188.58ZM396.376 1120.74C403.985 1120.74 410.415 1119 415.666 1115.52C420.918 1112.03 424.91 1107.02 427.643 1100.49C430.375 1093.95 431.742 1086.13 431.742 1077.02C431.742 1068.12 430.402 1060.27 427.723 1053.47C425.044 1046.66 421.078 1041.33 415.827 1037.47C410.576 1033.61 404.092 1031.68 396.376 1031.68C388.338 1031.68 381.64 1033.72 376.281 1037.79C370.976 1041.86 366.984 1047.33 364.305 1054.19C361.679 1061.05 360.367 1068.66 360.367 1077.02C360.367 1085.59 361.706 1093.17 364.385 1099.76C367.118 1106.3 371.137 1111.44 376.442 1115.2C381.801 1118.89 388.445 1120.74 396.376 1120.74ZM485.113 1139.71V1016.25H503.439V1035.54H505.046C507.618 1028.95 511.771 1023.83 517.505 1020.19C523.238 1016.49 530.124 1014.64 538.162 1014.64C546.307 1014.64 553.085 1016.49 558.497 1020.19C563.963 1023.83 568.223 1028.95 571.277 1035.54H572.563C575.725 1029.16 580.467 1024.1 586.79 1020.35C593.113 1016.55 600.695 1014.64 609.537 1014.64C620.575 1014.64 629.605 1018.1 636.624 1025.01C643.644 1031.87 647.154 1042.56 647.154 1057.08V1139.71H628.185V1057.08C628.185 1047.97 625.693 1041.46 620.709 1037.55C615.726 1033.64 609.858 1031.68 603.107 1031.68C594.426 1031.68 587.701 1034.31 582.932 1039.56C578.163 1044.76 575.778 1051.35 575.778 1059.33V1139.71H556.488V1055.15C556.488 1048.13 554.21 1042.48 549.656 1038.19C545.101 1033.85 539.233 1031.68 532.053 1031.68C527.123 1031.68 522.515 1033 518.228 1035.62C513.995 1038.25 510.565 1041.89 507.94 1046.55C505.368 1051.16 504.082 1056.49 504.082 1062.55V1139.71H485.113ZM718.167 1142.6C710.344 1142.6 703.244 1141.13 696.867 1138.18C690.491 1135.18 685.427 1130.87 681.676 1125.24C677.925 1119.56 676.049 1112.7 676.049 1104.67C676.049 1097.59 677.443 1091.86 680.229 1087.46C683.015 1083.02 686.74 1079.53 691.401 1077.02C696.063 1074.5 701.208 1072.62 706.834 1071.39C712.514 1070.1 718.221 1069.09 723.954 1068.33C731.456 1067.37 737.538 1066.65 742.2 1066.16C746.916 1065.63 750.345 1064.74 752.488 1063.51C754.685 1062.28 755.784 1060.14 755.784 1057.08V1056.44C755.784 1048.51 753.614 1042.35 749.273 1037.95C744.987 1033.56 738.476 1031.36 729.742 1031.36C720.686 1031.36 713.586 1033.34 708.442 1037.31C703.297 1041.27 699.68 1045.51 697.591 1050.01L679.586 1043.58C682.801 1036.08 687.088 1030.24 692.446 1026.06C697.858 1021.82 703.753 1018.88 710.129 1017.21C716.56 1015.5 722.883 1014.64 729.099 1014.64C733.064 1014.64 737.619 1015.13 742.763 1016.09C747.96 1017 752.971 1018.9 757.793 1021.8C762.67 1024.69 766.715 1029.06 769.93 1034.9C773.145 1040.74 774.753 1048.56 774.753 1058.37V1139.71H755.784V1122.99H754.819C753.533 1125.67 751.39 1128.54 748.389 1131.59C745.388 1134.65 741.396 1137.25 736.413 1139.39C731.43 1141.53 725.348 1142.6 718.167 1142.6ZM721.061 1125.56C728.563 1125.56 734.886 1124.09 740.03 1121.14C745.228 1118.2 749.139 1114.39 751.765 1109.73C754.444 1105.07 755.784 1100.16 755.784 1095.02V1077.66C754.98 1078.62 753.212 1079.51 750.479 1080.31C747.8 1081.06 744.692 1081.73 741.155 1082.32C737.672 1082.86 734.27 1083.34 730.947 1083.77C727.679 1084.14 725.026 1084.46 722.99 1084.73C718.06 1085.37 713.452 1086.42 709.165 1087.87C704.932 1089.26 701.502 1091.38 698.877 1094.22C696.305 1097 695.018 1100.81 695.018 1105.63C695.018 1112.22 697.457 1117.2 702.333 1120.58C707.263 1123.9 713.505 1125.56 721.061 1125.56ZM875.607 1139.71V975.097H933.157C944.624 975.097 954.082 977.08 961.53 981.045C968.979 984.957 974.525 990.235 978.169 996.879C981.812 1003.47 983.634 1010.78 983.634 1018.82C983.634 1025.9 982.375 1031.74 979.856 1036.34C977.392 1040.95 974.123 1044.6 970.05 1047.28C966.032 1049.96 961.664 1051.94 956.949 1053.22V1054.83C961.986 1055.15 967.05 1056.92 972.14 1060.14C977.231 1063.35 981.491 1067.96 984.92 1073.96C988.35 1079.96 990.064 1087.3 990.064 1095.98C990.064 1104.24 988.189 1111.66 984.438 1118.25C980.687 1124.84 974.766 1130.06 966.675 1133.92C958.583 1137.78 948.054 1139.71 935.086 1139.71H875.607ZM895.54 1122.03H935.086C948.107 1122.03 957.351 1119.51 962.816 1114.47C968.336 1109.38 971.095 1103.22 971.095 1095.98C971.095 1090.41 969.675 1085.27 966.835 1080.55C963.995 1075.78 959.95 1071.98 954.698 1069.14C949.447 1066.25 943.231 1064.8 936.051 1064.8H895.54V1122.03ZM895.54 1047.44H932.514C938.516 1047.44 943.928 1046.26 948.75 1043.9C953.627 1041.54 957.485 1038.22 960.325 1033.93C963.218 1029.65 964.665 1024.61 964.665 1018.82C964.665 1011.59 962.147 1005.45 957.11 1000.42C952.073 995.325 944.088 992.78 933.157 992.78H895.54V1047.44ZM1056.58 1142.6C1048.75 1142.6 1041.65 1141.13 1035.28 1138.18C1028.9 1135.18 1023.84 1130.87 1020.09 1125.24C1016.33 1119.56 1014.46 1112.7 1014.46 1104.67C1014.46 1097.59 1015.85 1091.86 1018.64 1087.46C1021.42 1083.02 1025.15 1079.53 1029.81 1077.02C1034.47 1074.5 1039.62 1072.62 1045.24 1071.39C1050.92 1070.1 1056.63 1069.09 1062.36 1068.33C1069.87 1067.37 1075.95 1066.65 1080.61 1066.16C1085.33 1065.63 1088.75 1064.74 1090.9 1063.51C1093.09 1062.28 1094.19 1060.14 1094.19 1057.08V1056.44C1094.19 1048.51 1092.02 1042.35 1087.68 1037.95C1083.4 1033.56 1076.89 1031.36 1068.15 1031.36C1059.1 1031.36 1052 1033.34 1046.85 1037.31C1041.71 1041.27 1038.09 1045.51 1036 1050.01L1018 1043.58C1021.21 1036.08 1025.5 1030.24 1030.86 1026.06C1036.27 1021.82 1042.16 1018.88 1048.54 1017.21C1054.97 1015.5 1061.29 1014.64 1067.51 1014.64C1071.47 1014.64 1076.03 1015.13 1081.17 1016.09C1086.37 1017 1091.38 1018.9 1096.2 1021.8C1101.08 1024.69 1105.12 1029.06 1108.34 1034.9C1111.55 1040.74 1113.16 1048.56 1113.16 1058.37V1139.71H1094.19V1122.99H1093.23C1091.94 1125.67 1089.8 1128.54 1086.8 1131.59C1083.8 1134.65 1079.81 1137.25 1074.82 1139.39C1069.84 1141.53 1063.76 1142.6 1056.58 1142.6ZM1059.47 1125.56C1066.97 1125.56 1073.3 1124.09 1078.44 1121.14C1083.64 1118.2 1087.55 1114.39 1090.17 1109.73C1092.85 1105.07 1094.19 1100.16 1094.19 1095.02V1077.66C1093.39 1078.62 1091.62 1079.51 1088.89 1080.31C1086.21 1081.06 1083.1 1081.73 1079.56 1082.32C1076.08 1082.86 1072.68 1083.34 1069.36 1083.77C1066.09 1084.14 1063.44 1084.46 1061.4 1084.73C1056.47 1085.37 1051.86 1086.42 1047.57 1087.87C1043.34 1089.26 1039.91 1091.38 1037.29 1094.22C1034.71 1097 1033.43 1100.81 1033.43 1105.63C1033.43 1112.22 1035.87 1117.2 1040.74 1120.58C1045.67 1123.9 1051.91 1125.56 1059.47 1125.56ZM1235.24 1043.9L1218.2 1048.72C1217.12 1045.88 1215.54 1043.12 1213.45 1040.44C1211.42 1037.71 1208.63 1035.46 1205.09 1033.69C1201.56 1031.92 1197.03 1031.04 1191.51 1031.04C1183.96 1031.04 1177.66 1032.78 1172.62 1036.26C1167.64 1039.69 1165.15 1044.06 1165.15 1049.37C1165.15 1054.08 1166.86 1057.81 1170.29 1060.54C1173.72 1063.27 1179.08 1065.55 1186.37 1067.37L1204.69 1071.87C1215.73 1074.55 1223.96 1078.65 1229.37 1084.17C1234.78 1089.63 1237.49 1096.68 1237.49 1105.31C1237.49 1112.38 1235.45 1118.7 1231.38 1124.28C1227.36 1129.85 1221.73 1134.24 1214.5 1137.46C1207.26 1140.67 1198.85 1142.28 1189.26 1142.28C1176.67 1142.28 1166.25 1139.55 1157.99 1134.08C1149.74 1128.62 1144.52 1120.63 1142.32 1110.13L1160.32 1105.63C1162.04 1112.27 1165.28 1117.26 1170.05 1120.58C1174.87 1123.9 1181.17 1125.56 1188.94 1125.56C1197.78 1125.56 1204.8 1123.69 1210 1119.94C1215.25 1116.13 1217.87 1111.58 1217.87 1106.27C1217.87 1101.99 1216.37 1098.4 1213.37 1095.5C1210.37 1092.56 1205.76 1090.36 1199.55 1088.91L1178.97 1084.09C1167.67 1081.41 1159.36 1077.26 1154.05 1071.63C1148.8 1065.95 1146.18 1058.85 1146.18 1050.33C1146.18 1043.36 1148.13 1037.2 1152.05 1031.84C1156.01 1026.49 1161.4 1022.28 1168.2 1019.22C1175.06 1016.17 1182.83 1014.64 1191.51 1014.64C1203.73 1014.64 1213.32 1017.32 1220.29 1022.68C1227.31 1028.04 1232.29 1035.11 1235.24 1043.9ZM1266.04 1139.71V1016.25H1285.01V1139.71H1266.04ZM1275.69 995.674C1271.99 995.674 1268.8 994.414 1266.12 991.896C1263.5 989.377 1262.18 986.35 1262.18 982.813C1262.18 979.277 1263.5 976.249 1266.12 973.731C1268.8 971.212 1271.99 969.953 1275.69 969.953C1279.38 969.953 1282.54 971.212 1285.17 973.731C1287.85 976.249 1289.19 979.277 1289.19 982.813C1289.19 986.35 1287.85 989.377 1285.17 991.896C1282.54 994.414 1279.38 995.674 1275.69 995.674ZM1369.91 1142.28C1358.33 1142.28 1348.37 1139.55 1340.01 1134.08C1331.65 1128.62 1325.22 1121.09 1320.72 1111.5C1316.22 1101.91 1313.97 1090.95 1313.97 1078.62C1313.97 1066.08 1316.27 1055.02 1320.88 1045.43C1325.54 1035.78 1332.02 1028.25 1340.33 1022.84C1348.69 1017.38 1358.44 1014.64 1369.59 1014.64C1378.27 1014.64 1386.09 1016.25 1393.06 1019.47C1400.02 1022.68 1405.73 1027.18 1410.18 1032.97C1414.63 1038.76 1417.38 1045.51 1418.46 1053.22H1399.49C1398.04 1047.6 1394.83 1042.61 1389.84 1038.27C1384.91 1033.88 1378.27 1031.68 1369.91 1031.68C1362.51 1031.68 1356.03 1033.61 1350.46 1037.47C1344.94 1041.27 1340.62 1046.66 1337.52 1053.63C1334.46 1060.54 1332.93 1068.66 1332.93 1077.98C1332.93 1087.52 1334.44 1095.82 1337.44 1102.9C1340.49 1109.97 1344.78 1115.46 1350.3 1119.37C1355.87 1123.29 1362.41 1125.24 1369.91 1125.24C1374.84 1125.24 1379.31 1124.38 1383.33 1122.67C1387.35 1120.96 1390.75 1118.49 1393.54 1115.28C1396.33 1112.06 1398.31 1108.2 1399.49 1103.7H1418.46C1417.38 1110.99 1414.73 1117.55 1410.5 1123.39C1406.32 1129.18 1400.77 1133.79 1393.86 1137.22C1387 1140.59 1379.02 1142.28 1369.91 1142.28Z" fill="url(#paint2_linear_99_13)"/>
<path d="M1499.51 187.144H1425.39C1405.73 187.144 1386.88 194.953 1372.98 208.854C1359.08 222.755 1351.27 241.608 1351.27 261.267C1351.27 280.926 1359.08 299.78 1372.98 313.68C1386.88 327.581 1405.73 335.391 1425.39 335.391M1499.51 187.144V335.391M1499.51 187.144H1573.64C1583.37 187.144 1593.01 189.061 1602 192.786C1610.99 196.511 1619.17 201.971 1626.05 208.854C1632.93 215.737 1638.39 223.908 1642.12 232.901C1645.84 241.894 1647.76 251.533 1647.76 261.267C1647.76 271.001 1645.84 280.64 1642.12 289.633C1638.39 298.626 1632.93 306.797 1626.05 313.68C1619.17 320.563 1610.99 326.023 1602 329.748C1593.01 333.473 1583.37 335.391 1573.64 335.391M1499.51 335.391H1425.39M1499.51 335.391H1573.64M1499.51 335.391V483.638M1425.39 335.391C1405.73 335.391 1386.88 343.2 1372.98 357.101C1359.08 371.002 1351.27 389.855 1351.27 409.514C1351.27 429.173 1359.08 448.026 1372.98 461.927C1386.88 475.828 1405.73 483.638 1425.39 483.638M1573.64 335.391C1563.9 335.391 1554.26 337.308 1545.27 341.033C1536.28 344.758 1528.11 350.218 1521.22 357.101C1514.34 363.984 1508.88 372.155 1505.15 381.148C1501.43 390.141 1499.51 399.78 1499.51 409.514C1499.51 419.248 1501.43 428.887 1505.15 437.88C1508.88 446.873 1514.34 455.044 1521.22 461.927C1528.11 468.81 1536.28 474.27 1545.27 477.995C1554.26 481.72 1563.9 483.638 1573.64 483.638C1583.37 483.638 1593.01 481.72 1602 477.995C1610.99 474.27 1619.17 468.81 1626.05 461.927C1632.93 455.044 1638.39 446.873 1642.12 437.88C1645.84 428.887 1647.76 419.248 1647.76 409.514C1647.76 399.78 1645.84 390.141 1642.12 381.148C1638.39 372.155 1632.93 363.984 1626.05 357.101C1619.17 350.218 1610.99 344.758 1602 341.033C1593.01 337.308 1583.37 335.391 1573.64 335.391ZM1425.39 483.638C1405.73 483.638 1386.88 491.447 1372.98 505.348C1359.08 519.249 1351.27 538.102 1351.27 557.761C1351.27 577.42 1359.08 596.273 1372.98 610.174C1386.88 624.075 1405.73 631.884 1425.39 631.884C1445.05 631.884 1463.9 624.075 1477.8 610.174C1491.7 596.273 1499.51 577.42 1499.51 557.761V483.638M1425.39 483.638H1499.51" stroke="#F3F3F3" stroke-width="4.05" stroke-linecap="round" stroke-linejoin="round"/>
<defs>
<linearGradient id="paint0_linear_99_13" x1="1920" y1="720" x2="0" y2="720" gradientUnits="userSpaceOnUse">
<stop stop-color="#1A1327"/>
<stop offset="0.5" stop-color="#3D2B5A"/>
<stop offset="0.661607" stop-color="#402E5F"/>
<stop offset="0.991468" stop-color="#5F448D"/>
</linearGradient>
<linearGradient id="paint1_linear_99_13" x1="517" y1="661.529" x2="517" y2="883.529" gradientUnits="userSpaceOnUse">
<stop offset="1" stop-color="white"/>
</linearGradient>
<linearGradient id="paint2_linear_99_13" x1="786.046" y1="920.71" x2="786.046" y2="1194.71" gradientUnits="userSpaceOnUse">
<stop offset="1" stop-color="white"/>
</linearGradient>
<clipPath id="clip0_99_13">
<rect width="1073.1" height="282" fill="white" transform="translate(131 632)"/>
</clipPath>
</defs>
</svg>
